%TF.GenerationSoftware,KiCad,Pcbnew,(6.0.0)*%
%TF.CreationDate,2022-03-03T21:09:28+01:00*%
%TF.ProjectId,automate,6175746f-6d61-4746-952e-6b696361645f,rev?*%
%TF.SameCoordinates,Original*%
%TF.FileFunction,Soldermask,Bot*%
%TF.FilePolarity,Negative*%
%FSLAX46Y46*%
G04 Gerber Fmt 4.6, Leading zero omitted, Abs format (unit mm)*
G04 Created by KiCad (PCBNEW (6.0.0)) date 2022-03-03 21:09:28*
%MOMM*%
%LPD*%
G01*
G04 APERTURE LIST*
G04 Aperture macros list*
%AMRoundRect*
0 Rectangle with rounded corners*
0 $1 Rounding radius*
0 $2 $3 $4 $5 $6 $7 $8 $9 X,Y pos of 4 corners*
0 Add a 4 corners polygon primitive as box body*
4,1,4,$2,$3,$4,$5,$6,$7,$8,$9,$2,$3,0*
0 Add four circle primitives for the rounded corners*
1,1,$1+$1,$2,$3*
1,1,$1+$1,$4,$5*
1,1,$1+$1,$6,$7*
1,1,$1+$1,$8,$9*
0 Add four rect primitives between the rounded corners*
20,1,$1+$1,$2,$3,$4,$5,0*
20,1,$1+$1,$4,$5,$6,$7,0*
20,1,$1+$1,$6,$7,$8,$9,0*
20,1,$1+$1,$8,$9,$2,$3,0*%
G04 Aperture macros list end*
%ADD10R,2.500000X2.500000*%
%ADD11C,2.500000*%
%ADD12O,1.600000X2.400000*%
%ADD13R,1.600000X2.400000*%
%ADD14C,3.000000*%
%ADD15R,1.700000X1.700000*%
%ADD16O,1.700000X1.700000*%
%ADD17C,2.000000*%
%ADD18C,3.200000*%
%ADD19R,2.000000X2.000000*%
%ADD20RoundRect,0.249999X0.450001X-0.350001X0.450001X0.350001X-0.450001X0.350001X-0.450001X-0.350001X0*%
%ADD21R,3.500000X2.300000*%
%ADD22R,2.300000X3.500000*%
%ADD23RoundRect,0.249999X-0.450001X0.350001X-0.450001X-0.350001X0.450001X-0.350001X0.450001X0.350001X0*%
%ADD24RoundRect,0.249999X0.350001X0.450001X-0.350001X0.450001X-0.350001X-0.450001X0.350001X-0.450001X0*%
%ADD25RoundRect,0.249999X-0.350001X-0.450001X0.350001X-0.450001X0.350001X0.450001X-0.350001X0.450001X0*%
%ADD26R,0.900000X0.800000*%
%ADD27R,0.800000X0.900000*%
%ADD28RoundRect,0.250000X-0.350000X-0.450000X0.350000X-0.450000X0.350000X0.450000X-0.350000X0.450000X0*%
%ADD29RoundRect,0.250000X0.350000X0.450000X-0.350000X0.450000X-0.350000X-0.450000X0.350000X-0.450000X0*%
G04 APERTURE END LIST*
D10*
%TO.C,J1*%
X70418400Y-43080800D03*
D11*
X65418400Y-43080800D03*
%TD*%
D10*
%TO.C,J3*%
X200200000Y-42900000D03*
D11*
X195200000Y-42900000D03*
X190200000Y-42900000D03*
X185200000Y-42900000D03*
%TD*%
D10*
%TO.C,J4*%
X177200000Y-42900000D03*
D11*
X172200000Y-42900000D03*
X167200000Y-42900000D03*
X162200000Y-42900000D03*
%TD*%
D10*
%TO.C,J5*%
X60600000Y-159700000D03*
D11*
X65600000Y-159700000D03*
X70600000Y-159700000D03*
%TD*%
D10*
%TO.C,J6*%
X82200000Y-159800000D03*
D11*
X87200000Y-159800000D03*
X92200000Y-159800000D03*
%TD*%
D10*
%TO.C,J7*%
X103200000Y-159800000D03*
D11*
X108200000Y-159800000D03*
X113200000Y-159800000D03*
%TD*%
D10*
%TO.C,J8*%
X124200000Y-159800000D03*
D11*
X129200000Y-159800000D03*
X134200000Y-159800000D03*
%TD*%
D10*
%TO.C,J9*%
X144200000Y-159800000D03*
D11*
X149200000Y-159800000D03*
X154200000Y-159800000D03*
%TD*%
D10*
%TO.C,J10*%
X166100000Y-159500000D03*
D11*
X171100000Y-159500000D03*
X176100000Y-159500000D03*
%TD*%
D10*
%TO.C,J11*%
X186100000Y-159500000D03*
D11*
X191100000Y-159500000D03*
X196100000Y-159500000D03*
%TD*%
D10*
%TO.C,J12*%
X205900000Y-159400000D03*
D11*
X210900000Y-159400000D03*
X215900000Y-159400000D03*
%TD*%
D10*
%TO.C,J13*%
X235300000Y-154400000D03*
D11*
X235300000Y-149400000D03*
%TD*%
D10*
%TO.C,J14*%
X235300000Y-141400000D03*
D11*
X235300000Y-136400000D03*
%TD*%
D10*
%TO.C,J15*%
X235300000Y-128400000D03*
D11*
X235300000Y-123400000D03*
%TD*%
D10*
%TO.C,J16*%
X235300000Y-115400000D03*
D11*
X235300000Y-110400000D03*
%TD*%
D10*
%TO.C,J17*%
X235300000Y-102400000D03*
D11*
X235300000Y-97400000D03*
%TD*%
D10*
%TO.C,J18*%
X235300000Y-89400000D03*
D11*
X235300000Y-84400000D03*
%TD*%
D10*
%TO.C,J19*%
X235300000Y-76400000D03*
D11*
X235300000Y-71400000D03*
%TD*%
D10*
%TO.C,J20*%
X235300000Y-63400000D03*
D11*
X235300000Y-58400000D03*
%TD*%
D10*
%TO.C,J21*%
X111190000Y-42950000D03*
D11*
X106190000Y-42950000D03*
%TD*%
D10*
%TO.C,J22*%
X125190000Y-42950000D03*
D11*
X120190000Y-42950000D03*
%TD*%
D10*
%TO.C,J23*%
X138690000Y-42950000D03*
D11*
X133690000Y-42950000D03*
%TD*%
D10*
%TO.C,J24*%
X153690000Y-42950000D03*
D11*
X148690000Y-42950000D03*
%TD*%
D10*
%TO.C,J25*%
X97418400Y-43080800D03*
D11*
X92418400Y-43080800D03*
X87418400Y-43080800D03*
X82418400Y-43080800D03*
X77418400Y-43080800D03*
%TD*%
D12*
%TO.C,U2*%
X105175000Y-77760000D03*
X107715000Y-77760000D03*
X110255000Y-77760000D03*
X112795000Y-77760000D03*
X115335000Y-77760000D03*
X117875000Y-77760000D03*
X120415000Y-77760000D03*
X122955000Y-77760000D03*
X125495000Y-77760000D03*
X128035000Y-77760000D03*
X130575000Y-77760000D03*
X133115000Y-77760000D03*
X135655000Y-77760000D03*
X138195000Y-77760000D03*
X140735000Y-77760000D03*
X143275000Y-77760000D03*
X145815000Y-77760000D03*
X148355000Y-77760000D03*
X150895000Y-77760000D03*
X153435000Y-77760000D03*
X153435000Y-93000000D03*
X150895000Y-93000000D03*
X148355000Y-93000000D03*
X145815000Y-93000000D03*
X143275000Y-93000000D03*
X140735000Y-93000000D03*
X138195000Y-93000000D03*
X135655000Y-93000000D03*
X133115000Y-93000000D03*
X130575000Y-93000000D03*
X128035000Y-93000000D03*
X125495000Y-93000000D03*
X122955000Y-93000000D03*
X120415000Y-93000000D03*
X117875000Y-93000000D03*
X115335000Y-93000000D03*
X112795000Y-93000000D03*
X110255000Y-93000000D03*
X107715000Y-93000000D03*
D13*
X105175000Y-93000000D03*
%TD*%
D14*
%TO.C,K1*%
X65600000Y-133800000D03*
X71600000Y-148000000D03*
X59600000Y-148000000D03*
X71600000Y-135800000D03*
X59600000Y-135800000D03*
%TD*%
%TO.C,K2*%
X86200000Y-133800000D03*
X92200000Y-148000000D03*
X80200000Y-148000000D03*
X92200000Y-135800000D03*
X80200000Y-135800000D03*
%TD*%
%TO.C,K3*%
X108200000Y-133800000D03*
X114200000Y-148000000D03*
X102200000Y-148000000D03*
X114200000Y-135800000D03*
X102200000Y-135800000D03*
%TD*%
%TO.C,K4*%
X128200000Y-133800000D03*
X134200000Y-148000000D03*
X122200000Y-148000000D03*
X134200000Y-135800000D03*
X122200000Y-135800000D03*
%TD*%
%TO.C,K5*%
X149200000Y-133800000D03*
X155200000Y-148000000D03*
X143200000Y-148000000D03*
X155200000Y-135800000D03*
X143200000Y-135800000D03*
%TD*%
%TO.C,K6*%
X171100000Y-133500000D03*
X177100000Y-147700000D03*
X165100000Y-147700000D03*
X177100000Y-135500000D03*
X165100000Y-135500000D03*
%TD*%
%TO.C,K7*%
X191100000Y-133500000D03*
X197100000Y-147700000D03*
X185100000Y-147700000D03*
X197100000Y-135500000D03*
X185100000Y-135500000D03*
%TD*%
%TO.C,K8*%
X210900000Y-133400000D03*
X216900000Y-147600000D03*
X204900000Y-147600000D03*
X216900000Y-135400000D03*
X204900000Y-135400000D03*
%TD*%
D10*
%TO.C,J26*%
X229770000Y-42650000D03*
D11*
X224770000Y-42650000D03*
X219770000Y-42650000D03*
X214770000Y-42650000D03*
X209770000Y-42650000D03*
%TD*%
D15*
%TO.C,JP1*%
X118825000Y-60200000D03*
D16*
X121365000Y-60200000D03*
%TD*%
D15*
%TO.C,JP2*%
X186000000Y-109500000D03*
D16*
X183460000Y-109500000D03*
X180920000Y-109500000D03*
%TD*%
D15*
%TO.C,JP3*%
X186040000Y-80055000D03*
D16*
X183500000Y-80055000D03*
X180960000Y-80055000D03*
%TD*%
D15*
%TO.C,JP4*%
X185975000Y-103000000D03*
D16*
X183435000Y-103000000D03*
X180895000Y-103000000D03*
%TD*%
D15*
%TO.C,JP5*%
X186040000Y-72555000D03*
D16*
X183500000Y-72555000D03*
X180960000Y-72555000D03*
%TD*%
D17*
%TO.C,SW1*%
X171500000Y-90300000D03*
X166500000Y-90300000D03*
%TD*%
D18*
%TO.C,REF\u002A\u002A*%
X53900000Y-39200000D03*
%TD*%
%TO.C,REF\u002A\u002A*%
X53848000Y-165100000D03*
%TD*%
%TO.C,REF\u002A\u002A*%
X241600000Y-165700000D03*
%TD*%
%TO.C,REF\u002A\u002A*%
X241100000Y-40200000D03*
%TD*%
%TO.C,REF\u002A\u002A*%
X67951600Y-63569200D03*
%TD*%
%TO.C,REF\u002A\u002A*%
X67951600Y-118569200D03*
%TD*%
%TO.C,REF\u002A\u002A*%
X159951600Y-63569200D03*
%TD*%
%TO.C,REF\u002A\u002A*%
X159951600Y-118569200D03*
%TD*%
D10*
%TO.C,J27*%
X77915000Y-94100000D03*
D11*
X82915000Y-94100000D03*
%TD*%
D19*
%TO.C,BZ2*%
X138700000Y-59400000D03*
D17*
X132200000Y-59400000D03*
%TD*%
D15*
%TO.C,J2*%
X53800000Y-119150000D03*
D16*
X53800000Y-116610000D03*
X53800000Y-114070000D03*
X53800000Y-111530000D03*
X53800000Y-108990000D03*
X53800000Y-106450000D03*
%TD*%
D20*
%TO.C,C10*%
X206300000Y-117600000D03*
X206300000Y-115600000D03*
%TD*%
%TO.C,C11*%
X210312000Y-107170800D03*
X210312000Y-105170800D03*
%TD*%
%TO.C,C12*%
X210847200Y-95070800D03*
X210847200Y-93070800D03*
%TD*%
%TO.C,C13*%
X210701020Y-82540600D03*
X210701020Y-80540600D03*
%TD*%
%TO.C,C14*%
X211347200Y-69170800D03*
X211347200Y-67170800D03*
%TD*%
%TO.C,C15*%
X194600000Y-66500000D03*
X194600000Y-64500000D03*
%TD*%
%TO.C,C16*%
X194247200Y-52470800D03*
X194247200Y-50470800D03*
%TD*%
D21*
%TO.C,D2*%
X59600000Y-66200000D03*
X54200000Y-66200000D03*
%TD*%
D22*
%TO.C,D23*%
X226200000Y-148760000D03*
X226200000Y-154160000D03*
%TD*%
%TO.C,D24*%
X225947200Y-135830800D03*
X225947200Y-141230800D03*
%TD*%
%TO.C,D25*%
X225947200Y-122830800D03*
X225947200Y-128230800D03*
%TD*%
%TO.C,D26*%
X226447200Y-110230800D03*
X226447200Y-115630800D03*
%TD*%
%TO.C,D31*%
X226301020Y-97200600D03*
X226301020Y-102600600D03*
%TD*%
%TO.C,D32*%
X227000000Y-84000000D03*
X227000000Y-89400000D03*
%TD*%
%TO.C,D33*%
X226947200Y-71030800D03*
X226947200Y-76430800D03*
%TD*%
%TO.C,D34*%
X226800000Y-58200000D03*
X226800000Y-63600000D03*
%TD*%
D21*
%TO.C,D39*%
X98500000Y-53500000D03*
X103900000Y-53500000D03*
%TD*%
%TO.C,D40*%
X110800000Y-53700000D03*
X116200000Y-53700000D03*
%TD*%
%TO.C,D41*%
X123600000Y-54000000D03*
X129000000Y-54000000D03*
%TD*%
%TO.C,D42*%
X139700000Y-53700000D03*
X145100000Y-53700000D03*
%TD*%
D23*
%TO.C,R33*%
X210312000Y-110670800D03*
X210312000Y-112670800D03*
%TD*%
D24*
%TO.C,R38*%
X206200000Y-102800000D03*
X204200000Y-102800000D03*
%TD*%
%TO.C,R39*%
X204400000Y-116400000D03*
X202400000Y-116400000D03*
%TD*%
D25*
%TO.C,R41*%
X203724000Y-109728000D03*
X205724000Y-109728000D03*
%TD*%
%TO.C,R42*%
X204347200Y-94070800D03*
X206347200Y-94070800D03*
%TD*%
D23*
%TO.C,R43*%
X210701020Y-86040600D03*
X210701020Y-88040600D03*
%TD*%
%TO.C,R44*%
X211100000Y-99000000D03*
X211100000Y-101000000D03*
%TD*%
%TO.C,R46*%
X194247200Y-55970800D03*
X194247200Y-57970800D03*
%TD*%
D24*
%TO.C,R47*%
X205900000Y-88900000D03*
X203900000Y-88900000D03*
%TD*%
%TO.C,R48*%
X187800000Y-61300000D03*
X185800000Y-61300000D03*
%TD*%
%TO.C,R49*%
X206200000Y-84800000D03*
X204200000Y-84800000D03*
%TD*%
D20*
%TO.C,R50*%
X185900000Y-56900000D03*
X185900000Y-54900000D03*
%TD*%
D25*
%TO.C,R51*%
X204000000Y-80100000D03*
X206000000Y-80100000D03*
%TD*%
%TO.C,R52*%
X204200000Y-98500000D03*
X206200000Y-98500000D03*
%TD*%
%TO.C,R53*%
X185200000Y-66500000D03*
X187200000Y-66500000D03*
%TD*%
%TO.C,R54*%
X180900000Y-56400000D03*
X182900000Y-56400000D03*
%TD*%
D24*
%TO.C,R55*%
X98915000Y-59300000D03*
X96915000Y-59300000D03*
%TD*%
D20*
%TO.C,R56*%
X110500000Y-64300000D03*
X110500000Y-62300000D03*
%TD*%
D25*
%TO.C,R57*%
X99115000Y-63000000D03*
X101115000Y-63000000D03*
%TD*%
D20*
%TO.C,R58*%
X147100000Y-67100000D03*
X147100000Y-65100000D03*
%TD*%
%TO.C,R60*%
X143500000Y-61100000D03*
X143500000Y-59100000D03*
%TD*%
%TO.C,R61*%
X142300000Y-67100000D03*
X142300000Y-65100000D03*
%TD*%
%TO.C,R62*%
X147200000Y-61200000D03*
X147200000Y-59200000D03*
%TD*%
D25*
%TO.C,R63*%
X89200000Y-53800000D03*
X91200000Y-53800000D03*
%TD*%
D23*
%TO.C,R64*%
X79600000Y-56900000D03*
X79600000Y-58900000D03*
%TD*%
%TO.C,R65*%
X93100000Y-57700000D03*
X93100000Y-59700000D03*
%TD*%
D20*
%TO.C,R66*%
X76700000Y-53850000D03*
X76700000Y-51850000D03*
%TD*%
D23*
%TO.C,R67*%
X125200000Y-102100000D03*
X125200000Y-104100000D03*
%TD*%
D24*
%TO.C,R69*%
X131200000Y-99000000D03*
X129200000Y-99000000D03*
%TD*%
D26*
%TO.C,Q9*%
X89300000Y-59650000D03*
X89300000Y-57750000D03*
X87300000Y-58700000D03*
%TD*%
%TO.C,Q10*%
X79400000Y-51800000D03*
X79400000Y-53700000D03*
X81400000Y-52750000D03*
%TD*%
D27*
%TO.C,Q11*%
X129250000Y-104200000D03*
X131150000Y-104200000D03*
X130200000Y-102200000D03*
%TD*%
D22*
%TO.C,D1*%
X63800000Y-51700000D03*
X63800000Y-57100000D03*
%TD*%
%TO.C,D13*%
X71400000Y-57300000D03*
X71400000Y-51900000D03*
%TD*%
%TO.C,D28*%
X218100000Y-123200000D03*
X218100000Y-128600000D03*
%TD*%
%TO.C,D29*%
X218200000Y-109900000D03*
X218200000Y-115300000D03*
%TD*%
%TO.C,D30*%
X217900000Y-97200000D03*
X217900000Y-102600000D03*
%TD*%
%TO.C,D35*%
X217900000Y-83800000D03*
X217900000Y-89200000D03*
%TD*%
%TO.C,D36*%
X217700000Y-70700000D03*
X217700000Y-76100000D03*
%TD*%
%TO.C,D37*%
X217900000Y-57900000D03*
X217900000Y-63300000D03*
%TD*%
%TO.C,D38*%
X204800000Y-64000000D03*
X204800000Y-58600000D03*
%TD*%
D25*
%TO.C,R81*%
X189200000Y-76100000D03*
X191200000Y-76100000D03*
%TD*%
D23*
%TO.C,R82*%
X166116000Y-76600000D03*
X166116000Y-74600000D03*
%TD*%
D25*
%TO.C,R83*%
X160036000Y-78270800D03*
X162036000Y-78270800D03*
%TD*%
D23*
%TO.C,R84*%
X198600000Y-67000000D03*
X198600000Y-69000000D03*
%TD*%
%TO.C,R89*%
X200660000Y-71390000D03*
X200660000Y-73390000D03*
%TD*%
%TO.C,R90*%
X207500000Y-72000000D03*
X207500000Y-74000000D03*
%TD*%
D28*
%TO.C,R96*%
X151400000Y-69900000D03*
X153400000Y-69900000D03*
%TD*%
D29*
%TO.C,R97*%
X165860800Y-69948400D03*
X163860800Y-69948400D03*
%TD*%
M02*
