M48
; DRILL file {KiCad (6.0.0)} date Thu Mar  3 21:11:15 2022
; FORMAT={-:-/ absolute / inch / decimal}
; #@! TF.CreationDate,2022-03-03T21:11:15+01:00
; #@! TF.GenerationSoftware,Kicad,Pcbnew,(6.0.0)
; #@! TF.FileFunction,Plated,1,4,PTH
FMAT,2
INCH
; #@! TA.AperFunction,Plated,PTH,ViaDrill
T1C0.0157
; #@! TA.AperFunction,Plated,PTH,ViaDrill
T2C0.0197
; #@! TA.AperFunction,Plated,PTH,ViaDrill
T3C0.0236
; #@! TA.AperFunction,Plated,PTH,ComponentDrill
T4C0.0315
; #@! TA.AperFunction,Plated,PTH,ComponentDrill
T5C0.0394
; #@! TA.AperFunction,Plated,PTH,ComponentDrill
T6C0.0433
; #@! TA.AperFunction,Plated,PTH,ComponentDrill
T7C0.0512
; #@! TA.AperFunction,Plated,PTH,ComponentDrill
T8C0.0591
%
G90
G05
T1
X2.2171Y-3.0354
X2.3746Y-2.8189
X2.5071Y-2.912
X2.5071Y-3.0407
X2.55Y-4.9
X2.7Y-4.9
X2.7486Y-2.8583
X2.7959Y-3.0591
X2.7959Y-3.2165
X3.12Y-2.5
X3.1502Y-3.2126
X3.1699Y-2.8307
X3.35Y-4.7
X3.35Y-4.85
X3.5846Y-2.3484
X3.66Y-2.92
X3.74Y-2.12
X3.75Y-2.45
X3.75Y-2.85
X3.7717Y-4.2008
X3.7998Y-3.5
X3.853Y-3.5
X4.04Y-4.94
X4.0551Y-4.3583
X4.08Y-3.2
X4.1Y-4.68
X4.4Y-2.85
X4.563Y-4.3071
X4.6Y-2.7
X4.6Y-4.7
X4.66Y-5.08
X4.9Y-2.85
X4.94Y-3.9
X4.95Y-2.5
X5.0407Y-3.2007
X5.05Y-2.8
X5.25Y-3.55
X5.4Y-4.72
X5.4Y-5.08
X5.4724Y-4.3307
X5.5Y-2.7
X5.52Y-3.26
X5.6Y-3.88
X5.6407Y-3.4007
X5.72Y-2.78
X5.85Y-3.45
X5.8937Y-4.3346
X5.98Y-2.22
X6.06Y-3.16
X6.1Y-4.36
X6.12Y-4.08
X6.15Y-3.2
X6.15Y-3.35
X6.16Y-3.82
X6.16Y-4.24
X6.2Y-3.06
X6.2Y-4.9
X6.22Y-4.42
X6.25Y-3.15
X6.25Y-3.45
X6.26Y-3.78
X6.26Y-4.08
X6.28Y-3.56
X6.28Y-5.08
X6.3Y-4.42
X6.3189Y-4.126
X6.48Y-3.08
X6.55Y-2.6
X6.5589Y-4.4085
X6.56Y-4.24
X6.58Y-4.04
X6.76Y-3.06
X6.82Y-3.18
X6.8219Y-2.6181
X6.9Y-3.0
X6.9Y-3.38
X6.94Y-4.72
X6.98Y-4.16
X6.98Y-4.88
X7.04Y-4.66
X7.12Y-3.04
X7.22Y-3.0
X7.52Y-3.1
X7.52Y-3.22
X7.52Y-3.96
X7.54Y-2.86
X7.6938Y-3.1562
X7.72Y-4.7
X7.72Y-4.92
X7.74Y-2.82
X7.7496Y-2.6004
X7.8Y-2.4144
X7.8346Y-4.185
X7.85Y-2.95
X7.85Y-3.15
X7.9Y-3.1403
X7.94Y-2.96
X7.9606Y-4.4134
X7.9606Y-4.6693
X8.0394Y-3.4106
X8.04Y-1.86
X8.1Y-4.7
X8.12Y-3.98
X8.14Y-3.22
X8.1654Y-4.7008
X8.18Y-2.22
X8.18Y-2.44
X8.18Y-3.1
X8.1975Y-3.8825
X8.2Y-3.35
X8.2093Y-3.7407
X8.22Y-3.3
X8.24Y-2.8
X8.28Y-3.0087
X8.32Y-2.9802
X8.36Y-3.1
X8.38Y-3.3
X8.4Y-2.95
X8.4Y-3.0
X8.4Y-3.22
X8.4055Y-3.8945
X8.42Y-4.5
X8.44Y-2.86
X8.46Y-3.12
X8.46Y-3.5
X8.66Y-2.28
X8.74Y-1.98
X8.7913Y-5.7756
T2
X2.0793Y-3.086
X2.0928Y-2.8251
X2.12Y-2.22
X2.3189Y-2.248
X2.8681Y-4.1437
X3.0236Y-1.9646
X3.0315Y-2.4055
X3.1325Y-3.0059
X3.2047Y-2.4016
X3.2407Y-2.937
X3.3392Y-2.9567
X3.536Y-2.8583
X3.6217Y-2.503
X4.0085Y-2.9567
X4.0135Y-2.3216
X4.0787Y-2.4803
X4.0906Y-1.9921
X4.18Y-2.74
X4.4882Y-2.4724
X4.5748Y-1.9882
X4.8577Y-2.7372
X4.8661Y-4.1732
X5.0787Y-1.9843
X5.7165Y-1.9843
X5.9Y-2.48
X6.3174Y-2.7539
X6.5098Y-3.2402
X6.6339Y-4.2913
X6.66Y-3.0
X6.7306Y-4.6526
X7.0291Y-3.8211
X7.1259Y-3.5865
X7.2165Y-2.4094
X7.3287Y-2.0059
X7.6409Y-4.4283
X7.6614Y-2.4528
X7.7004Y-3.4204
X7.9Y-2.7
X8.05Y-4.15
X8.122Y-4.4724
X8.15Y-3.0
X8.2Y-2.5
X8.2835Y-4.6752
X8.2913Y-3.0827
X8.3Y-2.44
X8.3Y-3.6
X8.3675Y-4.1406
X8.4528Y-4.4173
X8.46Y-2.32
X8.6969Y-4.6811
T3
X2.36Y-3.04
X2.36Y-4.58
X7.84Y-2.1
T4
X4.1407Y-3.0614
X4.1407Y-3.6614
X4.2407Y-3.0614
X4.2407Y-3.6614
X4.3407Y-3.0614
X4.3407Y-3.6614
X4.4407Y-3.0614
X4.4407Y-3.6614
X4.5407Y-3.0614
X4.5407Y-3.6614
X4.6407Y-3.0614
X4.6407Y-3.6614
X4.7407Y-3.0614
X4.7407Y-3.6614
X4.8407Y-3.0614
X4.8407Y-3.6614
X4.9407Y-3.0614
X4.9407Y-3.6614
X5.0407Y-3.0614
X5.0407Y-3.6614
X5.1407Y-3.0614
X5.1407Y-3.6614
X5.2407Y-3.0614
X5.2407Y-3.6614
X5.3407Y-3.0614
X5.3407Y-3.6614
X5.4407Y-3.0614
X5.4407Y-3.6614
X5.5407Y-3.0614
X5.5407Y-3.6614
X5.6407Y-3.0614
X5.6407Y-3.6614
X5.7407Y-3.0614
X5.7407Y-3.6614
X5.8407Y-3.0614
X5.8407Y-3.6614
X5.9407Y-3.0614
X5.9407Y-3.6614
X6.0407Y-3.0614
X6.0407Y-3.6614
T5
X2.1181Y-4.1909
X2.1181Y-4.2909
X2.1181Y-4.3909
X2.1181Y-4.4909
X2.1181Y-4.5909
X2.1181Y-4.6909
X4.6781Y-2.3701
X4.7781Y-2.3701
X5.2047Y-2.3386
X5.4606Y-2.3386
X7.1219Y-4.0551
X7.1228Y-4.311
X7.1244Y-2.8565
X7.1244Y-3.1518
X7.2219Y-4.0551
X7.2228Y-4.311
X7.2244Y-2.8565
X7.2244Y-3.1518
X7.3219Y-4.0551
X7.3228Y-4.311
X7.3244Y-2.8565
X7.3244Y-3.1518
T6
X6.5551Y-3.5551
X6.752Y-3.5551
T7
X2.3465Y-5.3465
X2.3465Y-5.8268
X2.5827Y-5.2677
X2.8189Y-5.3465
X2.8189Y-5.8268
X3.1575Y-5.3465
X3.1575Y-5.8268
X3.3937Y-5.2677
X3.6299Y-5.3465
X3.6299Y-5.8268
X4.0236Y-5.3465
X4.0236Y-5.8268
X4.2598Y-5.2677
X4.4961Y-5.3465
X4.4961Y-5.8268
X4.811Y-5.3465
X4.811Y-5.8268
X5.0472Y-5.2677
X5.2835Y-5.3465
X5.2835Y-5.8268
X5.6378Y-5.3465
X5.6378Y-5.8268
X5.874Y-5.2677
X6.1102Y-5.3465
X6.1102Y-5.8268
X6.5Y-5.3346
X6.5Y-5.815
X6.7362Y-5.2559
X6.9724Y-5.3346
X6.9724Y-5.815
X7.2874Y-5.3346
X7.2874Y-5.815
X7.5236Y-5.2559
X7.7598Y-5.3346
X7.7598Y-5.815
X8.0669Y-5.3307
X8.0669Y-5.811
X8.3031Y-5.252
X8.5394Y-5.3307
X8.5394Y-5.811
T8
X2.3858Y-6.2874
X2.5755Y-1.6961
X2.5827Y-6.2874
X2.7724Y-1.6961
X2.7795Y-6.2874
X3.048Y-1.6961
X3.0675Y-3.7047
X3.2362Y-6.2913
X3.2448Y-1.6961
X3.2644Y-3.7047
X3.4331Y-6.2913
X3.4417Y-1.6961
X3.6299Y-6.2913
X3.6385Y-1.6961
X3.8354Y-1.6961
X4.063Y-6.2913
X4.1807Y-1.6909
X4.2598Y-6.2913
X4.3776Y-1.6909
X4.4567Y-6.2913
X4.7319Y-1.6909
X4.8898Y-6.2913
X4.9287Y-1.6909
X5.0866Y-6.2913
X5.2634Y-1.6909
X5.2835Y-6.2913
X5.4602Y-1.6909
X5.6772Y-6.2913
X5.8539Y-1.6909
X5.874Y-6.2913
X6.0508Y-1.6909
X6.0709Y-6.2913
X6.3858Y-1.689
X6.5394Y-6.2795
X6.5827Y-1.689
X6.7362Y-6.2795
X6.7795Y-1.689
X6.9331Y-6.2795
X6.9764Y-1.689
X7.2913Y-1.689
X7.3268Y-6.2795
X7.4882Y-1.689
X7.5236Y-6.2795
X7.685Y-1.689
X7.7205Y-6.2795
X7.8819Y-1.689
X8.1063Y-6.2756
X8.2587Y-1.6791
X8.3031Y-6.2756
X8.4555Y-1.6791
X8.5Y-6.2756
X8.6524Y-1.6791
X8.8492Y-1.6791
X9.0461Y-1.6791
X9.2638Y-2.2992
X9.2638Y-2.4961
X9.2638Y-2.811
X9.2638Y-3.0079
X9.2638Y-3.3228
X9.2638Y-3.5197
X9.2638Y-3.8346
X9.2638Y-4.0315
X9.2638Y-4.3465
X9.2638Y-4.5433
X9.2638Y-4.8583
X9.2638Y-5.0551
X9.2638Y-5.3701
X9.2638Y-5.5669
X9.2638Y-5.8819
X9.2638Y-6.0787
T0
M30
