%TF.GenerationSoftware,KiCad,Pcbnew,(6.0.0)*%
%TF.CreationDate,2022-03-09T19:11:31+01:00*%
%TF.ProjectId,automate,6175746f-6d61-4746-952e-6b696361645f,rev?*%
%TF.SameCoordinates,Original*%
%TF.FileFunction,Copper,L1,Top*%
%TF.FilePolarity,Positive*%
%FSLAX46Y46*%
G04 Gerber Fmt 4.6, Leading zero omitted, Abs format (unit mm)*
G04 Created by KiCad (PCBNEW (6.0.0)) date 2022-03-09 19:11:31*
%MOMM*%
%LPD*%
G01*
G04 APERTURE LIST*
G04 Aperture macros list*
%AMRoundRect*
0 Rectangle with rounded corners*
0 $1 Rounding radius*
0 $2 $3 $4 $5 $6 $7 $8 $9 X,Y pos of 4 corners*
0 Add a 4 corners polygon primitive as box body*
4,1,4,$2,$3,$4,$5,$6,$7,$8,$9,$2,$3,0*
0 Add four circle primitives for the rounded corners*
1,1,$1+$1,$2,$3*
1,1,$1+$1,$4,$5*
1,1,$1+$1,$6,$7*
1,1,$1+$1,$8,$9*
0 Add four rect primitives between the rounded corners*
20,1,$1+$1,$2,$3,$4,$5,0*
20,1,$1+$1,$4,$5,$6,$7,0*
20,1,$1+$1,$6,$7,$8,$9,0*
20,1,$1+$1,$8,$9,$2,$3,0*%
G04 Aperture macros list end*
%TA.AperFunction,SMDPad,CuDef*%
%ADD10RoundRect,0.249999X0.350001X0.450001X-0.350001X0.450001X-0.350001X-0.450001X0.350001X-0.450001X0*%
%TD*%
%TA.AperFunction,SMDPad,CuDef*%
%ADD11RoundRect,0.249999X-0.350001X-0.450001X0.350001X-0.450001X0.350001X0.450001X-0.350001X0.450001X0*%
%TD*%
%TA.AperFunction,SMDPad,CuDef*%
%ADD12RoundRect,0.249999X0.450001X-0.350001X0.450001X0.350001X-0.450001X0.350001X-0.450001X-0.350001X0*%
%TD*%
%TA.AperFunction,SMDPad,CuDef*%
%ADD13R,3.500000X2.300000*%
%TD*%
%TA.AperFunction,ComponentPad*%
%ADD14R,2.500000X2.500000*%
%TD*%
%TA.AperFunction,ComponentPad*%
%ADD15C,2.500000*%
%TD*%
%TA.AperFunction,SMDPad,CuDef*%
%ADD16RoundRect,0.249999X-0.450001X0.350001X-0.450001X-0.350001X0.450001X-0.350001X0.450001X0.350001X0*%
%TD*%
%TA.AperFunction,SMDPad,CuDef*%
%ADD17RoundRect,0.150000X-0.825000X-0.150000X0.825000X-0.150000X0.825000X0.150000X-0.825000X0.150000X0*%
%TD*%
%TA.AperFunction,ComponentPad*%
%ADD18R,1.600000X2.400000*%
%TD*%
%TA.AperFunction,ComponentPad*%
%ADD19O,1.600000X2.400000*%
%TD*%
%TA.AperFunction,ComponentPad*%
%ADD20C,3.000000*%
%TD*%
%TA.AperFunction,SMDPad,CuDef*%
%ADD21R,2.900000X5.400000*%
%TD*%
%TA.AperFunction,SMDPad,CuDef*%
%ADD22R,0.800000X0.900000*%
%TD*%
%TA.AperFunction,SMDPad,CuDef*%
%ADD23R,0.900000X0.800000*%
%TD*%
%TA.AperFunction,SMDPad,CuDef*%
%ADD24RoundRect,0.249600X1.712900X0.550400X-1.712900X0.550400X-1.712900X-0.550400X1.712900X-0.550400X0*%
%TD*%
%TA.AperFunction,SMDPad,CuDef*%
%ADD25RoundRect,0.249600X0.550400X-1.712900X0.550400X1.712900X-0.550400X1.712900X-0.550400X-1.712900X0*%
%TD*%
%TA.AperFunction,SMDPad,CuDef*%
%ADD26R,2.300000X3.500000*%
%TD*%
%TA.AperFunction,SMDPad,CuDef*%
%ADD27RoundRect,0.249999X0.450001X-0.325001X0.450001X0.325001X-0.450001X0.325001X-0.450001X-0.325001X0*%
%TD*%
%TA.AperFunction,SMDPad,CuDef*%
%ADD28RoundRect,0.249999X0.325001X0.450001X-0.325001X0.450001X-0.325001X-0.450001X0.325001X-0.450001X0*%
%TD*%
%TA.AperFunction,ComponentPad*%
%ADD29R,1.700000X1.700000*%
%TD*%
%TA.AperFunction,ComponentPad*%
%ADD30O,1.700000X1.700000*%
%TD*%
%TA.AperFunction,ComponentPad*%
%ADD31C,2.000000*%
%TD*%
%TA.AperFunction,SMDPad,CuDef*%
%ADD32RoundRect,0.250000X0.400000X0.625000X-0.400000X0.625000X-0.400000X-0.625000X0.400000X-0.625000X0*%
%TD*%
%TA.AperFunction,ComponentPad*%
%ADD33R,2.000000X2.000000*%
%TD*%
%TA.AperFunction,SMDPad,CuDef*%
%ADD34R,2.200000X3.000000*%
%TD*%
%TA.AperFunction,SMDPad,CuDef*%
%ADD35RoundRect,0.250000X-0.350000X-0.450000X0.350000X-0.450000X0.350000X0.450000X-0.350000X0.450000X0*%
%TD*%
%TA.AperFunction,ViaPad*%
%ADD36C,1.300000*%
%TD*%
%TA.AperFunction,ViaPad*%
%ADD37C,0.800000*%
%TD*%
%TA.AperFunction,ViaPad*%
%ADD38C,2.200000*%
%TD*%
%TA.AperFunction,ViaPad*%
%ADD39C,1.500000*%
%TD*%
%TA.AperFunction,Conductor*%
%ADD40C,1.000000*%
%TD*%
%TA.AperFunction,Conductor*%
%ADD41C,0.250000*%
%TD*%
%TA.AperFunction,Conductor*%
%ADD42C,2.000000*%
%TD*%
G04 APERTURE END LIST*
D10*
%TO.P,C2,1*%
%TO.N,+12V*%
X57315000Y-69600000D03*
%TO.P,C2,2*%
%TO.N,GND*%
X55315000Y-69600000D03*
%TD*%
D11*
%TO.P,C3,1*%
%TO.N,Net-(C3-Pad1)*%
X76315000Y-74600000D03*
%TO.P,C3,2*%
%TO.N,GND*%
X78315000Y-74600000D03*
%TD*%
D10*
%TO.P,C4,1*%
%TO.N,Net-(C4-Pad1)*%
X67315000Y-69600000D03*
%TO.P,C4,2*%
%TO.N,Net-(C4-Pad2)*%
X65315000Y-69600000D03*
%TD*%
D12*
%TO.P,C6,1*%
%TO.N,Net-(C5-Pad1)*%
X100315000Y-78600000D03*
%TO.P,C6,2*%
%TO.N,GND*%
X100315000Y-76600000D03*
%TD*%
D10*
%TO.P,C7,1*%
%TO.N,GND*%
X170400000Y-82300000D03*
%TO.P,C7,2*%
%TO.N,VCC*%
X168400000Y-82300000D03*
%TD*%
D11*
%TO.P,C8,1*%
%TO.N,/Logique/Vpp*%
X168000000Y-96300000D03*
%TO.P,C8,2*%
%TO.N,GND*%
X170000000Y-96300000D03*
%TD*%
D10*
%TO.P,C9,1*%
%TO.N,Net-(C9-Pad1)*%
X220600000Y-111300000D03*
%TO.P,C9,2*%
%TO.N,GND*%
X218600000Y-111300000D03*
%TD*%
D13*
%TO.P,D14,1,K*%
%TO.N,Net-(D14-Pad1)*%
X127500000Y-128100000D03*
%TO.P,D14,2,A*%
%TO.N,+12V*%
X132900000Y-128100000D03*
%TD*%
D14*
%TO.P,J1,1,Pin_1*%
%TO.N,GND*%
X70418400Y-43080800D03*
D15*
%TO.P,J1,2,Pin_2*%
%TO.N,Net-(D1-Pad1)*%
X65418400Y-43080800D03*
%TD*%
D14*
%TO.P,J3,1,Pin_1*%
%TO.N,GND*%
X200200000Y-42900000D03*
D15*
%TO.P,J3,2,Pin_2*%
%TO.N,VCC*%
X195200000Y-42900000D03*
%TO.P,J3,3,Pin_3*%
%TO.N,Net-(J3-Pad3)*%
X190200000Y-42900000D03*
%TO.P,J3,4,Pin_4*%
%TO.N,Net-(J3-Pad4)*%
X185200000Y-42900000D03*
%TD*%
D14*
%TO.P,J4,1,Pin_1*%
%TO.N,GND*%
X177200000Y-42900000D03*
D15*
%TO.P,J4,2,Pin_2*%
%TO.N,VCC*%
X172200000Y-42900000D03*
%TO.P,J4,3,Pin_3*%
%TO.N,Net-(J4-Pad3)*%
X167200000Y-42900000D03*
%TO.P,J4,4,Pin_4*%
%TO.N,Net-(J4-Pad4)*%
X162200000Y-42900000D03*
%TD*%
D14*
%TO.P,J5,1,Pin_1*%
%TO.N,Net-(J5-Pad1)*%
X60600000Y-159700000D03*
D15*
%TO.P,J5,2,Pin_2*%
%TO.N,Net-(J5-Pad2)*%
X65600000Y-159700000D03*
%TO.P,J5,3,Pin_3*%
%TO.N,Net-(J5-Pad3)*%
X70600000Y-159700000D03*
%TD*%
D14*
%TO.P,J6,1,Pin_1*%
%TO.N,Net-(J6-Pad1)*%
X82200000Y-159800000D03*
D15*
%TO.P,J6,2,Pin_2*%
%TO.N,Net-(J6-Pad2)*%
X87200000Y-159800000D03*
%TO.P,J6,3,Pin_3*%
%TO.N,Net-(J6-Pad3)*%
X92200000Y-159800000D03*
%TD*%
D14*
%TO.P,J7,1,Pin_1*%
%TO.N,Net-(J7-Pad1)*%
X103200000Y-159800000D03*
D15*
%TO.P,J7,2,Pin_2*%
%TO.N,Net-(J7-Pad2)*%
X108200000Y-159800000D03*
%TO.P,J7,3,Pin_3*%
%TO.N,Net-(J7-Pad3)*%
X113200000Y-159800000D03*
%TD*%
D14*
%TO.P,J8,1,Pin_1*%
%TO.N,Net-(J8-Pad1)*%
X124200000Y-159800000D03*
D15*
%TO.P,J8,2,Pin_2*%
%TO.N,Net-(J8-Pad2)*%
X129200000Y-159800000D03*
%TO.P,J8,3,Pin_3*%
%TO.N,Net-(J8-Pad3)*%
X134200000Y-159800000D03*
%TD*%
D14*
%TO.P,J9,1,Pin_1*%
%TO.N,Net-(J9-Pad1)*%
X144200000Y-159800000D03*
D15*
%TO.P,J9,2,Pin_2*%
%TO.N,Net-(J9-Pad2)*%
X149200000Y-159800000D03*
%TO.P,J9,3,Pin_3*%
%TO.N,Net-(J9-Pad3)*%
X154200000Y-159800000D03*
%TD*%
D14*
%TO.P,J10,1,Pin_1*%
%TO.N,Net-(J10-Pad1)*%
X166100000Y-159500000D03*
D15*
%TO.P,J10,2,Pin_2*%
%TO.N,Net-(J10-Pad2)*%
X171100000Y-159500000D03*
%TO.P,J10,3,Pin_3*%
%TO.N,Net-(J10-Pad3)*%
X176100000Y-159500000D03*
%TD*%
D14*
%TO.P,J11,1,Pin_1*%
%TO.N,Net-(J11-Pad1)*%
X186100000Y-159500000D03*
D15*
%TO.P,J11,2,Pin_2*%
%TO.N,Net-(J11-Pad2)*%
X191100000Y-159500000D03*
%TO.P,J11,3,Pin_3*%
%TO.N,Net-(J11-Pad3)*%
X196100000Y-159500000D03*
%TD*%
D14*
%TO.P,J12,1,Pin_1*%
%TO.N,Net-(J12-Pad1)*%
X205900000Y-159400000D03*
D15*
%TO.P,J12,2,Pin_2*%
%TO.N,Net-(J12-Pad2)*%
X210900000Y-159400000D03*
%TO.P,J12,3,Pin_3*%
%TO.N,Net-(J12-Pad3)*%
X215900000Y-159400000D03*
%TD*%
D14*
%TO.P,J13,1,Pin_1*%
%TO.N,GND*%
X235300000Y-154400000D03*
D15*
%TO.P,J13,2,Pin_2*%
%TO.N,Net-(D23-Pad1)*%
X235300000Y-149400000D03*
%TD*%
D14*
%TO.P,J14,1,Pin_1*%
%TO.N,GND*%
X235300000Y-141400000D03*
D15*
%TO.P,J14,2,Pin_2*%
%TO.N,Net-(D24-Pad1)*%
X235300000Y-136400000D03*
%TD*%
D14*
%TO.P,J15,1,Pin_1*%
%TO.N,GND*%
X235300000Y-128400000D03*
D15*
%TO.P,J15,2,Pin_2*%
%TO.N,Net-(D25-Pad1)*%
X235300000Y-123400000D03*
%TD*%
D14*
%TO.P,J16,1,Pin_1*%
%TO.N,GND*%
X235300000Y-115400000D03*
D15*
%TO.P,J16,2,Pin_2*%
%TO.N,Net-(D26-Pad1)*%
X235300000Y-110400000D03*
%TD*%
D14*
%TO.P,J17,1,Pin_1*%
%TO.N,GND*%
X235300000Y-102400000D03*
D15*
%TO.P,J17,2,Pin_2*%
%TO.N,Net-(D31-Pad1)*%
X235300000Y-97400000D03*
%TD*%
D14*
%TO.P,J18,1,Pin_1*%
%TO.N,GND*%
X235300000Y-89400000D03*
D15*
%TO.P,J18,2,Pin_2*%
%TO.N,Net-(D32-Pad1)*%
X235300000Y-84400000D03*
%TD*%
D14*
%TO.P,J19,1,Pin_1*%
%TO.N,GND*%
X235300000Y-76400000D03*
D15*
%TO.P,J19,2,Pin_2*%
%TO.N,Net-(D33-Pad1)*%
X235300000Y-71400000D03*
%TD*%
D14*
%TO.P,J20,1,Pin_1*%
%TO.N,GND*%
X235300000Y-63400000D03*
D15*
%TO.P,J20,2,Pin_2*%
%TO.N,Net-(D34-Pad1)*%
X235300000Y-58400000D03*
%TD*%
D14*
%TO.P,J21,1,Pin_1*%
%TO.N,GND*%
X111190000Y-42950000D03*
D15*
%TO.P,J21,2,Pin_2*%
%TO.N,Net-(D39-Pad1)*%
X106190000Y-42950000D03*
%TD*%
D14*
%TO.P,J22,1,Pin_1*%
%TO.N,GND*%
X125190000Y-42950000D03*
D15*
%TO.P,J22,2,Pin_2*%
%TO.N,Net-(D40-Pad1)*%
X120190000Y-42950000D03*
%TD*%
D14*
%TO.P,J23,1,Pin_1*%
%TO.N,GND*%
X138690000Y-42950000D03*
D15*
%TO.P,J23,2,Pin_2*%
%TO.N,Net-(D41-Pad1)*%
X133690000Y-42950000D03*
%TD*%
D14*
%TO.P,J24,1,Pin_1*%
%TO.N,GND*%
X153690000Y-42950000D03*
D15*
%TO.P,J24,2,Pin_2*%
%TO.N,Net-(D42-Pad1)*%
X148690000Y-42950000D03*
%TD*%
D14*
%TO.P,J25,1,Pin_1*%
%TO.N,Net-(J25-Pad1)*%
X97418400Y-43080800D03*
D15*
%TO.P,J25,2,Pin_2*%
%TO.N,Net-(J25-Pad2)*%
X92418400Y-43080800D03*
%TO.P,J25,3,Pin_3*%
%TO.N,Net-(J25-Pad3)*%
X87418400Y-43080800D03*
%TO.P,J25,4,Pin_4*%
%TO.N,Net-(J25-Pad4)*%
X82418400Y-43080800D03*
%TO.P,J25,5,Pin_5*%
%TO.N,Net-(D13-Pad2)*%
X77418400Y-43080800D03*
%TD*%
D11*
%TO.P,R1,1*%
%TO.N,+12V*%
X58540001Y-74600000D03*
%TO.P,R1,2*%
%TO.N,Net-(R1-Pad2)*%
X60540001Y-74600000D03*
%TD*%
D10*
%TO.P,R2,1*%
%TO.N,Net-(R1-Pad2)*%
X54815000Y-74600000D03*
%TO.P,R2,2*%
%TO.N,GND*%
X52815000Y-74600000D03*
%TD*%
D12*
%TO.P,R3,1*%
%TO.N,Net-(C5-Pad1)*%
X77315000Y-81600000D03*
%TO.P,R3,2*%
%TO.N,Net-(R3-Pad2)*%
X77315000Y-79600000D03*
%TD*%
%TO.P,R4,1*%
%TO.N,Net-(R3-Pad2)*%
X82315000Y-79600000D03*
%TO.P,R4,2*%
%TO.N,GND*%
X82315000Y-77600000D03*
%TD*%
D16*
%TO.P,R5,1*%
%TO.N,Net-(D5-Pad1)*%
X86315000Y-70600000D03*
%TO.P,R5,2*%
%TO.N,GND*%
X86315000Y-72600000D03*
%TD*%
%TO.P,R6,1*%
%TO.N,VCC*%
X162000000Y-88300000D03*
%TO.P,R6,2*%
%TO.N,/Logique/Vpp*%
X162000000Y-90300000D03*
%TD*%
D11*
%TO.P,R7,1*%
%TO.N,Net-(D6-Pad1)*%
X57600000Y-127700000D03*
%TO.P,R7,2*%
%TO.N,Net-(D7-Pad1)*%
X59600000Y-127700000D03*
%TD*%
%TO.P,R9,1*%
%TO.N,GND*%
X72850000Y-108300000D03*
%TO.P,R9,2*%
%TO.N,Net-(Q1-Pad2)*%
X74850000Y-108300000D03*
%TD*%
%TO.P,R10,1*%
%TO.N,Net-(D8-Pad1)*%
X78200000Y-127800000D03*
%TO.P,R10,2*%
%TO.N,Net-(D9-Pad1)*%
X80200000Y-127800000D03*
%TD*%
%TO.P,R11,1*%
%TO.N,Net-(Q2-Pad2)*%
X97800000Y-100000000D03*
%TO.P,R11,2*%
%TO.N,Rel2*%
X99800000Y-100000000D03*
%TD*%
%TO.P,R12,1*%
%TO.N,GND*%
X95800000Y-104500000D03*
%TO.P,R12,2*%
%TO.N,Net-(Q2-Pad2)*%
X97800000Y-104500000D03*
%TD*%
%TO.P,R13,1*%
%TO.N,Net-(D10-Pad1)*%
X100200000Y-127800000D03*
%TO.P,R13,2*%
%TO.N,Net-(D11-Pad1)*%
X102200000Y-127800000D03*
%TD*%
%TO.P,R14,1*%
%TO.N,Net-(Q3-Pad2)*%
X105000000Y-104500000D03*
%TO.P,R14,2*%
%TO.N,Rel3*%
X107000000Y-104500000D03*
%TD*%
%TO.P,R15,1*%
%TO.N,GND*%
X103000000Y-109000000D03*
%TO.P,R15,2*%
%TO.N,Net-(Q3-Pad2)*%
X105000000Y-109000000D03*
%TD*%
D16*
%TO.P,R16,1*%
%TO.N,Net-(D12-Pad1)*%
X122200000Y-126800000D03*
%TO.P,R16,2*%
%TO.N,Net-(D14-Pad1)*%
X122200000Y-128800000D03*
%TD*%
D11*
%TO.P,R17,1*%
%TO.N,Net-(Q4-Pad2)*%
X117900000Y-103275000D03*
%TO.P,R17,2*%
%TO.N,Rel4*%
X119900000Y-103275000D03*
%TD*%
%TO.P,R18,1*%
%TO.N,GND*%
X115900000Y-107275000D03*
%TO.P,R18,2*%
%TO.N,Net-(Q4-Pad2)*%
X117900000Y-107275000D03*
%TD*%
D16*
%TO.P,R19,1*%
%TO.N,Net-(D15-Pad1)*%
X140208000Y-127524000D03*
%TO.P,R19,2*%
%TO.N,Net-(D16-Pad1)*%
X140208000Y-129524000D03*
%TD*%
D11*
%TO.P,R20,1*%
%TO.N,Net-(Q5-Pad2)*%
X128400000Y-103800000D03*
%TO.P,R20,2*%
%TO.N,Rel5*%
X130400000Y-103800000D03*
%TD*%
%TO.P,R21,1*%
%TO.N,GND*%
X126400000Y-109300000D03*
%TO.P,R21,2*%
%TO.N,Net-(Q5-Pad2)*%
X128400000Y-109300000D03*
%TD*%
D16*
%TO.P,R22,1*%
%TO.N,Net-(D17-Pad1)*%
X163576000Y-127000000D03*
%TO.P,R22,2*%
%TO.N,Net-(D18-Pad1)*%
X163576000Y-129000000D03*
%TD*%
D10*
%TO.P,R23,1*%
%TO.N,Net-(Q6-Pad2)*%
X140800000Y-104500000D03*
%TO.P,R23,2*%
%TO.N,Rel6*%
X138800000Y-104500000D03*
%TD*%
D11*
%TO.P,R24,1*%
%TO.N,GND*%
X139000000Y-108200000D03*
%TO.P,R24,2*%
%TO.N,Net-(Q6-Pad2)*%
X141000000Y-108200000D03*
%TD*%
D16*
%TO.P,R25,1*%
%TO.N,Net-(D19-Pad1)*%
X181356000Y-126508000D03*
%TO.P,R25,2*%
%TO.N,Net-(D20-Pad1)*%
X181356000Y-128508000D03*
%TD*%
D10*
%TO.P,R26,1*%
%TO.N,Net-(Q7-Pad2)*%
X151400000Y-104400000D03*
%TO.P,R26,2*%
%TO.N,Rel7*%
X149400000Y-104400000D03*
%TD*%
D11*
%TO.P,R27,1*%
%TO.N,GND*%
X149700000Y-108250000D03*
%TO.P,R27,2*%
%TO.N,Net-(Q7-Pad2)*%
X151700000Y-108250000D03*
%TD*%
D10*
%TO.P,R28,1*%
%TO.N,Net-(D21-Pad1)*%
X201400000Y-127000000D03*
%TO.P,R28,2*%
%TO.N,Net-(D22-Pad1)*%
X199400000Y-127000000D03*
%TD*%
D11*
%TO.P,R29,1*%
%TO.N,Net-(Q8-Pad2)*%
X162000000Y-99000000D03*
%TO.P,R29,2*%
%TO.N,Rel8*%
X164000000Y-99000000D03*
%TD*%
%TO.P,R30,1*%
%TO.N,GND*%
X160500000Y-103000000D03*
%TO.P,R30,2*%
%TO.N,Net-(Q8-Pad2)*%
X162500000Y-103000000D03*
%TD*%
%TO.P,R31,1*%
%TO.N,Net-(C9-Pad1)*%
X218800000Y-115400000D03*
%TO.P,R31,2*%
%TO.N,Net-(D27-Pad1)*%
X220800000Y-115400000D03*
%TD*%
D16*
%TO.P,R32,1*%
%TO.N,Net-(C10-Pad1)*%
X205700000Y-115300000D03*
%TO.P,R32,2*%
%TO.N,Net-(D28-Pad1)*%
X205700000Y-117300000D03*
%TD*%
D10*
%TO.P,R34,1*%
%TO.N,Net-(C9-Pad1)*%
X200500000Y-109250000D03*
%TO.P,R34,2*%
%TO.N,VCC*%
X198500000Y-109250000D03*
%TD*%
D16*
%TO.P,R35,1*%
%TO.N,Net-(C12-Pad1)*%
X213500000Y-95200000D03*
%TO.P,R35,2*%
%TO.N,Net-(D30-Pad1)*%
X213500000Y-97200000D03*
%TD*%
D11*
%TO.P,R36,1*%
%TO.N,Net-(C10-Pad1)*%
X218400000Y-120800000D03*
%TO.P,R36,2*%
%TO.N,VCC*%
X220400000Y-120800000D03*
%TD*%
D10*
%TO.P,R37,1*%
%TO.N,Net-(C11-Pad1)*%
X211800000Y-115800000D03*
%TO.P,R37,2*%
%TO.N,VCC*%
X209800000Y-115800000D03*
%TD*%
D11*
%TO.P,R40,1*%
%TO.N,IN3*%
X199700000Y-116200000D03*
%TO.P,R40,2*%
%TO.N,Net-(C10-Pad1)*%
X201700000Y-116200000D03*
%TD*%
D16*
%TO.P,R45,1*%
%TO.N,Net-(C15-Pad1)*%
X213100000Y-85500000D03*
%TO.P,R45,2*%
%TO.N,Net-(D37-Pad1)*%
X213100000Y-87500000D03*
%TD*%
D12*
%TO.P,R59,1*%
%TO.N,AN3*%
X120600000Y-73400000D03*
%TO.P,R59,2*%
%TO.N,Net-(D41-Pad1)*%
X120600000Y-71400000D03*
%TD*%
D16*
%TO.P,R68,1*%
%TO.N,Net-(Q12-Pad2)*%
X76900000Y-56950000D03*
%TO.P,R68,2*%
%TO.N,GND*%
X76900000Y-58950000D03*
%TD*%
D11*
%TO.P,R70,1*%
%TO.N,Net-(Q12-Pad2)*%
X129600000Y-99000000D03*
%TO.P,R70,2*%
%TO.N,C4*%
X131600000Y-99000000D03*
%TD*%
D17*
%TO.P,U1,1,BOOST*%
%TO.N,Net-(C4-Pad1)*%
X67840000Y-74695000D03*
%TO.P,U1,2,VIN*%
%TO.N,+12V*%
X67840000Y-75965000D03*
%TO.P,U1,3,VSW*%
%TO.N,Net-(C4-Pad2)*%
X67840000Y-77235000D03*
%TO.P,U1,4,BIAS*%
%TO.N,Net-(C5-Pad1)*%
X67840000Y-78505000D03*
%TO.P,U1,5,\u002ASHDN*%
%TO.N,Net-(R1-Pad2)*%
X72790000Y-78505000D03*
%TO.P,U1,6,GND*%
%TO.N,GND*%
X72790000Y-77235000D03*
%TO.P,U1,7,FB/SENSE*%
%TO.N,Net-(R3-Pad2)*%
X72790000Y-75965000D03*
%TO.P,U1,8,VC*%
%TO.N,Net-(C3-Pad1)*%
X72790000Y-74695000D03*
%TD*%
D18*
%TO.P,U2,1,RE3/MCLR/Vpp*%
%TO.N,/Logique/Vpp*%
X105175000Y-93000000D03*
D19*
%TO.P,U2,2,RA0/AN0/C12IN0-/C2OUT/SRNQ/SS/VCAP/SEG12*%
%TO.N,Rel1*%
X107715000Y-93000000D03*
%TO.P,U2,3,RA1/AN1/C12IN1-/SEG7*%
%TO.N,Rel2*%
X110255000Y-93000000D03*
%TO.P,U2,4,RA2/AN2/C2IN+/Vref-/DACOUT/COM2*%
%TO.N,Rel3*%
X112795000Y-93000000D03*
%TO.P,U2,5,RA3/AN3/C1IN+/Vref+/SEG15*%
%TO.N,Rel4*%
X115335000Y-93000000D03*
%TO.P,U2,6,RA4/C1OUT/CPS6/T0CKI/SRQ/SEG4*%
%TO.N,Rel5*%
X117875000Y-93000000D03*
%TO.P,U2,7,RA5/AN4/C2OUT/CPS7/SRNQ/SS/VCAP/SEG5*%
%TO.N,Rel6*%
X120415000Y-93000000D03*
%TO.P,U2,8,SEG21/P3A/CCP3/AN5/RE0*%
%TO.N,C4*%
X122955000Y-93000000D03*
%TO.P,U2,9,SEG22/P3B/AN6/RE1*%
%TO.N,C3*%
X125495000Y-93000000D03*
%TO.P,U2,10,SEG23/CCP5/AN7/RE2*%
%TO.N,C2*%
X128035000Y-93000000D03*
%TO.P,U2,11,VDD*%
%TO.N,VCC*%
X130575000Y-93000000D03*
%TO.P,U2,12,VSS*%
%TO.N,GND*%
X133115000Y-93000000D03*
%TO.P,U2,13,RA7/OSC1/CLKIN/SEG2*%
%TO.N,Rel8*%
X135655000Y-93000000D03*
%TO.P,U2,14,RA6/OSC2/CLKOUT/VCAP/SEG1*%
%TO.N,Rel7*%
X138195000Y-93000000D03*
%TO.P,U2,15,P2B/T1CKI/T1OSO/RC0*%
%TO.N,GPIO1*%
X140735000Y-93000000D03*
%TO.P,U2,16,P2A/CCP2/T1OSI/RC1*%
%TO.N,GPIO2*%
X143275000Y-93000000D03*
%TO.P,U2,17,SEG3/P1A/CCP1/RC2*%
%TO.N,GPIO3*%
X145815000Y-93000000D03*
%TO.P,U2,18,SEG6/SCLK/SCL/RC3*%
%TO.N,Net-(J3-Pad4)*%
X148355000Y-93000000D03*
%TO.P,U2,19,COM3/CPS8/RD0*%
%TO.N,IN1*%
X150895000Y-93000000D03*
%TO.P,U2,20,CCP4/CPS9/RD1*%
%TO.N,IN2*%
X153435000Y-93000000D03*
%TO.P,U2,21,P2B/CPS10/RD2*%
%TO.N,IN3*%
X153435000Y-77760000D03*
%TO.P,U2,22,SEG16/P2C/CPS11/RD3*%
%TO.N,IN4*%
X150895000Y-77760000D03*
%TO.P,U2,23,SEG11/T1G/SDA/SDI/RC4*%
%TO.N,Net-(J3-Pad3)*%
X148355000Y-77760000D03*
%TO.P,U2,24,SEG10/SDO/RC5*%
%TO.N,GPIO4*%
X145815000Y-77760000D03*
%TO.P,U2,25,SEG9/CK/TX/RC6*%
%TO.N,Net-(J4-Pad3)*%
X143275000Y-77760000D03*
%TO.P,U2,26,SEG8/DT/RX/RC7*%
%TO.N,Net-(J4-Pad4)*%
X140735000Y-77760000D03*
%TO.P,U2,27,SEG17/P2D/CPS12/RD4*%
%TO.N,IN5*%
X138195000Y-77760000D03*
%TO.P,U2,28,SEG18/P1B/CPS13/RD5*%
%TO.N,IN6*%
X135655000Y-77760000D03*
%TO.P,U2,29,SEG19/P1C/CPS14/RD6*%
%TO.N,IN7*%
X133115000Y-77760000D03*
%TO.P,U2,30,SEG20/P1D/CPS15/RD7*%
%TO.N,IN8*%
X130575000Y-77760000D03*
%TO.P,U2,31,VSS*%
%TO.N,GND*%
X128035000Y-77760000D03*
%TO.P,U2,32,VDD*%
%TO.N,VCC*%
X125495000Y-77760000D03*
%TO.P,U2,33,RB0/AN12/CPS0/SRI/INT/SEG0*%
%TO.N,AN1*%
X122955000Y-77760000D03*
%TO.P,U2,34,RB1/AN10/C12IN3-/CPS1/VLCD1*%
%TO.N,AN2*%
X120415000Y-77760000D03*
%TO.P,U2,35,RB2/AN8/CPS2/VLCD2*%
%TO.N,AN3*%
X117875000Y-77760000D03*
%TO.P,U2,36,RB3/AN9/C12IN2-/CPS3/CCP2/P2A/VLCD3*%
%TO.N,AN4*%
X115335000Y-77760000D03*
%TO.P,U2,37,RB4/AN11/CPS4/COM0*%
%TO.N,Net-(R74-Pad2)*%
X112795000Y-77760000D03*
%TO.P,U2,38,RB5/AN13/CPS5/CCP3/P3A/T1G/COM1*%
%TO.N,C1*%
X110255000Y-77760000D03*
%TO.P,U2,39,RB6/ICSPCLK/ICDCLK/SEG14*%
%TO.N,Net-(J2-Pad5)*%
X107715000Y-77760000D03*
%TO.P,U2,40,RB7/ICSPDAT/ICDDAT/SEG13*%
%TO.N,Net-(J2-Pad4)*%
X105175000Y-77760000D03*
%TD*%
D20*
%TO.P,K1,11*%
%TO.N,Net-(J5-Pad2)*%
X65600000Y-133800000D03*
%TO.P,K1,12*%
%TO.N,Net-(J5-Pad3)*%
X71600000Y-148000000D03*
%TO.P,K1,14*%
%TO.N,Net-(J5-Pad1)*%
X59600000Y-148000000D03*
%TO.P,K1,A1*%
%TO.N,+12V*%
X71600000Y-135800000D03*
%TO.P,K1,A2*%
%TO.N,Net-(D7-Pad1)*%
X59600000Y-135800000D03*
%TD*%
%TO.P,K2,11*%
%TO.N,Net-(J6-Pad2)*%
X86200000Y-133800000D03*
%TO.P,K2,12*%
%TO.N,Net-(J6-Pad3)*%
X92200000Y-148000000D03*
%TO.P,K2,14*%
%TO.N,Net-(J6-Pad1)*%
X80200000Y-148000000D03*
%TO.P,K2,A1*%
%TO.N,+12V*%
X92200000Y-135800000D03*
%TO.P,K2,A2*%
%TO.N,Net-(D9-Pad1)*%
X80200000Y-135800000D03*
%TD*%
%TO.P,K3,11*%
%TO.N,Net-(J7-Pad2)*%
X108200000Y-133800000D03*
%TO.P,K3,12*%
%TO.N,Net-(J7-Pad3)*%
X114200000Y-148000000D03*
%TO.P,K3,14*%
%TO.N,Net-(J7-Pad1)*%
X102200000Y-148000000D03*
%TO.P,K3,A1*%
%TO.N,+12V*%
X114200000Y-135800000D03*
%TO.P,K3,A2*%
%TO.N,Net-(D11-Pad1)*%
X102200000Y-135800000D03*
%TD*%
%TO.P,K4,11*%
%TO.N,Net-(J8-Pad2)*%
X128200000Y-133800000D03*
%TO.P,K4,12*%
%TO.N,Net-(J8-Pad3)*%
X134200000Y-148000000D03*
%TO.P,K4,14*%
%TO.N,Net-(J8-Pad1)*%
X122200000Y-148000000D03*
%TO.P,K4,A1*%
%TO.N,+12V*%
X134200000Y-135800000D03*
%TO.P,K4,A2*%
%TO.N,Net-(D14-Pad1)*%
X122200000Y-135800000D03*
%TD*%
%TO.P,K5,11*%
%TO.N,Net-(J9-Pad2)*%
X149200000Y-133800000D03*
%TO.P,K5,12*%
%TO.N,Net-(J9-Pad3)*%
X155200000Y-148000000D03*
%TO.P,K5,14*%
%TO.N,Net-(J9-Pad1)*%
X143200000Y-148000000D03*
%TO.P,K5,A1*%
%TO.N,+12V*%
X155200000Y-135800000D03*
%TO.P,K5,A2*%
%TO.N,Net-(D16-Pad1)*%
X143200000Y-135800000D03*
%TD*%
%TO.P,K6,11*%
%TO.N,Net-(J10-Pad2)*%
X171100000Y-133500000D03*
%TO.P,K6,12*%
%TO.N,Net-(J10-Pad3)*%
X177100000Y-147700000D03*
%TO.P,K6,14*%
%TO.N,Net-(J10-Pad1)*%
X165100000Y-147700000D03*
%TO.P,K6,A1*%
%TO.N,+12V*%
X177100000Y-135500000D03*
%TO.P,K6,A2*%
%TO.N,Net-(D18-Pad1)*%
X165100000Y-135500000D03*
%TD*%
%TO.P,K7,11*%
%TO.N,Net-(J11-Pad2)*%
X191100000Y-133500000D03*
%TO.P,K7,12*%
%TO.N,Net-(J11-Pad3)*%
X197100000Y-147700000D03*
%TO.P,K7,14*%
%TO.N,Net-(J11-Pad1)*%
X185100000Y-147700000D03*
%TO.P,K7,A1*%
%TO.N,+12V*%
X197100000Y-135500000D03*
%TO.P,K7,A2*%
%TO.N,Net-(D20-Pad1)*%
X185100000Y-135500000D03*
%TD*%
%TO.P,K8,11*%
%TO.N,Net-(J12-Pad2)*%
X210900000Y-133400000D03*
%TO.P,K8,12*%
%TO.N,Net-(J12-Pad3)*%
X216900000Y-147600000D03*
%TO.P,K8,14*%
%TO.N,Net-(J12-Pad1)*%
X204900000Y-147600000D03*
%TO.P,K8,A1*%
%TO.N,+12V*%
X216900000Y-135400000D03*
%TO.P,K8,A2*%
%TO.N,Net-(D22-Pad1)*%
X204900000Y-135400000D03*
%TD*%
D21*
%TO.P,L1,1,1*%
%TO.N,Net-(C4-Pad2)*%
X70234000Y-92964000D03*
%TO.P,L1,2,2*%
%TO.N,Net-(C5-Pad1)*%
X80134000Y-92964000D03*
%TD*%
D22*
%TO.P,Q1,1,E*%
%TO.N,GND*%
X72950000Y-111400000D03*
%TO.P,Q1,2,B*%
%TO.N,Net-(Q1-Pad2)*%
X74850000Y-111400000D03*
%TO.P,Q1,3,C*%
%TO.N,Net-(D7-Pad1)*%
X73900000Y-113400000D03*
%TD*%
%TO.P,Q2,1,E*%
%TO.N,GND*%
X95750000Y-108800000D03*
%TO.P,Q2,2,B*%
%TO.N,Net-(Q2-Pad2)*%
X97650000Y-108800000D03*
%TO.P,Q2,3,C*%
%TO.N,Net-(D9-Pad1)*%
X96700000Y-110800000D03*
%TD*%
%TO.P,Q3,1,E*%
%TO.N,GND*%
X103050000Y-112500000D03*
%TO.P,Q3,2,B*%
%TO.N,Net-(Q3-Pad2)*%
X104950000Y-112500000D03*
%TO.P,Q3,3,C*%
%TO.N,Net-(D11-Pad1)*%
X104000000Y-114500000D03*
%TD*%
%TO.P,Q4,1,E*%
%TO.N,GND*%
X115950000Y-111275000D03*
%TO.P,Q4,2,B*%
%TO.N,Net-(Q4-Pad2)*%
X117850000Y-111275000D03*
%TO.P,Q4,3,C*%
%TO.N,Net-(D14-Pad1)*%
X116900000Y-113275000D03*
%TD*%
%TO.P,Q5,1,E*%
%TO.N,GND*%
X126450000Y-112300000D03*
%TO.P,Q5,2,B*%
%TO.N,Net-(Q5-Pad2)*%
X128350000Y-112300000D03*
%TO.P,Q5,3,C*%
%TO.N,Net-(D16-Pad1)*%
X127400000Y-114300000D03*
%TD*%
%TO.P,Q6,1,E*%
%TO.N,GND*%
X139050000Y-111700000D03*
%TO.P,Q6,2,B*%
%TO.N,Net-(Q6-Pad2)*%
X140950000Y-111700000D03*
%TO.P,Q6,3,C*%
%TO.N,Net-(D18-Pad1)*%
X140000000Y-113700000D03*
%TD*%
%TO.P,Q7,1,E*%
%TO.N,GND*%
X149750000Y-111750000D03*
%TO.P,Q7,2,B*%
%TO.N,Net-(Q7-Pad2)*%
X151650000Y-111750000D03*
%TO.P,Q7,3,C*%
%TO.N,Net-(D20-Pad1)*%
X150700000Y-113750000D03*
%TD*%
%TO.P,Q8,1,E*%
%TO.N,GND*%
X160550000Y-106200000D03*
%TO.P,Q8,2,B*%
%TO.N,Net-(Q8-Pad2)*%
X162450000Y-106200000D03*
%TO.P,Q8,3,C*%
%TO.N,Net-(D22-Pad1)*%
X161500000Y-108200000D03*
%TD*%
D23*
%TO.P,Q12,1,E*%
%TO.N,GND*%
X81300000Y-58900000D03*
%TO.P,Q12,2,B*%
%TO.N,Net-(Q12-Pad2)*%
X81300000Y-57000000D03*
%TO.P,Q12,3,C*%
%TO.N,Net-(J25-Pad2)*%
X83300000Y-57950000D03*
%TD*%
D24*
%TO.P,C1,1*%
%TO.N,+12V*%
X59515000Y-62100000D03*
%TO.P,C1,2*%
%TO.N,GND*%
X53115000Y-62100000D03*
%TD*%
D25*
%TO.P,C5,1*%
%TO.N,Net-(C5-Pad1)*%
X91315000Y-83800000D03*
%TO.P,C5,2*%
%TO.N,GND*%
X91315000Y-77400000D03*
%TD*%
D13*
%TO.P,D3,1,K*%
%TO.N,GND*%
X53115000Y-82600000D03*
%TO.P,D3,2,A*%
%TO.N,Net-(C4-Pad2)*%
X58515000Y-82600000D03*
%TD*%
%TO.P,D4,1,K*%
%TO.N,Net-(C5-Pad1)*%
X79215000Y-68100000D03*
%TO.P,D4,2,A*%
%TO.N,Net-(C4-Pad1)*%
X73815000Y-68100000D03*
%TD*%
%TO.P,D7,1,K*%
%TO.N,Net-(D7-Pad1)*%
X63900000Y-128700000D03*
%TO.P,D7,2,A*%
%TO.N,+12V*%
X69300000Y-128700000D03*
%TD*%
%TO.P,D9,1,K*%
%TO.N,Net-(D9-Pad1)*%
X84200000Y-127800000D03*
%TO.P,D9,2,A*%
%TO.N,+12V*%
X89600000Y-127800000D03*
%TD*%
%TO.P,D11,1,K*%
%TO.N,Net-(D11-Pad1)*%
X106500000Y-127800000D03*
%TO.P,D11,2,A*%
%TO.N,+12V*%
X111900000Y-127800000D03*
%TD*%
%TO.P,D16,1,K*%
%TO.N,Net-(D16-Pad1)*%
X147400000Y-127200000D03*
%TO.P,D16,2,A*%
%TO.N,+12V*%
X152800000Y-127200000D03*
%TD*%
%TO.P,D18,1,K*%
%TO.N,Net-(D18-Pad1)*%
X169000000Y-127500000D03*
%TO.P,D18,2,A*%
%TO.N,+12V*%
X174400000Y-127500000D03*
%TD*%
%TO.P,D20,1,K*%
%TO.N,Net-(D20-Pad1)*%
X187400000Y-127500000D03*
%TO.P,D20,2,A*%
%TO.N,+12V*%
X192800000Y-127500000D03*
%TD*%
%TO.P,D22,1,K*%
%TO.N,Net-(D22-Pad1)*%
X208600000Y-127100000D03*
%TO.P,D22,2,A*%
%TO.N,+12V*%
X214000000Y-127100000D03*
%TD*%
D26*
%TO.P,D27,1,K*%
%TO.N,Net-(D27-Pad1)*%
X223800000Y-134700000D03*
%TO.P,D27,2,A*%
%TO.N,Net-(D23-Pad1)*%
X223800000Y-140100000D03*
%TD*%
D27*
%TO.P,D5,1,K*%
%TO.N,Net-(D5-Pad1)*%
X86315000Y-65625000D03*
%TO.P,D5,2,A*%
%TO.N,VCC*%
X86315000Y-63575000D03*
%TD*%
%TO.P,D6,1,K*%
%TO.N,Net-(D6-Pad1)*%
X59100000Y-122850000D03*
%TO.P,D6,2,A*%
%TO.N,+12V*%
X59100000Y-120800000D03*
%TD*%
%TO.P,D8,1,K*%
%TO.N,Net-(D8-Pad1)*%
X78200000Y-123725000D03*
%TO.P,D8,2,A*%
%TO.N,+12V*%
X78200000Y-121675000D03*
%TD*%
%TO.P,D10,1,K*%
%TO.N,Net-(D10-Pad1)*%
X100600000Y-123325000D03*
%TO.P,D10,2,A*%
%TO.N,+12V*%
X100600000Y-121275000D03*
%TD*%
%TO.P,D12,1,K*%
%TO.N,Net-(D12-Pad1)*%
X121000000Y-123225000D03*
%TO.P,D12,2,A*%
%TO.N,+12V*%
X121000000Y-121175000D03*
%TD*%
%TO.P,D15,1,K*%
%TO.N,Net-(D15-Pad1)*%
X141300000Y-123425000D03*
%TO.P,D15,2,A*%
%TO.N,+12V*%
X141300000Y-121375000D03*
%TD*%
%TO.P,D17,1,K*%
%TO.N,Net-(D17-Pad1)*%
X165200000Y-123325000D03*
%TO.P,D17,2,A*%
%TO.N,+12V*%
X165200000Y-121275000D03*
%TD*%
%TO.P,D19,1,K*%
%TO.N,Net-(D19-Pad1)*%
X184000000Y-122425000D03*
%TO.P,D19,2,A*%
%TO.N,+12V*%
X184000000Y-120375000D03*
%TD*%
%TO.P,D21,1,K*%
%TO.N,Net-(D21-Pad1)*%
X204300000Y-122825000D03*
%TO.P,D21,2,A*%
%TO.N,+12V*%
X204300000Y-120775000D03*
%TD*%
D16*
%TO.P,C17,1*%
%TO.N,Net-(C17-Pad1)*%
X194079000Y-107986400D03*
%TO.P,C17,2*%
%TO.N,GND*%
X194079000Y-109986400D03*
%TD*%
D12*
%TO.P,C18,1*%
%TO.N,Net-(C18-Pad1)*%
X180997800Y-94769000D03*
%TO.P,C18,2*%
%TO.N,GND*%
X180997800Y-92769000D03*
%TD*%
D16*
%TO.P,C19,1*%
%TO.N,Net-(C19-Pad1)*%
X195591200Y-82124100D03*
%TO.P,C19,2*%
%TO.N,GND*%
X195591200Y-84124100D03*
%TD*%
%TO.P,C20,1*%
%TO.N,Net-(C20-Pad1)*%
X174500000Y-114500000D03*
%TO.P,C20,2*%
%TO.N,GND*%
X174500000Y-116500000D03*
%TD*%
D28*
%TO.P,D43,1,K*%
%TO.N,Net-(D43-Pad1)*%
X111973300Y-58969200D03*
%TO.P,D43,2,A*%
%TO.N,Net-(D43-Pad2)*%
X109923300Y-58969200D03*
%TD*%
D26*
%TO.P,D44,1,K*%
%TO.N,Net-(D44-Pad1)*%
X212100000Y-71600000D03*
%TO.P,D44,2,A*%
%TO.N,Net-(D44-Pad2)*%
X212100000Y-66200000D03*
%TD*%
%TO.P,D45,1,K*%
%TO.N,Net-(D45-Pad1)*%
X206100000Y-71700000D03*
%TO.P,D45,2,A*%
%TO.N,Net-(D45-Pad2)*%
X206100000Y-66300000D03*
%TD*%
%TO.P,D46,1,A1*%
%TO.N,Net-(D44-Pad2)*%
X209900000Y-53500000D03*
%TO.P,D46,2,A2*%
%TO.N,GND*%
X209900000Y-58900000D03*
%TD*%
%TO.P,D47,1,A1*%
%TO.N,Net-(D45-Pad2)*%
X203000000Y-53500000D03*
%TO.P,D47,2,A2*%
%TO.N,GND*%
X203000000Y-58900000D03*
%TD*%
%TO.P,D48,1,K*%
%TO.N,+12V*%
X195700000Y-58800000D03*
%TO.P,D48,2,A*%
%TO.N,Net-(D48-Pad2)*%
X195700000Y-53400000D03*
%TD*%
%TO.P,D49,1,A1*%
%TO.N,Net-(D49-Pad1)*%
X217100000Y-53300000D03*
%TO.P,D49,2,A2*%
%TO.N,GND*%
X217100000Y-58700000D03*
%TD*%
%TO.P,D50,1,A1*%
%TO.N,Net-(D50-Pad1)*%
X224100000Y-53600000D03*
%TO.P,D50,2,A2*%
%TO.N,GND*%
X224100000Y-59000000D03*
%TD*%
%TO.P,D51,1,K*%
%TO.N,Net-(D51-Pad1)*%
X218400000Y-71300000D03*
%TO.P,D51,2,A*%
%TO.N,Net-(D49-Pad1)*%
X218400000Y-65900000D03*
%TD*%
%TO.P,D52,1,K*%
%TO.N,Net-(D52-Pad1)*%
X224700000Y-71200000D03*
%TO.P,D52,2,A*%
%TO.N,Net-(D50-Pad1)*%
X224700000Y-65800000D03*
%TD*%
D14*
%TO.P,J26,1,Pin_1*%
%TO.N,Net-(D50-Pad1)*%
X229770000Y-42650000D03*
D15*
%TO.P,J26,2,Pin_2*%
%TO.N,Net-(D49-Pad1)*%
X224770000Y-42650000D03*
%TO.P,J26,3,Pin_3*%
%TO.N,Net-(D44-Pad2)*%
X219770000Y-42650000D03*
%TO.P,J26,4,Pin_4*%
%TO.N,Net-(D45-Pad2)*%
X214770000Y-42650000D03*
%TO.P,J26,5,Pin_5*%
%TO.N,Net-(D48-Pad2)*%
X209770000Y-42650000D03*
%TD*%
D29*
%TO.P,JP1,1,1*%
%TO.N,Net-(D43-Pad1)*%
X118825000Y-60200000D03*
D30*
%TO.P,JP1,2,2*%
%TO.N,Net-(BZ1-Pad2)*%
X121365000Y-60200000D03*
%TD*%
D29*
%TO.P,JP2,1,1*%
%TO.N,Net-(JP2-Pad1)*%
X186000000Y-109500000D03*
D30*
%TO.P,JP2,2,2*%
%TO.N,GPIO3*%
X183460000Y-109500000D03*
%TO.P,JP2,3,3*%
%TO.N,Net-(JP2-Pad3)*%
X180920000Y-109500000D03*
%TD*%
D29*
%TO.P,JP3,1,1*%
%TO.N,Net-(JP3-Pad1)*%
X186040000Y-80055000D03*
D30*
%TO.P,JP3,2,2*%
%TO.N,GPIO4*%
X183500000Y-80055000D03*
%TO.P,JP3,3,3*%
%TO.N,Net-(JP3-Pad3)*%
X180960000Y-80055000D03*
%TD*%
D29*
%TO.P,JP4,1,1*%
%TO.N,Net-(JP4-Pad1)*%
X185975000Y-103000000D03*
D30*
%TO.P,JP4,2,2*%
%TO.N,GPIO1*%
X183435000Y-103000000D03*
%TO.P,JP4,3,3*%
%TO.N,Net-(JP4-Pad3)*%
X180895000Y-103000000D03*
%TD*%
D29*
%TO.P,JP5,1,1*%
%TO.N,Net-(JP5-Pad1)*%
X186040000Y-72555000D03*
D30*
%TO.P,JP5,2,2*%
%TO.N,GPIO2*%
X183500000Y-72555000D03*
%TO.P,JP5,3,3*%
%TO.N,Net-(JP5-Pad3)*%
X180960000Y-72555000D03*
%TD*%
D22*
%TO.P,Q13,1,E*%
%TO.N,GND*%
X111450000Y-64600000D03*
%TO.P,Q13,2,B*%
%TO.N,Net-(Q13-Pad2)*%
X109550000Y-64600000D03*
%TO.P,Q13,3,C*%
%TO.N,Net-(D43-Pad1)*%
X110500000Y-62600000D03*
%TD*%
D23*
%TO.P,Q14,1,E*%
%TO.N,GND*%
X194900000Y-70250000D03*
%TO.P,Q14,2,B*%
%TO.N,Net-(Q14-Pad2)*%
X194900000Y-72150000D03*
%TO.P,Q14,3,C*%
%TO.N,Net-(D45-Pad2)*%
X192900000Y-71200000D03*
%TD*%
%TO.P,Q15,1,E*%
%TO.N,GND*%
X194600000Y-64150000D03*
%TO.P,Q15,2,B*%
%TO.N,Net-(Q15-Pad2)*%
X194600000Y-66050000D03*
%TO.P,Q15,3,C*%
%TO.N,Net-(D44-Pad2)*%
X192600000Y-65100000D03*
%TD*%
%TO.P,Q16,1,E*%
%TO.N,GND*%
X203900000Y-84350000D03*
%TO.P,Q16,2,B*%
%TO.N,Net-(Q16-Pad2)*%
X203900000Y-82450000D03*
%TO.P,Q16,3,C*%
%TO.N,Net-(D49-Pad1)*%
X205900000Y-83400000D03*
%TD*%
%TO.P,Q17,1,E*%
%TO.N,GND*%
X167360700Y-73708200D03*
%TO.P,Q17,2,B*%
%TO.N,Net-(Q17-Pad2)*%
X167360700Y-71808200D03*
%TO.P,Q17,3,C*%
%TO.N,Net-(D50-Pad1)*%
X169360700Y-72758200D03*
%TD*%
D11*
%TO.P,R71,1*%
%TO.N,VCC*%
X104579900Y-58969200D03*
%TO.P,R71,2*%
%TO.N,Net-(D43-Pad2)*%
X106579900Y-58969200D03*
%TD*%
%TO.P,R72,1*%
%TO.N,VCC*%
X109744000Y-69596000D03*
%TO.P,R72,2*%
%TO.N,Net-(BZ1-Pad1)*%
X111744000Y-69596000D03*
%TD*%
D16*
%TO.P,R73,1*%
%TO.N,Net-(Q13-Pad2)*%
X123385300Y-65386000D03*
%TO.P,R73,2*%
%TO.N,GND*%
X123385300Y-67386000D03*
%TD*%
%TO.P,R74,1*%
%TO.N,Net-(Q13-Pad2)*%
X114847300Y-66063600D03*
%TO.P,R74,2*%
%TO.N,Net-(R74-Pad2)*%
X114847300Y-68063600D03*
%TD*%
D11*
%TO.P,R75,1*%
%TO.N,Net-(JP2-Pad3)*%
X191647200Y-103703200D03*
%TO.P,R75,2*%
%TO.N,Net-(C17-Pad1)*%
X193647200Y-103703200D03*
%TD*%
%TO.P,R76,1*%
%TO.N,Net-(JP3-Pad3)*%
X180912200Y-88055000D03*
%TO.P,R76,2*%
%TO.N,Net-(C18-Pad1)*%
X182912200Y-88055000D03*
%TD*%
%TO.P,R77,1*%
%TO.N,Net-(C17-Pad1)*%
X197000000Y-103500000D03*
%TO.P,R77,2*%
%TO.N,VCC*%
X199000000Y-103500000D03*
%TD*%
D16*
%TO.P,R78,1*%
%TO.N,Net-(C18-Pad1)*%
X176629000Y-92769000D03*
%TO.P,R78,2*%
%TO.N,VCC*%
X176629000Y-94769000D03*
%TD*%
D11*
%TO.P,R79,1*%
%TO.N,Net-(C17-Pad1)*%
X197200000Y-98900000D03*
%TO.P,R79,2*%
%TO.N,Net-(D44-Pad1)*%
X199200000Y-98900000D03*
%TD*%
%TO.P,R80,1*%
%TO.N,Net-(C18-Pad1)*%
X186458800Y-95115200D03*
%TO.P,R80,2*%
%TO.N,Net-(D45-Pad1)*%
X188458800Y-95115200D03*
%TD*%
D16*
%TO.P,R85,1*%
%TO.N,Net-(Q16-Pad2)*%
X201300000Y-82600000D03*
%TO.P,R85,2*%
%TO.N,GND*%
X201300000Y-84600000D03*
%TD*%
%TO.P,R87,1*%
%TO.N,Net-(Q17-Pad2)*%
X162874300Y-71926600D03*
%TO.P,R87,2*%
%TO.N,GND*%
X162874300Y-73926600D03*
%TD*%
D10*
%TO.P,R88,1*%
%TO.N,Net-(Q17-Pad2)*%
X158286300Y-71869200D03*
%TO.P,R88,2*%
%TO.N,Net-(JP4-Pad1)*%
X156286300Y-71869200D03*
%TD*%
D11*
%TO.P,R91,1*%
%TO.N,Net-(C20-Pad1)*%
X178815000Y-115095800D03*
%TO.P,R91,2*%
%TO.N,Net-(D52-Pad1)*%
X180815000Y-115095800D03*
%TD*%
%TO.P,R92,1*%
%TO.N,Net-(JP5-Pad3)*%
X193422800Y-77561500D03*
%TO.P,R92,2*%
%TO.N,Net-(C19-Pad1)*%
X195422800Y-77561500D03*
%TD*%
D12*
%TO.P,R93,1*%
%TO.N,Net-(C20-Pad1)*%
X168546800Y-114740200D03*
%TO.P,R93,2*%
%TO.N,VCC*%
X168546800Y-112740200D03*
%TD*%
D16*
%TO.P,R94,1*%
%TO.N,Net-(JP4-Pad3)*%
X173400000Y-102900000D03*
%TO.P,R94,2*%
%TO.N,Net-(C20-Pad1)*%
X173400000Y-104900000D03*
%TD*%
D31*
%TO.P,SW1,1,1*%
%TO.N,GND*%
X171500000Y-90300000D03*
%TO.P,SW1,2,2*%
%TO.N,/Logique/Vpp*%
X166500000Y-90300000D03*
%TD*%
D32*
%TO.P,R95,1*%
%TO.N,VCC*%
X93515000Y-88900000D03*
%TO.P,R95,2*%
%TO.N,Net-(C5-Pad1)*%
X90415000Y-88900000D03*
%TD*%
D14*
%TO.P,J27,1,Pin_1*%
%TO.N,GND*%
X57204000Y-91948000D03*
D15*
%TO.P,J27,2,Pin_2*%
%TO.N,VCC*%
X57204000Y-96948000D03*
%TD*%
D10*
%TO.P,R86,1*%
%TO.N,Net-(Q16-Pad2)*%
X187200000Y-67700000D03*
%TO.P,R86,2*%
%TO.N,Net-(JP5-Pad1)*%
X185200000Y-67700000D03*
%TD*%
D33*
%TO.P,BZ2,1,-*%
%TO.N,Net-(BZ1-Pad1)*%
X138700000Y-59400000D03*
D31*
%TO.P,BZ2,2,+*%
%TO.N,Net-(BZ1-Pad2)*%
X132200000Y-59400000D03*
%TD*%
D34*
%TO.P,BZ1,1,-*%
%TO.N,Net-(BZ1-Pad1)*%
X142500000Y-66250000D03*
%TO.P,BZ1,2,+*%
%TO.N,Net-(BZ1-Pad2)*%
X128200000Y-66250000D03*
%TD*%
D29*
%TO.P,J2,1,Pin_1*%
%TO.N,/Logique/Vpp*%
X53800000Y-119150000D03*
D30*
%TO.P,J2,2,Pin_2*%
%TO.N,VCC*%
X53800000Y-116610000D03*
%TO.P,J2,3,Pin_3*%
%TO.N,GND*%
X53800000Y-114070000D03*
%TO.P,J2,4,Pin_4*%
%TO.N,Net-(J2-Pad4)*%
X53800000Y-111530000D03*
%TO.P,J2,5,Pin_5*%
%TO.N,Net-(J2-Pad5)*%
X53800000Y-108990000D03*
%TO.P,J2,6,Pin_6*%
%TO.N,unconnected-(J2-Pad6)*%
X53800000Y-106450000D03*
%TD*%
D35*
%TO.P,R8,1*%
%TO.N,Net-(Q1-Pad2)*%
X79800000Y-111300000D03*
%TO.P,R8,2*%
%TO.N,Rel1*%
X81800000Y-111300000D03*
%TD*%
D36*
%TO.N,GND*%
X72850000Y-105250000D03*
D37*
X160500000Y-104800000D03*
D36*
X84815000Y-75100000D03*
D38*
X52815000Y-78385000D03*
D36*
X81400000Y-61000000D03*
X214700000Y-112200000D03*
X169164000Y-76200000D03*
X76800000Y-49900000D03*
X129000000Y-50400000D03*
D38*
X103600000Y-63000000D03*
X114000000Y-62800000D03*
D37*
X149700000Y-110100000D03*
D36*
X210600000Y-78300000D03*
D38*
X53157500Y-71757500D03*
D36*
X82315000Y-74600000D03*
D38*
X149860000Y-62992000D03*
D36*
X206300000Y-113600000D03*
X170957800Y-118175600D03*
D37*
X91050000Y-59650000D03*
D36*
X180997800Y-91097200D03*
X214884000Y-58928000D03*
X194079000Y-112479000D03*
X53848000Y-56388000D03*
X200660000Y-68580000D03*
X103900000Y-50600000D03*
D37*
X115900000Y-109400000D03*
X95800000Y-106700000D03*
X139000000Y-110000000D03*
D36*
X116200000Y-50500000D03*
X77000000Y-61100000D03*
X79565000Y-76350000D03*
X212535600Y-105170800D03*
X194600000Y-62300000D03*
X210820000Y-91440000D03*
X208280000Y-63500000D03*
X145200000Y-50400000D03*
X123600000Y-106000000D03*
X195591200Y-86878900D03*
X123385300Y-69525600D03*
X89815000Y-72600000D03*
D37*
X103000000Y-110700000D03*
D36*
X210820000Y-61976000D03*
X101815000Y-75100000D03*
D39*
%TO.N,+12V*%
X59944000Y-117348000D03*
X59944000Y-77216000D03*
D36*
X199136000Y-53340000D03*
D38*
X58900000Y-57100000D03*
D37*
%TO.N,Net-(C4-Pad2)*%
X63680000Y-77235000D03*
X63680000Y-73965000D03*
D36*
%TO.N,VCC*%
X101941700Y-58969200D03*
X207010000Y-76200000D03*
D38*
X186150000Y-50950000D03*
D36*
X204470000Y-105410000D03*
D38*
X183300000Y-61200000D03*
D36*
X165350000Y-82300000D03*
X91990000Y-63575000D03*
D37*
X204200000Y-86630000D03*
X96515000Y-88900000D03*
D36*
X178540000Y-97055000D03*
X168500000Y-109000000D03*
X210400000Y-118749500D03*
D37*
X97865000Y-88900000D03*
D36*
X160460800Y-69948400D03*
X220900000Y-118900000D03*
X106172000Y-69596000D03*
D37*
X199000000Y-106300000D03*
%TO.N,/Logique/Vpp*%
X159512000Y-90424000D03*
%TO.N,Net-(C9-Pad1)*%
X202200000Y-112100000D03*
%TO.N,Net-(C10-Pad1)*%
X207400000Y-119400000D03*
X202200000Y-118600000D03*
%TO.N,Net-(C11-Pad1)*%
X213868000Y-114300000D03*
%TO.N,Net-(C12-Pad1)*%
X206248000Y-101092000D03*
X208515000Y-95015000D03*
%TO.N,Net-(C14-Pad1)*%
X211328000Y-75696299D03*
X209296000Y-71120000D03*
X212344000Y-78740000D03*
X208216000Y-98616000D03*
%TO.N,Net-(C15-Pad1)*%
X208280000Y-85090000D03*
X201676000Y-75184000D03*
X196596000Y-71628000D03*
%TO.N,Net-(D7-Pad1)*%
X64770000Y-124460000D03*
X68580000Y-124460000D03*
%TO.N,Net-(D9-Pad1)*%
X85090000Y-123190000D03*
X85090000Y-119380000D03*
%TO.N,Net-(D11-Pad1)*%
X104140000Y-118872000D03*
X102616000Y-125476000D03*
%TO.N,Net-(D14-Pad1)*%
X116840000Y-119380000D03*
X118364000Y-129032000D03*
%TO.N,Net-(D16-Pad1)*%
X137160000Y-129032000D03*
X137160000Y-119888000D03*
%TO.N,Net-(D18-Pad1)*%
X159512000Y-129032000D03*
X157480000Y-124460000D03*
%TO.N,Net-(D20-Pad1)*%
X177292000Y-123952000D03*
X176276000Y-119888000D03*
%TO.N,Net-(D22-Pad1)*%
X196088000Y-119380000D03*
X196088000Y-124968000D03*
%TO.N,Net-(D23-Pad1)*%
X223300000Y-146700000D03*
%TO.N,Net-(D41-Pad1)*%
X125730000Y-63500000D03*
%TO.N,Net-(J3-Pad4)*%
X148590000Y-87630000D03*
X158750000Y-80010000D03*
X166370000Y-66040000D03*
X158750000Y-87630000D03*
%TO.N,Net-(Q12-Pad2)*%
X125476000Y-99060000D03*
X79248000Y-63500000D03*
%TO.N,Net-(R1-Pad2)*%
X60315000Y-71600000D03*
X56315000Y-77100000D03*
X69815000Y-72600000D03*
%TO.N,Net-(R3-Pad2)*%
X71015000Y-81700000D03*
X71015000Y-77700000D03*
%TO.N,Rel8*%
X159004000Y-96012000D03*
%TO.N,IN1*%
X159004000Y-103632000D03*
X155448000Y-103632000D03*
X160020000Y-112268000D03*
%TO.N,IN3*%
X178816000Y-118364000D03*
X157480000Y-77724000D03*
X157988000Y-112268000D03*
%TO.N,IN2*%
X166624000Y-107696000D03*
X156464000Y-107696000D03*
X166595895Y-111976500D03*
%TO.N,IN4*%
X156210000Y-81280000D03*
X156210000Y-85090000D03*
%TO.N,IN7*%
X133350000Y-90170000D03*
%TO.N,IN6*%
X173228000Y-80772000D03*
X140208000Y-82804000D03*
X173276000Y-66500000D03*
%TO.N,IN8*%
X151892000Y-56388000D03*
%TO.N,AN2*%
X128270000Y-71120000D03*
X145288000Y-70612000D03*
%TO.N,AN3*%
X139700000Y-68580000D03*
%TO.N,AN4*%
X116840000Y-68580000D03*
%TO.N,C2*%
X103632000Y-81280000D03*
X128035000Y-81299000D03*
X94996000Y-53848000D03*
%TO.N,C1*%
X95250000Y-62230000D03*
X95250000Y-72390000D03*
%TO.N,Net-(J25-Pad1)*%
X92964000Y-74168000D03*
%TO.N,Net-(D28-Pad1)*%
X205740000Y-119380000D03*
%TO.N,Net-(D30-Pad1)*%
X213500000Y-98920000D03*
%TO.N,Net-(D36-Pad1)*%
X214884000Y-79248000D03*
X214884000Y-88900000D03*
%TO.N,Net-(D37-Pad1)*%
X219964000Y-57912000D03*
X213360000Y-81788000D03*
X213360000Y-76200000D03*
%TO.N,Net-(BZ1-Pad1)*%
X124460000Y-72390000D03*
X111760000Y-72390000D03*
%TO.N,Net-(C19-Pad1)*%
X195422800Y-80167200D03*
%TO.N,Net-(D44-Pad1)*%
X207772000Y-78740000D03*
X210312000Y-76420799D03*
%TO.N,Net-(D44-Pad2)*%
X207772000Y-56388000D03*
X198120000Y-61325489D03*
X207772000Y-61976000D03*
%TO.N,Net-(D49-Pad1)*%
X208788000Y-83820000D03*
X206756000Y-81788000D03*
X212852000Y-83820000D03*
X214376000Y-72644000D03*
%TO.N,Net-(D50-Pad1)*%
X221996000Y-50292000D03*
X204216000Y-47244000D03*
%TO.N,Net-(D51-Pad1)*%
X213360000Y-74930000D03*
%TO.N,Net-(D52-Pad1)*%
X200660000Y-79764614D03*
X191008000Y-81788000D03*
X177292000Y-105664000D03*
X191008000Y-100584000D03*
%TO.N,Net-(JP2-Pad1)*%
X164592000Y-78232000D03*
X167132000Y-102616000D03*
%TO.N,GPIO3*%
X154940000Y-110744000D03*
%TO.N,GPIO4*%
X153924000Y-80264000D03*
%TO.N,Net-(JP4-Pad1)*%
X156464000Y-97028000D03*
%TO.N,GPIO1*%
X142240000Y-98552000D03*
%TO.N,Net-(JP5-Pad3)*%
X191008000Y-78740000D03*
X180848000Y-77216000D03*
%TO.N,GPIO2*%
X143275000Y-86379000D03*
X175260000Y-85852000D03*
X183388000Y-76200000D03*
X175260000Y-76200000D03*
%TO.N,Net-(Q14-Pad2)*%
X191516000Y-72644000D03*
%TO.N,Net-(Q15-Pad2)*%
X171704000Y-77724000D03*
X196840000Y-66050000D03*
%TO.N,Net-(Q16-Pad2)*%
X199390000Y-80010000D03*
X199390000Y-74930000D03*
%TO.N,Net-(C5-Pad1)*%
X80015000Y-81600000D03*
X80515000Y-71900000D03*
%TO.N,Net-(J2-Pad4)*%
X57404000Y-101600000D03*
%TD*%
D40*
%TO.N,GND*%
X72850000Y-108300000D02*
X72850000Y-111300000D01*
X101815000Y-75100000D02*
X100315000Y-76600000D01*
X115900000Y-109400000D02*
X115900000Y-111225000D01*
X123385300Y-67386000D02*
X123385300Y-69525600D01*
X81300000Y-58900000D02*
X81300000Y-60900000D01*
X95800000Y-104500000D02*
X95800000Y-106700000D01*
X103000000Y-112450000D02*
X103050000Y-112500000D01*
X72850000Y-111300000D02*
X72950000Y-111400000D01*
X201550000Y-84350000D02*
X201300000Y-84600000D01*
X195591200Y-84124100D02*
X195591200Y-86878900D01*
X79565000Y-76350000D02*
X79815000Y-76100000D01*
X103000000Y-110700000D02*
X103000000Y-112450000D01*
X111450000Y-64600000D02*
X112200000Y-64600000D01*
X230900000Y-59000000D02*
X235300000Y-63400000D01*
X72790000Y-77235000D02*
X73765000Y-77235000D01*
X79315000Y-76100000D02*
X79565000Y-76350000D01*
X78315000Y-74600000D02*
X79815000Y-74600000D01*
X216872000Y-58928000D02*
X214884000Y-58928000D01*
X53115000Y-62100000D02*
X53115000Y-67400000D01*
X169164000Y-77724000D02*
X170400000Y-78960000D01*
X73765000Y-77235000D02*
X73900000Y-77100000D01*
X78315000Y-77100000D02*
X78315000Y-74600000D01*
X78315000Y-77100000D02*
X78815000Y-77100000D01*
X53157500Y-71757500D02*
X52815000Y-72100000D01*
X86315000Y-72600000D02*
X89815000Y-72600000D01*
X172633400Y-116500000D02*
X170957800Y-118175600D01*
X55315000Y-69600000D02*
X53157500Y-71757500D01*
X139000000Y-110000000D02*
X139000000Y-111650000D01*
X76900000Y-58950000D02*
X76900000Y-61000000D01*
X52815000Y-78385000D02*
X52815000Y-82300000D01*
X160500000Y-103000000D02*
X160500000Y-104800000D01*
X224100000Y-59000000D02*
X230900000Y-59000000D01*
X81300000Y-60900000D02*
X81400000Y-61000000D01*
X91315000Y-73100000D02*
X91315000Y-77400000D01*
X149700000Y-110100000D02*
X149700000Y-111700000D01*
X180997800Y-92769000D02*
X180997800Y-91097200D01*
X195591200Y-84124100D02*
X200824100Y-84124100D01*
X169164000Y-76200000D02*
X167360700Y-74396700D01*
X149700000Y-111700000D02*
X149750000Y-111750000D01*
X79815000Y-76100000D02*
X79815000Y-74600000D01*
X218600000Y-111300000D02*
X215600000Y-111300000D01*
X203000000Y-58900000D02*
X209900000Y-58900000D01*
X171500000Y-90300000D02*
X171500000Y-94800000D01*
X160500000Y-106150000D02*
X160550000Y-106200000D01*
X90815000Y-72600000D02*
X91315000Y-73100000D01*
X174500000Y-116500000D02*
X172633400Y-116500000D01*
X82315000Y-77600000D02*
X82315000Y-74600000D01*
X112200000Y-64600000D02*
X114000000Y-62800000D01*
X52815000Y-74600000D02*
X52815000Y-78385000D01*
X72850000Y-108300000D02*
X72850000Y-105250000D01*
X82315000Y-77600000D02*
X84815000Y-75100000D01*
X194079000Y-109986400D02*
X194079000Y-112479000D01*
X123600000Y-106500000D02*
X126400000Y-109300000D01*
X139000000Y-111650000D02*
X139050000Y-111700000D01*
X95800000Y-108750000D02*
X95750000Y-108800000D01*
X194900000Y-70250000D02*
X198990000Y-70250000D01*
X194600000Y-64150000D02*
X194600000Y-62300000D01*
X79815000Y-74600000D02*
X82315000Y-74600000D01*
X73900000Y-77100000D02*
X78315000Y-77100000D01*
X149700000Y-108250000D02*
X149700000Y-110100000D01*
X167360700Y-74396700D02*
X167360700Y-73708200D01*
X198990000Y-70250000D02*
X200660000Y-68580000D01*
X160500000Y-104800000D02*
X160500000Y-106150000D01*
X86315000Y-73600000D02*
X86315000Y-72600000D01*
X171500000Y-94800000D02*
X170000000Y-96300000D01*
X203900000Y-84350000D02*
X201550000Y-84350000D01*
X170400000Y-78960000D02*
X170400000Y-82300000D01*
X169164000Y-76200000D02*
X169164000Y-77724000D01*
X78815000Y-76100000D02*
X79315000Y-76100000D01*
X209900000Y-58900000D02*
X209900000Y-61056000D01*
X115900000Y-111225000D02*
X115950000Y-111275000D01*
X126400000Y-109300000D02*
X126400000Y-112250000D01*
X162874300Y-73926600D02*
X167142300Y-73926600D01*
X139000000Y-108200000D02*
X139000000Y-110000000D01*
X79315000Y-75600000D02*
X78815000Y-76100000D01*
X115900000Y-107275000D02*
X115900000Y-109400000D01*
X209900000Y-61056000D02*
X210820000Y-61976000D01*
X103000000Y-109000000D02*
X103000000Y-110700000D01*
X76900000Y-61000000D02*
X77000000Y-61100000D01*
X215600000Y-111300000D02*
X214700000Y-112200000D01*
X167142300Y-73926600D02*
X167360700Y-73708200D01*
X78815000Y-77100000D02*
X79565000Y-76350000D01*
X53115000Y-67400000D02*
X55315000Y-69600000D01*
X123600000Y-106000000D02*
X123600000Y-106500000D01*
X126400000Y-112250000D02*
X126450000Y-112300000D01*
X200824100Y-84124100D02*
X201300000Y-84600000D01*
X95800000Y-106700000D02*
X95800000Y-108750000D01*
X52815000Y-72100000D02*
X52815000Y-74600000D01*
X78315000Y-74600000D02*
X79315000Y-75600000D01*
X84815000Y-75100000D02*
X86315000Y-73600000D01*
X89815000Y-72600000D02*
X90815000Y-72600000D01*
D41*
%TO.N,+12V*%
X78200000Y-121675000D02*
X86975000Y-121675000D01*
X214000000Y-132500000D02*
X216900000Y-135400000D01*
X92625000Y-121275000D02*
X89600000Y-124300000D01*
X59100000Y-120800000D02*
X62900000Y-120800000D01*
X89600000Y-124300000D02*
X89600000Y-127800000D01*
X152800000Y-133400000D02*
X155200000Y-135800000D01*
X148975000Y-121375000D02*
X152800000Y-125200000D01*
D42*
X58900000Y-57100000D02*
X58900000Y-61485000D01*
D41*
X171475000Y-121275000D02*
X174400000Y-124200000D01*
X192800000Y-127500000D02*
X192800000Y-131200000D01*
X121000000Y-121175000D02*
X130375000Y-121175000D01*
X141300000Y-121375000D02*
X135025000Y-121375000D01*
X165200000Y-121275000D02*
X162925000Y-121275000D01*
X214000000Y-127100000D02*
X214000000Y-132500000D01*
X192900000Y-122200000D02*
X192800000Y-122300000D01*
D42*
X58900000Y-61485000D02*
X59515000Y-62100000D01*
D40*
X199136000Y-54356000D02*
X199136000Y-53340000D01*
D41*
X59515000Y-67400000D02*
X57315000Y-69600000D01*
X184000000Y-120375000D02*
X191075000Y-120375000D01*
D40*
X59944000Y-117348000D02*
X59944000Y-119888000D01*
D41*
X59515000Y-62100000D02*
X59515000Y-67400000D01*
X58540001Y-75825001D02*
X58540001Y-74600000D01*
X135025000Y-121375000D02*
X132800000Y-123600000D01*
X178225000Y-120375000D02*
X184000000Y-120375000D01*
X152800000Y-125200000D02*
X152800000Y-127200000D01*
X192800000Y-131200000D02*
X197100000Y-135500000D01*
X89600000Y-133200000D02*
X92200000Y-135800000D01*
X69300000Y-133500000D02*
X69300000Y-125800000D01*
X132900000Y-128100000D02*
X132900000Y-134500000D01*
X191075000Y-120375000D02*
X192900000Y-122200000D01*
X111900000Y-127800000D02*
X111900000Y-133500000D01*
X59944000Y-77216000D02*
X61060000Y-76100000D01*
X59931000Y-77216000D02*
X58540001Y-75825001D01*
X114125000Y-121175000D02*
X111900000Y-123400000D01*
X192800000Y-122300000D02*
X192800000Y-127500000D01*
X111900000Y-123200000D02*
X111900000Y-123400000D01*
X132800000Y-123600000D02*
X132900000Y-123700000D01*
X177100000Y-130000000D02*
X177100000Y-135500000D01*
D40*
X198120000Y-55372000D02*
X199136000Y-54356000D01*
D41*
X57315000Y-73374999D02*
X58540001Y-74600000D01*
X69300000Y-133500000D02*
X71600000Y-135800000D01*
X86975000Y-121675000D02*
X89600000Y-124300000D01*
X69300000Y-125800000D02*
X73425000Y-121675000D01*
X132900000Y-123700000D02*
X132900000Y-128100000D01*
X194325000Y-120775000D02*
X192900000Y-122200000D01*
X157000000Y-127200000D02*
X152800000Y-127200000D01*
X100600000Y-121275000D02*
X92625000Y-121275000D01*
X132900000Y-134500000D02*
X134200000Y-135800000D01*
D40*
X59944000Y-119888000D02*
X59436000Y-120396000D01*
X198120000Y-56380000D02*
X198120000Y-55372000D01*
D41*
X100975000Y-120900000D02*
X109600000Y-120900000D01*
X109600000Y-120900000D02*
X111900000Y-123200000D01*
X57315000Y-69600000D02*
X57315000Y-73374999D01*
X162925000Y-121275000D02*
X157000000Y-127200000D01*
X204300000Y-120775000D02*
X211475000Y-120775000D01*
X121000000Y-121175000D02*
X114125000Y-121175000D01*
X73425000Y-121675000D02*
X78200000Y-121675000D01*
X111900000Y-123400000D02*
X111900000Y-127800000D01*
D40*
X195700000Y-58800000D02*
X198120000Y-56380000D01*
D41*
X165200000Y-121275000D02*
X171475000Y-121275000D01*
X174400000Y-124200000D02*
X178225000Y-120375000D01*
X174400000Y-124200000D02*
X174400000Y-127500000D01*
X152800000Y-127200000D02*
X152800000Y-133400000D01*
X89600000Y-127800000D02*
X89600000Y-133200000D01*
X62900000Y-120800000D02*
X69300000Y-127200000D01*
X204300000Y-120775000D02*
X194325000Y-120775000D01*
X61060000Y-76100000D02*
X67705000Y-76100000D01*
X174600000Y-127500000D02*
X177100000Y-130000000D01*
X214000000Y-123300000D02*
X214000000Y-127100000D01*
X141300000Y-121375000D02*
X148975000Y-121375000D01*
X130375000Y-121175000D02*
X132800000Y-123600000D01*
X59944000Y-77216000D02*
X59931000Y-77216000D01*
X111900000Y-133500000D02*
X114200000Y-135800000D01*
X211475000Y-120775000D02*
X214000000Y-123300000D01*
%TO.N,Net-(C3-Pad1)*%
X72790000Y-74695000D02*
X76220000Y-74695000D01*
%TO.N,Net-(C4-Pad1)*%
X67315000Y-69600000D02*
X72615000Y-69600000D01*
X67315000Y-69600000D02*
X67315000Y-71100000D01*
X67840000Y-71625000D02*
X67840000Y-74695000D01*
X67315000Y-71100000D02*
X67840000Y-71625000D01*
X72615000Y-69600000D02*
X73615000Y-68600000D01*
%TO.N,Net-(C4-Pad2)*%
X58515000Y-82600000D02*
X63296000Y-82600000D01*
X63680000Y-73965000D02*
X63680000Y-71235000D01*
X63296000Y-82600000D02*
X67564000Y-86868000D01*
X63680000Y-77235000D02*
X67840000Y-77235000D01*
X58515000Y-82400000D02*
X63680000Y-77235000D01*
X67564000Y-86868000D02*
X67564000Y-91062000D01*
X67564000Y-91062000D02*
X69466000Y-92964000D01*
X63680000Y-71235000D02*
X65315000Y-69600000D01*
D40*
%TO.N,VCC*%
X96515000Y-88900000D02*
X97865000Y-88900000D01*
X168546800Y-112740200D02*
X168546800Y-109046800D01*
X209800000Y-115800000D02*
X209800000Y-118400000D01*
X86315000Y-63575000D02*
X91990000Y-63575000D01*
X93515000Y-88900000D02*
X96515000Y-88900000D01*
X168546800Y-109046800D02*
X168500000Y-109000000D01*
X199000000Y-108750000D02*
X198500000Y-109250000D01*
X220400000Y-120800000D02*
X220900000Y-120300000D01*
X176629000Y-94769000D02*
X176629000Y-95144000D01*
X162000000Y-88300000D02*
X162000000Y-85650000D01*
X109744000Y-69596000D02*
X106172000Y-69596000D01*
X168400000Y-82300000D02*
X165350000Y-82300000D01*
X210150500Y-118500000D02*
X210400000Y-118749500D01*
X199000000Y-106300000D02*
X199000000Y-108750000D01*
X220900000Y-120300000D02*
X220900000Y-118900000D01*
X209900000Y-118500000D02*
X210150500Y-118500000D01*
X104579900Y-58969200D02*
X101941700Y-58969200D01*
X176629000Y-95144000D02*
X178540000Y-97055000D01*
X209800000Y-118400000D02*
X209900000Y-118500000D01*
X199000000Y-103500000D02*
X199000000Y-106300000D01*
X162000000Y-85650000D02*
X165350000Y-82300000D01*
D41*
%TO.N,/Logique/Vpp*%
X159636000Y-90300000D02*
X159512000Y-90424000D01*
X105175000Y-93000000D02*
X99700000Y-93000000D01*
X55602000Y-119150000D02*
X53800000Y-119150000D01*
X99700000Y-93000000D02*
X93600000Y-99100000D01*
X91500000Y-99100000D02*
X86968000Y-103632000D01*
X166500000Y-94800000D02*
X168000000Y-96300000D01*
X93600000Y-99100000D02*
X91500000Y-99100000D01*
X71120000Y-103632000D02*
X55602000Y-119150000D01*
X162000000Y-90300000D02*
X166500000Y-90300000D01*
X86968000Y-103632000D02*
X71120000Y-103632000D01*
X162000000Y-90300000D02*
X159636000Y-90300000D01*
X166500000Y-90300000D02*
X166500000Y-94800000D01*
%TO.N,Net-(C9-Pad1)*%
X202200000Y-112100000D02*
X206700000Y-112100000D01*
X206700000Y-112100000D02*
X207774511Y-113174511D01*
X218800000Y-115400000D02*
X218800000Y-113100000D01*
X207774511Y-113174511D02*
X218725489Y-113174511D01*
X218800000Y-113100000D02*
X220600000Y-111300000D01*
X218725489Y-113174511D02*
X218800000Y-113100000D01*
X200500000Y-109250000D02*
X200500000Y-110400000D01*
X200500000Y-110400000D02*
X202200000Y-112100000D01*
%TO.N,Net-(C10-Pad1)*%
X204800000Y-116200000D02*
X201700000Y-116200000D01*
X202000000Y-118600000D02*
X202200000Y-118600000D01*
X201700000Y-118300000D02*
X202000000Y-118600000D01*
X201700000Y-116200000D02*
X201700000Y-118300000D01*
X205700000Y-115300000D02*
X204800000Y-116200000D01*
X218400000Y-120800000D02*
X217600000Y-120000000D01*
X217600000Y-120000000D02*
X208000000Y-120000000D01*
X208000000Y-120000000D02*
X207400000Y-119400000D01*
%TO.N,Net-(C11-Pad1)*%
X213868000Y-115316000D02*
X213868000Y-114300000D01*
X211800000Y-115800000D02*
X213384000Y-115800000D01*
X213384000Y-115800000D02*
X213868000Y-115316000D01*
%TO.N,Net-(C12-Pad1)*%
X207264000Y-101092000D02*
X206248000Y-101092000D01*
X208515000Y-95739000D02*
X209296000Y-96520000D01*
X213360000Y-93980000D02*
X213500000Y-94120000D01*
X209550000Y-93980000D02*
X213360000Y-93980000D01*
X209296000Y-96520000D02*
X209296000Y-99060000D01*
X208515000Y-95015000D02*
X209550000Y-93980000D01*
X209296000Y-99060000D02*
X207264000Y-101092000D01*
X213500000Y-94120000D02*
X213500000Y-95200000D01*
X208515000Y-95015000D02*
X208515000Y-95739000D01*
%TO.N,Net-(C14-Pad1)*%
X207264000Y-82804000D02*
X209296000Y-80772000D01*
X207772000Y-98172000D02*
X207772000Y-85852000D01*
X209296000Y-73660000D02*
X209296000Y-71120000D01*
X208216000Y-98616000D02*
X207772000Y-98172000D01*
X207264000Y-85344000D02*
X207264000Y-82804000D01*
X210312000Y-80772000D02*
X212344000Y-78740000D01*
X207772000Y-85852000D02*
X207264000Y-85344000D01*
X209296000Y-80772000D02*
X210312000Y-80772000D01*
X211328000Y-75692000D02*
X209296000Y-73660000D01*
X211328000Y-75696299D02*
X211328000Y-75692000D01*
%TO.N,Net-(C15-Pad1)*%
X196596000Y-71628000D02*
X198120000Y-71628000D01*
X198120000Y-71628000D02*
X201676000Y-75184000D01*
X208280000Y-85090000D02*
X212690000Y-85090000D01*
%TO.N,Net-(D5-Pad1)*%
X86315000Y-65625000D02*
X86315000Y-70600000D01*
%TO.N,Net-(D6-Pad1)*%
X59100000Y-122900000D02*
X57600000Y-124400000D01*
X57600000Y-124400000D02*
X57600000Y-127700000D01*
%TO.N,Net-(D7-Pad1)*%
X73900000Y-119140000D02*
X68580000Y-124460000D01*
X64770000Y-124460000D02*
X63900000Y-125330000D01*
X73900000Y-113400000D02*
X73900000Y-119140000D01*
X59600000Y-127700000D02*
X62900000Y-127700000D01*
X63900000Y-125330000D02*
X63900000Y-128700000D01*
X59600000Y-127700000D02*
X59600000Y-135800000D01*
%TO.N,Net-(D8-Pad1)*%
X78200000Y-123725000D02*
X78200000Y-128400000D01*
%TO.N,Net-(D9-Pad1)*%
X92400000Y-110800000D02*
X96700000Y-110800000D01*
X85090000Y-123190000D02*
X84200000Y-124080000D01*
X80200000Y-127800000D02*
X80200000Y-135800000D01*
X85090000Y-118110000D02*
X92400000Y-110800000D01*
X84200000Y-124080000D02*
X84200000Y-127800000D01*
X80200000Y-127800000D02*
X84200000Y-127800000D01*
X85090000Y-119380000D02*
X85090000Y-118110000D01*
%TO.N,Net-(D10-Pad1)*%
X100200000Y-123725000D02*
X100200000Y-127800000D01*
%TO.N,Net-(D11-Pad1)*%
X102616000Y-125476000D02*
X102616000Y-127384000D01*
X104000000Y-114500000D02*
X104000000Y-118732000D01*
X104000000Y-118732000D02*
X104140000Y-118872000D01*
X106500000Y-127800000D02*
X102200000Y-127800000D01*
X102200000Y-127800000D02*
X102200000Y-135800000D01*
%TO.N,Net-(D12-Pad1)*%
X121000000Y-123225000D02*
X121000000Y-125600000D01*
X121000000Y-125600000D02*
X122200000Y-126800000D01*
%TO.N,Net-(D14-Pad1)*%
X122900000Y-128100000D02*
X127500000Y-128100000D01*
X122200000Y-128800000D02*
X122900000Y-128100000D01*
X118364000Y-129032000D02*
X121968000Y-129032000D01*
X116900000Y-119320000D02*
X116900000Y-113275000D01*
X116840000Y-119380000D02*
X116900000Y-119320000D01*
X122200000Y-128800000D02*
X122200000Y-135800000D01*
%TO.N,Net-(D15-Pad1)*%
X140208000Y-127524000D02*
X140208000Y-124517000D01*
X140208000Y-124517000D02*
X141300000Y-123425000D01*
%TO.N,Net-(D16-Pad1)*%
X128524000Y-117856000D02*
X127400000Y-116732000D01*
X140208000Y-129524000D02*
X143748000Y-129524000D01*
X137652000Y-129524000D02*
X137160000Y-129032000D01*
X127400000Y-116732000D02*
X127400000Y-114300000D01*
X140208000Y-132808000D02*
X143200000Y-135800000D01*
X135128000Y-117856000D02*
X128524000Y-117856000D01*
X140208000Y-129524000D02*
X137652000Y-129524000D01*
X143748000Y-129524000D02*
X143764000Y-129540000D01*
X143764000Y-129540000D02*
X145060000Y-129540000D01*
X140208000Y-129524000D02*
X140208000Y-132808000D01*
X145060000Y-129540000D02*
X147400000Y-127200000D01*
X137160000Y-119888000D02*
X135128000Y-117856000D01*
%TO.N,Net-(D17-Pad1)*%
X163576000Y-127000000D02*
X165200000Y-125376000D01*
X165200000Y-125376000D02*
X165200000Y-123325000D01*
%TO.N,Net-(D18-Pad1)*%
X159512000Y-129032000D02*
X163544000Y-129032000D01*
X165076000Y-127500000D02*
X169000000Y-127500000D01*
X142748000Y-120396000D02*
X153416000Y-120396000D01*
X140000000Y-113700000D02*
X140000000Y-117648000D01*
X140000000Y-117648000D02*
X142748000Y-120396000D01*
X163576000Y-129000000D02*
X165100000Y-130524000D01*
X153416000Y-120396000D02*
X157480000Y-124460000D01*
X165100000Y-130524000D02*
X165100000Y-135500000D01*
X163576000Y-129000000D02*
X165076000Y-127500000D01*
%TO.N,Net-(D19-Pad1)*%
X184000000Y-123864000D02*
X181356000Y-126508000D01*
X184000000Y-122425000D02*
X184000000Y-123864000D01*
%TO.N,Net-(D20-Pad1)*%
X185100000Y-132252000D02*
X185100000Y-135500000D01*
X181356000Y-128508000D02*
X182364000Y-127500000D01*
X181356000Y-128508000D02*
X185100000Y-132252000D01*
X182364000Y-127500000D02*
X187400000Y-127500000D01*
X177292000Y-123952000D02*
X177292000Y-125984000D01*
X150700000Y-113750000D02*
X162518000Y-113750000D01*
X168656000Y-119888000D02*
X176276000Y-119888000D01*
X177292000Y-125984000D02*
X179816000Y-128508000D01*
X162518000Y-113750000D02*
X168656000Y-119888000D01*
X179816000Y-128508000D02*
X181356000Y-128508000D01*
%TO.N,Net-(D21-Pad1)*%
X204300000Y-124100000D02*
X204300000Y-122825000D01*
X201400000Y-127000000D02*
X204300000Y-124100000D01*
%TO.N,Net-(D22-Pad1)*%
X196088000Y-124968000D02*
X197368000Y-124968000D01*
X204900000Y-135400000D02*
X208000000Y-132300000D01*
X197368000Y-124968000D02*
X199400000Y-127000000D01*
X200100000Y-128900000D02*
X206800000Y-128900000D01*
X206800000Y-128900000D02*
X208600000Y-127100000D01*
X169442111Y-119150111D02*
X195858111Y-119150111D01*
X208600000Y-129300000D02*
X208600000Y-127100000D01*
X199400000Y-128200000D02*
X200100000Y-128900000D01*
X208000000Y-129900000D02*
X208600000Y-129300000D01*
X161500000Y-111208000D02*
X169442111Y-119150111D01*
X208000000Y-132300000D02*
X208000000Y-129900000D01*
X195858111Y-119150111D02*
X196088000Y-119380000D01*
X161500000Y-108200000D02*
X161500000Y-111208000D01*
X199400000Y-127000000D02*
X199400000Y-128200000D01*
%TO.N,Net-(D23-Pad1)*%
X223800000Y-146200000D02*
X223800000Y-140100000D01*
X223300000Y-146700000D02*
X223800000Y-146200000D01*
%TO.N,Net-(D41-Pad1)*%
X125730000Y-69850000D02*
X125730000Y-63500000D01*
X124180000Y-71400000D02*
X125730000Y-69850000D01*
X120600000Y-71400000D02*
X124180000Y-71400000D01*
%TO.N,Net-(J3-Pad4)*%
X158750000Y-80010000D02*
X158750000Y-87630000D01*
X179070000Y-52070000D02*
X168910000Y-52070000D01*
X185200000Y-42900000D02*
X185200000Y-45940000D01*
X166370000Y-54610000D02*
X166370000Y-66040000D01*
X148590000Y-87630000D02*
X148355000Y-87865000D01*
X148355000Y-87865000D02*
X148355000Y-93000000D01*
X168910000Y-52070000D02*
X166370000Y-54610000D01*
X185200000Y-45940000D02*
X179070000Y-52070000D01*
%TO.N,Net-(J4-Pad3)*%
X166370000Y-45720000D02*
X167200000Y-44890000D01*
X154940000Y-52070000D02*
X161290000Y-45720000D01*
X143275000Y-77760000D02*
X154940000Y-66095000D01*
X154940000Y-66095000D02*
X154940000Y-52070000D01*
X167200000Y-44890000D02*
X167200000Y-42900000D01*
X161290000Y-45720000D02*
X166370000Y-45720000D01*
%TO.N,Net-(J4-Pad4)*%
X153670000Y-51430000D02*
X162200000Y-42900000D01*
X140735000Y-77705000D02*
X153670000Y-64770000D01*
X153670000Y-64770000D02*
X153670000Y-51430000D01*
D42*
%TO.N,Net-(J5-Pad3)*%
X71600000Y-148000000D02*
X71600000Y-158700000D01*
X71600000Y-158700000D02*
X70600000Y-159700000D01*
%TO.N,Net-(J5-Pad2)*%
X65600000Y-133800000D02*
X65600000Y-159700000D01*
%TO.N,Net-(J5-Pad1)*%
X59600000Y-148000000D02*
X59600000Y-158700000D01*
X59600000Y-158700000D02*
X60600000Y-159700000D01*
%TO.N,Net-(J6-Pad3)*%
X92200000Y-148000000D02*
X92200000Y-159800000D01*
%TO.N,Net-(J6-Pad2)*%
X86200000Y-158800000D02*
X87200000Y-159800000D01*
X86200000Y-133800000D02*
X86200000Y-158800000D01*
%TO.N,Net-(J6-Pad1)*%
X80200000Y-157800000D02*
X82200000Y-159800000D01*
X80200000Y-148000000D02*
X80200000Y-157800000D01*
%TO.N,Net-(J7-Pad3)*%
X114200000Y-158800000D02*
X113200000Y-159800000D01*
X114200000Y-148000000D02*
X114200000Y-158800000D01*
%TO.N,Net-(J7-Pad2)*%
X108200000Y-133800000D02*
X108200000Y-159800000D01*
%TO.N,Net-(J7-Pad1)*%
X102200000Y-148000000D02*
X102200000Y-158800000D01*
X102200000Y-158800000D02*
X103200000Y-159800000D01*
%TO.N,Net-(J8-Pad1)*%
X122200000Y-157800000D02*
X124200000Y-159800000D01*
X122200000Y-148000000D02*
X122200000Y-157800000D01*
%TO.N,Net-(J8-Pad2)*%
X128200000Y-133800000D02*
X128200000Y-158800000D01*
X128200000Y-158800000D02*
X129200000Y-159800000D01*
%TO.N,Net-(J8-Pad3)*%
X134200000Y-148000000D02*
X134200000Y-158800000D01*
%TO.N,Net-(J9-Pad3)*%
X155200000Y-158800000D02*
X154200000Y-159800000D01*
X155200000Y-148000000D02*
X155200000Y-158800000D01*
%TO.N,Net-(J9-Pad2)*%
X149200000Y-133800000D02*
X149200000Y-159800000D01*
%TO.N,Net-(J9-Pad1)*%
X143200000Y-158800000D02*
X144200000Y-159800000D01*
X143200000Y-148000000D02*
X143200000Y-158800000D01*
D40*
%TO.N,Net-(J10-Pad1)*%
X165100000Y-158500000D02*
X166100000Y-159500000D01*
X165100000Y-147700000D02*
X165100000Y-158500000D01*
D42*
%TO.N,Net-(J10-Pad2)*%
X171100000Y-133500000D02*
X171100000Y-159500000D01*
%TO.N,Net-(J10-Pad3)*%
X177100000Y-147700000D02*
X177100000Y-158500000D01*
X177100000Y-158500000D02*
X176100000Y-159500000D01*
%TO.N,Net-(J11-Pad1)*%
X185100000Y-147700000D02*
X185100000Y-158500000D01*
X185100000Y-158500000D02*
X186100000Y-159500000D01*
%TO.N,Net-(J11-Pad2)*%
X191100000Y-133500000D02*
X191100000Y-159500000D01*
%TO.N,Net-(J11-Pad3)*%
X197100000Y-147700000D02*
X197100000Y-158500000D01*
X197100000Y-158500000D02*
X196100000Y-159500000D01*
%TO.N,Net-(J12-Pad1)*%
X204900000Y-147600000D02*
X204900000Y-158400000D01*
X204900000Y-158400000D02*
X205900000Y-159400000D01*
%TO.N,Net-(J12-Pad2)*%
X210900000Y-133400000D02*
X210900000Y-159400000D01*
%TO.N,Net-(J12-Pad3)*%
X216900000Y-147600000D02*
X216900000Y-158400000D01*
X216900000Y-158400000D02*
X215900000Y-159400000D01*
D41*
%TO.N,Net-(J25-Pad2)*%
X92418400Y-45881600D02*
X92418400Y-43080800D01*
X91400000Y-46900000D02*
X92418400Y-45881600D01*
X85800000Y-46900000D02*
X91400000Y-46900000D01*
X83300000Y-49400000D02*
X85800000Y-46900000D01*
X83300000Y-57950000D02*
X83300000Y-49400000D01*
%TO.N,Net-(Q1-Pad2)*%
X74850000Y-111400000D02*
X79700000Y-111400000D01*
X74850000Y-108300000D02*
X74850000Y-111400000D01*
%TO.N,Net-(Q2-Pad2)*%
X97800000Y-100000000D02*
X97800000Y-104500000D01*
X97650000Y-104650000D02*
X97650000Y-108800000D01*
%TO.N,Net-(Q3-Pad2)*%
X105000000Y-109000000D02*
X105000000Y-112450000D01*
X105000000Y-104500000D02*
X105000000Y-109000000D01*
%TO.N,Net-(Q4-Pad2)*%
X117900000Y-103275000D02*
X117900000Y-107275000D01*
X117900000Y-107275000D02*
X117900000Y-111225000D01*
%TO.N,Net-(Q5-Pad2)*%
X128400000Y-109300000D02*
X128400000Y-112250000D01*
X128400000Y-103800000D02*
X128400000Y-109300000D01*
%TO.N,Net-(Q6-Pad2)*%
X141000000Y-108200000D02*
X141000000Y-111650000D01*
X140800000Y-104500000D02*
X140800000Y-108000000D01*
%TO.N,Net-(Q7-Pad2)*%
X151700000Y-104700000D02*
X151700000Y-108250000D01*
X151700000Y-108250000D02*
X151700000Y-111700000D01*
%TO.N,Net-(Q8-Pad2)*%
X162450000Y-103050000D02*
X162450000Y-106200000D01*
X162000000Y-100500000D02*
X162500000Y-101000000D01*
X162000000Y-99000000D02*
X162000000Y-100500000D01*
X162500000Y-101000000D02*
X162500000Y-103000000D01*
%TO.N,Net-(Q12-Pad2)*%
X79248000Y-59052000D02*
X81300000Y-57000000D01*
X125476000Y-99060000D02*
X129540000Y-99060000D01*
X76950000Y-57000000D02*
X81300000Y-57000000D01*
X79248000Y-63500000D02*
X79248000Y-59052000D01*
%TO.N,Net-(R1-Pad2)*%
X54815000Y-76600000D02*
X55315000Y-77100000D01*
X54815000Y-74600000D02*
X54815000Y-76600000D01*
X55315000Y-77100000D02*
X56315000Y-77100000D01*
X69815000Y-78100000D02*
X70315000Y-78600000D01*
X70315000Y-78600000D02*
X72315000Y-78600000D01*
X69815000Y-72600000D02*
X69815000Y-78100000D01*
X60315000Y-71600000D02*
X60315000Y-74374999D01*
%TO.N,Net-(R3-Pad2)*%
X74015000Y-81700000D02*
X71215000Y-81700000D01*
X71215000Y-81700000D02*
X71015000Y-81700000D01*
X77315000Y-79600000D02*
X82315000Y-79600000D01*
X76115000Y-79600000D02*
X74015000Y-81700000D01*
X71015000Y-77700000D02*
X71015000Y-77134315D01*
X71015000Y-77134315D02*
X72184315Y-75965000D01*
X77315000Y-79600000D02*
X76115000Y-79600000D01*
%TO.N,Rel1*%
X104915000Y-95800000D02*
X107715000Y-93000000D01*
X94500000Y-101200000D02*
X99900000Y-95800000D01*
X81800000Y-111300000D02*
X91900000Y-101200000D01*
X91900000Y-101200000D02*
X94500000Y-101200000D01*
X99900000Y-95800000D02*
X104915000Y-95800000D01*
%TO.N,Rel2*%
X99800000Y-100000000D02*
X102500000Y-97300000D01*
X102500000Y-97300000D02*
X109900000Y-97300000D01*
X109900000Y-97300000D02*
X110255000Y-96945000D01*
X110255000Y-96945000D02*
X110255000Y-93000000D01*
%TO.N,Rel3*%
X112795000Y-93000000D02*
X112795000Y-98205000D01*
X106600000Y-104400000D02*
X112795000Y-98205000D01*
%TO.N,Rel4*%
X117300000Y-96800000D02*
X115600000Y-96800000D01*
X115335000Y-96535000D02*
X115335000Y-93000000D01*
X115600000Y-96800000D02*
X115335000Y-96535000D01*
X119900000Y-103275000D02*
X119900000Y-99400000D01*
X119900000Y-99400000D02*
X117300000Y-96800000D01*
%TO.N,Rel5*%
X125635480Y-102775480D02*
X117875000Y-95015000D01*
X129445480Y-102775480D02*
X125635480Y-102775480D01*
X130400000Y-103730000D02*
X129445480Y-102775480D01*
X117875000Y-95015000D02*
X117875000Y-93000000D01*
%TO.N,Rel6*%
X130810000Y-101600000D02*
X125730000Y-101600000D01*
X133710000Y-104500000D02*
X130810000Y-101600000D01*
X125730000Y-101600000D02*
X120415000Y-96285000D01*
X138800000Y-104500000D02*
X133710000Y-104500000D01*
X120415000Y-96285000D02*
X120415000Y-93000000D01*
%TO.N,Rel7*%
X148590000Y-102870000D02*
X149400000Y-103680000D01*
X138195000Y-93000000D02*
X138195000Y-96285000D01*
X144780000Y-102870000D02*
X148590000Y-102870000D01*
X138195000Y-96285000D02*
X144780000Y-102870000D01*
X149400000Y-103680000D02*
X149400000Y-104400000D01*
%TO.N,Rel8*%
X161544000Y-96012000D02*
X159004000Y-96012000D01*
X164000000Y-98468000D02*
X161544000Y-96012000D01*
%TO.N,IN1*%
X151384000Y-98552000D02*
X150895000Y-98063000D01*
X155448000Y-101092000D02*
X152908000Y-98552000D01*
X160020000Y-111252000D02*
X159004000Y-110236000D01*
X160020000Y-112268000D02*
X160020000Y-111252000D01*
X152908000Y-98552000D02*
X151384000Y-98552000D01*
X159004000Y-110236000D02*
X159004000Y-103632000D01*
X150895000Y-98063000D02*
X150895000Y-93000000D01*
X155448000Y-103632000D02*
X155448000Y-101092000D01*
%TO.N,IN3*%
X199700000Y-116200000D02*
X181488000Y-116200000D01*
X181488000Y-116200000D02*
X179324000Y-118364000D01*
X157988000Y-112268000D02*
X157538480Y-111818480D01*
X157538480Y-111818480D02*
X157538480Y-77782480D01*
X179324000Y-118364000D02*
X178816000Y-118364000D01*
X157538480Y-77782480D02*
X157480000Y-77724000D01*
%TO.N,IN2*%
X166595895Y-111976500D02*
X166595895Y-107724105D01*
X156464000Y-100584000D02*
X153416000Y-97536000D01*
X153416000Y-97536000D02*
X153435000Y-97517000D01*
X156464000Y-107696000D02*
X156464000Y-100584000D01*
X153435000Y-97517000D02*
X153435000Y-93000000D01*
X166595895Y-107724105D02*
X166624000Y-107696000D01*
%TO.N,IN4*%
X156210000Y-85090000D02*
X156210000Y-81280000D01*
%TO.N,IN7*%
X133350000Y-90170000D02*
X133115000Y-89935000D01*
X133115000Y-89935000D02*
X133115000Y-77760000D01*
%TO.N,IN6*%
X140208000Y-82804000D02*
X136144000Y-82804000D01*
X135636000Y-82296000D02*
X135655000Y-82277000D01*
X173228000Y-66548000D02*
X173228000Y-80772000D01*
X173276000Y-66500000D02*
X173228000Y-66548000D01*
X135655000Y-82277000D02*
X135655000Y-77760000D01*
X136144000Y-82804000D02*
X135636000Y-82296000D01*
%TO.N,IN8*%
X135691000Y-72644000D02*
X130575000Y-77760000D01*
X151892000Y-56388000D02*
X151892000Y-65222564D01*
X151892000Y-65222564D02*
X144470564Y-72644000D01*
X144470564Y-72644000D02*
X135691000Y-72644000D01*
%TO.N,AN2*%
X120650000Y-74930000D02*
X120415000Y-75165000D01*
X128270000Y-71120000D02*
X124460000Y-74930000D01*
X120415000Y-75165000D02*
X120415000Y-77760000D01*
X145288000Y-70612000D02*
X144780000Y-71120000D01*
X144780000Y-71120000D02*
X128270000Y-71120000D01*
X124460000Y-74930000D02*
X120650000Y-74930000D01*
%TO.N,AN3*%
X124720000Y-73400000D02*
X128270000Y-69850000D01*
X120600000Y-73400000D02*
X124720000Y-73400000D01*
X117875000Y-75165000D02*
X119640000Y-73400000D01*
X128270000Y-69850000D02*
X138430000Y-69850000D01*
X117875000Y-77760000D02*
X117875000Y-75165000D01*
X138430000Y-69850000D02*
X139700000Y-68580000D01*
X119640000Y-73400000D02*
X120600000Y-73400000D01*
%TO.N,AN4*%
X115335000Y-77760000D02*
X115335000Y-75165000D01*
X115335000Y-75165000D02*
X116840000Y-73660000D01*
X116840000Y-73660000D02*
X116840000Y-68580000D01*
%TO.N,C2*%
X128035000Y-93000000D02*
X128035000Y-81299000D01*
X103632000Y-81280000D02*
X103632000Y-69088000D01*
X97028000Y-65532000D02*
X97028000Y-61468000D01*
X97028000Y-61468000D02*
X94996000Y-59436000D01*
X102108000Y-67564000D02*
X99060000Y-67564000D01*
X103632000Y-69088000D02*
X102108000Y-67564000D01*
X94996000Y-59436000D02*
X94996000Y-53848000D01*
X99060000Y-67564000D02*
X97028000Y-65532000D01*
%TO.N,C1*%
X95250000Y-62230000D02*
X95250000Y-72390000D01*
%TO.N,C4*%
X122955000Y-94507000D02*
X122955000Y-93000000D01*
X128612000Y-96012000D02*
X124460000Y-96012000D01*
X124460000Y-96012000D02*
X122955000Y-94507000D01*
X131600000Y-99000000D02*
X128612000Y-96012000D01*
%TO.N,Net-(J25-Pad1)*%
X96520000Y-73660000D02*
X96520000Y-62475386D01*
X96012000Y-74168000D02*
X96520000Y-73660000D01*
X93980000Y-46519200D02*
X97418400Y-43080800D01*
X95004614Y-60960000D02*
X94996000Y-60960000D01*
X94996000Y-60960000D02*
X93980000Y-59944000D01*
X93980000Y-59944000D02*
X93980000Y-46519200D01*
X96520000Y-62475386D02*
X95004614Y-60960000D01*
X92964000Y-74168000D02*
X96012000Y-74168000D01*
%TO.N,Net-(D27-Pad1)*%
X223800000Y-134700000D02*
X223800000Y-118400000D01*
X223800000Y-118400000D02*
X220800000Y-115400000D01*
%TO.N,Net-(D28-Pad1)*%
X205740000Y-119380000D02*
X205740000Y-117340000D01*
%TO.N,Net-(D30-Pad1)*%
X213500000Y-97200000D02*
X213500000Y-98920000D01*
%TO.N,Net-(D36-Pad1)*%
X214884000Y-88900000D02*
X214884000Y-79248000D01*
%TO.N,Net-(D37-Pad1)*%
X213360000Y-81788000D02*
X213360000Y-82804000D01*
X214124520Y-86475480D02*
X213100000Y-87500000D01*
X217424000Y-76200000D02*
X213360000Y-76200000D01*
X214124520Y-83568520D02*
X214124520Y-86475480D01*
X221488000Y-72136000D02*
X217424000Y-76200000D01*
X221488000Y-62992000D02*
X221488000Y-72136000D01*
X219964000Y-61468000D02*
X221488000Y-62992000D01*
X213360000Y-82804000D02*
X214124520Y-83568520D01*
X219964000Y-57912000D02*
X219964000Y-61468000D01*
%TO.N,Net-(BZ1-Pad2)*%
X128200000Y-63000000D02*
X128200000Y-66250000D01*
X129950000Y-66250000D02*
X132200000Y-64000000D01*
X121365000Y-60200000D02*
X125400000Y-60200000D01*
X132200000Y-64000000D02*
X132200000Y-59400000D01*
X128200000Y-66250000D02*
X129950000Y-66250000D01*
X125400000Y-60200000D02*
X128200000Y-63000000D01*
%TO.N,Net-(BZ1-Pad1)*%
X138700000Y-64500000D02*
X134112000Y-69088000D01*
X111744000Y-72374000D02*
X111760000Y-72390000D01*
X142500000Y-66250000D02*
X140250000Y-66250000D01*
X138700000Y-64700000D02*
X138700000Y-64500000D01*
X140250000Y-66250000D02*
X138700000Y-64700000D01*
X138700000Y-64500000D02*
X138700000Y-59400000D01*
X127762000Y-69088000D02*
X124460000Y-72390000D01*
X134112000Y-69088000D02*
X127762000Y-69088000D01*
X111744000Y-69596000D02*
X111744000Y-72374000D01*
%TO.N,Net-(C17-Pad1)*%
X193647200Y-103703200D02*
X193647200Y-107554600D01*
X197200000Y-98900000D02*
X197200000Y-103300000D01*
X193647200Y-103703200D02*
X196796800Y-103703200D01*
%TO.N,Net-(C18-Pad1)*%
X178254000Y-92769000D02*
X180254000Y-94769000D01*
X182912200Y-88055000D02*
X182912200Y-92927200D01*
X180254000Y-94769000D02*
X180997800Y-94769000D01*
X182912200Y-92927200D02*
X181070400Y-94769000D01*
X176629000Y-92769000D02*
X178254000Y-92769000D01*
X184270800Y-92927200D02*
X186458800Y-95115200D01*
X182912200Y-92927200D02*
X184270800Y-92927200D01*
%TO.N,Net-(C19-Pad1)*%
X195422800Y-77561500D02*
X195422800Y-80167200D01*
X195422800Y-80167200D02*
X195422800Y-81955700D01*
%TO.N,Net-(C20-Pad1)*%
X172839400Y-112839400D02*
X174500000Y-114500000D01*
X172839400Y-112839400D02*
X172794000Y-112839400D01*
X178219200Y-114500000D02*
X178815000Y-115095800D01*
X170893200Y-114740200D02*
X168546800Y-114740200D01*
X172794000Y-112839400D02*
X170893200Y-114740200D01*
X174500000Y-114500000D02*
X178219200Y-114500000D01*
X172794000Y-105506000D02*
X172794000Y-112839400D01*
X173400000Y-104900000D02*
X172794000Y-105506000D01*
%TO.N,Net-(D43-Pad1)*%
X110500000Y-60442500D02*
X111973300Y-58969200D01*
X111973300Y-58969200D02*
X113204100Y-60200000D01*
X110500000Y-62600000D02*
X110500000Y-60442500D01*
X113204100Y-60200000D02*
X118825000Y-60200000D01*
%TO.N,Net-(D43-Pad2)*%
X109923300Y-58969200D02*
X106579900Y-58969200D01*
%TO.N,Net-(D44-Pad1)*%
X205740000Y-81779386D02*
X207772000Y-79747386D01*
X212344000Y-75704913D02*
X212344000Y-71844000D01*
X204724520Y-82803480D02*
X205740000Y-81788000D01*
X205740000Y-81788000D02*
X205740000Y-81779386D01*
X204724520Y-84835480D02*
X204724520Y-82803480D01*
X210312000Y-76420799D02*
X211628114Y-76420799D01*
X199200000Y-89344000D02*
X202692000Y-85852000D01*
X202692000Y-85852000D02*
X203708000Y-85852000D01*
X203708000Y-85852000D02*
X204724520Y-84835480D01*
X211628114Y-76420799D02*
X212344000Y-75704913D01*
X207772000Y-79747386D02*
X207772000Y-78740000D01*
X199200000Y-98900000D02*
X199200000Y-89344000D01*
%TO.N,Net-(D44-Pad2)*%
X217520000Y-44900000D02*
X219770000Y-42650000D01*
X198120000Y-61325489D02*
X193182511Y-61325489D01*
X209900000Y-53500000D02*
X209900000Y-50100000D01*
X212100000Y-65600000D02*
X208476000Y-61976000D01*
X193182511Y-61325489D02*
X192600000Y-61908000D01*
X215100000Y-44900000D02*
X217520000Y-44900000D01*
X209900000Y-50100000D02*
X215100000Y-44900000D01*
X208476000Y-61976000D02*
X207772000Y-61976000D01*
X192600000Y-61908000D02*
X192600000Y-65100000D01*
X207772000Y-56388000D02*
X209900000Y-54260000D01*
%TO.N,Net-(D45-Pad1)*%
X193040000Y-74930000D02*
X188458800Y-79511200D01*
X198120000Y-76200000D02*
X196850000Y-74930000D01*
X206100000Y-72030000D02*
X201930000Y-76200000D01*
X196850000Y-74930000D02*
X193040000Y-74930000D01*
X201930000Y-76200000D02*
X198120000Y-76200000D01*
X188458800Y-79511200D02*
X188458800Y-95115200D01*
%TO.N,Net-(D45-Pad2)*%
X201930000Y-67310000D02*
X203200000Y-66040000D01*
X203000000Y-53500000D02*
X203000000Y-51200000D01*
X195580000Y-67310000D02*
X201930000Y-67310000D01*
X203000000Y-51200000D02*
X205000000Y-49200000D01*
X192900000Y-69990000D02*
X195580000Y-67310000D01*
X203200000Y-66040000D02*
X199644000Y-62484000D01*
X199644000Y-55372000D02*
X201516000Y-53500000D01*
X199644000Y-62484000D02*
X199644000Y-55372000D01*
X205000000Y-49200000D02*
X208220000Y-49200000D01*
X203460000Y-66300000D02*
X206100000Y-66300000D01*
X192900000Y-71200000D02*
X192900000Y-69990000D01*
X203200000Y-66040000D02*
X203460000Y-66300000D01*
X201516000Y-53500000D02*
X203000000Y-53500000D01*
X208220000Y-49200000D02*
X214770000Y-42650000D01*
%TO.N,Net-(D48-Pad2)*%
X209770000Y-44430000D02*
X209770000Y-42650000D01*
X195700000Y-53400000D02*
X197100000Y-53400000D01*
X202200000Y-48300000D02*
X205900000Y-48300000D01*
X205900000Y-48300000D02*
X209770000Y-44430000D01*
X197100000Y-53400000D02*
X202200000Y-48300000D01*
%TO.N,Net-(D49-Pad1)*%
X217100000Y-53300000D02*
X217100000Y-47500000D01*
X219500000Y-45100000D02*
X222320000Y-45100000D01*
X214376000Y-68300000D02*
X214376000Y-72644000D01*
X217100000Y-47500000D02*
X219500000Y-45100000D01*
X218400000Y-65900000D02*
X216776000Y-65900000D01*
X216776000Y-65900000D02*
X214376000Y-68300000D01*
X206756000Y-82544000D02*
X205900000Y-83400000D01*
X216776000Y-65900000D02*
X213360000Y-62484000D01*
X206756000Y-81788000D02*
X206756000Y-82544000D01*
X213360000Y-55372000D02*
X215432000Y-53300000D01*
X222320000Y-45100000D02*
X224770000Y-42650000D01*
X213360000Y-62484000D02*
X213360000Y-55372000D01*
X212852000Y-83820000D02*
X208788000Y-83820000D01*
X215432000Y-53300000D02*
X217100000Y-53300000D01*
%TO.N,Net-(D50-Pad1)*%
X170180000Y-53848000D02*
X170688000Y-53340000D01*
X224700000Y-64172000D02*
X221488000Y-60960000D01*
X228700000Y-45800000D02*
X229770000Y-44730000D01*
X224100000Y-53600000D02*
X224100000Y-47400000D01*
X225700000Y-45800000D02*
X228700000Y-45800000D01*
X224700000Y-65800000D02*
X224700000Y-64172000D01*
X221488000Y-56896000D02*
X224100000Y-54284000D01*
X221996000Y-50292000D02*
X221996000Y-51496000D01*
X224100000Y-47400000D02*
X225700000Y-45800000D01*
X221996000Y-51496000D02*
X224100000Y-53600000D01*
X221488000Y-60960000D02*
X221488000Y-56896000D01*
X180340000Y-53340000D02*
X186436000Y-47244000D01*
X170180000Y-65912283D02*
X170180000Y-53848000D01*
X229770000Y-44730000D02*
X229770000Y-42650000D01*
X169360700Y-72758200D02*
X169360700Y-66731583D01*
X169360700Y-66731583D02*
X170180000Y-65912283D01*
X170688000Y-53340000D02*
X180340000Y-53340000D01*
X186436000Y-47244000D02*
X204216000Y-47244000D01*
%TO.N,Net-(D51-Pad1)*%
X213360000Y-74930000D02*
X216990000Y-71300000D01*
X216990000Y-71300000D02*
X218400000Y-71300000D01*
%TO.N,Net-(D52-Pad1)*%
X191008000Y-100584000D02*
X191008000Y-81788000D01*
X218684000Y-77216000D02*
X224700000Y-71200000D01*
X176784000Y-111064800D02*
X176784000Y-105664000D01*
X176784000Y-105664000D02*
X177292000Y-105664000D01*
X180815000Y-115095800D02*
X176784000Y-111064800D01*
X204823554Y-79764614D02*
X207372168Y-77216000D01*
X200660000Y-79764614D02*
X204823554Y-79764614D01*
X207372168Y-77216000D02*
X218684000Y-77216000D01*
%TO.N,Net-(JP2-Pad1)*%
X159474511Y-88429489D02*
X159474511Y-86397489D01*
X167132000Y-102616000D02*
X167132000Y-100076000D01*
X167132000Y-100076000D02*
X157988000Y-90932000D01*
X157988000Y-90932000D02*
X157988000Y-89916000D01*
X157988000Y-89916000D02*
X159474511Y-88429489D01*
X159474511Y-86397489D02*
X164592000Y-81280000D01*
X164592000Y-81280000D02*
X164592000Y-78232000D01*
%TO.N,GPIO3*%
X145815000Y-100095000D02*
X145815000Y-93000000D01*
X147320000Y-101600000D02*
X145815000Y-100095000D01*
X154940000Y-110744000D02*
X154940000Y-105156000D01*
X154940000Y-105156000D02*
X151384000Y-101600000D01*
X151384000Y-101600000D02*
X147320000Y-101600000D01*
%TO.N,Net-(JP2-Pad3)*%
X180920000Y-109500000D02*
X180920000Y-107370000D01*
X180920000Y-107370000D02*
X181610000Y-106680000D01*
X189230000Y-106680000D02*
X191647200Y-104262800D01*
X181610000Y-106680000D02*
X189230000Y-106680000D01*
%TO.N,Net-(JP3-Pad3)*%
X180960000Y-80055000D02*
X180960000Y-88007200D01*
%TO.N,GPIO4*%
X145815000Y-79775000D02*
X145815000Y-77760000D01*
X146304000Y-80264000D02*
X145815000Y-79775000D01*
X153924000Y-80264000D02*
X146304000Y-80264000D01*
%TO.N,Net-(JP4-Pad1)*%
X155448000Y-96012000D02*
X155448000Y-72707500D01*
X155448000Y-72707500D02*
X156286300Y-71869200D01*
X156464000Y-97028000D02*
X155448000Y-96012000D01*
%TO.N,GPIO1*%
X142240000Y-98552000D02*
X140735000Y-97047000D01*
X140735000Y-97047000D02*
X140735000Y-93000000D01*
%TO.N,Net-(JP4-Pad3)*%
X173500000Y-103000000D02*
X180895000Y-103000000D01*
%TO.N,Net-(JP5-Pad3)*%
X180960000Y-77104000D02*
X180960000Y-72555000D01*
X192186500Y-77561500D02*
X191008000Y-78740000D01*
X180848000Y-77216000D02*
X180960000Y-77104000D01*
X193422800Y-77561500D02*
X192186500Y-77561500D01*
%TO.N,GPIO2*%
X183500000Y-76088000D02*
X183500000Y-72555000D01*
X183388000Y-76200000D02*
X183500000Y-76088000D01*
X143275000Y-93000000D02*
X143275000Y-86379000D01*
X175260000Y-85852000D02*
X175260000Y-76200000D01*
%TO.N,Net-(JP5-Pad1)*%
X186040000Y-68540000D02*
X186040000Y-72555000D01*
X185200000Y-67700000D02*
X186040000Y-68540000D01*
%TO.N,Net-(Q13-Pad2)*%
X114847300Y-66063600D02*
X122707700Y-66063600D01*
X110763600Y-66063600D02*
X114847300Y-66063600D01*
X122707700Y-66063600D02*
X123385300Y-65386000D01*
X109550000Y-64850000D02*
X110763600Y-66063600D01*
%TO.N,Net-(Q14-Pad2)*%
X192010000Y-72150000D02*
X191516000Y-72644000D01*
X194900000Y-72150000D02*
X192010000Y-72150000D01*
%TO.N,Net-(Q15-Pad2)*%
X190002000Y-66050000D02*
X188468000Y-64516000D01*
X172212000Y-64516000D02*
X171704000Y-65024000D01*
X188468000Y-64516000D02*
X172212000Y-64516000D01*
X171704000Y-65024000D02*
X171704000Y-77724000D01*
X194600000Y-66050000D02*
X196840000Y-66050000D01*
X194600000Y-66050000D02*
X190002000Y-66050000D01*
%TO.N,Net-(Q16-Pad2)*%
X201450000Y-82450000D02*
X203900000Y-82450000D01*
X190500000Y-73660000D02*
X198120000Y-73660000D01*
X187200000Y-67700000D02*
X190500000Y-71000000D01*
X201300000Y-81920000D02*
X199390000Y-80010000D01*
X201300000Y-82600000D02*
X201300000Y-81920000D01*
X190500000Y-71000000D02*
X190500000Y-73660000D01*
X198120000Y-73660000D02*
X199390000Y-74930000D01*
%TO.N,Net-(Q17-Pad2)*%
X162874300Y-71926600D02*
X167242300Y-71926600D01*
X158286300Y-71869200D02*
X162816900Y-71869200D01*
%TO.N,Net-(R74-Pad2)*%
X112795000Y-75165000D02*
X112795000Y-77760000D01*
X114847300Y-73112700D02*
X112795000Y-75165000D01*
X114847300Y-68063600D02*
X114847300Y-73112700D01*
%TO.N,Net-(C5-Pad1)*%
X80515000Y-70100000D02*
X79598370Y-69183370D01*
D40*
X77315000Y-81600000D02*
X77315000Y-84600000D01*
X97930000Y-78600000D02*
X100315000Y-78600000D01*
D41*
X77315000Y-81600000D02*
X80015000Y-81600000D01*
D40*
X92730000Y-83800000D02*
X97930000Y-78600000D01*
X77724000Y-84836000D02*
X70612000Y-84836000D01*
X91315000Y-88000000D02*
X90415000Y-88900000D01*
X77315000Y-84600000D02*
X90515000Y-84600000D01*
D42*
X79756000Y-84288000D02*
X79796000Y-84328000D01*
D40*
X90515000Y-84600000D02*
X91315000Y-83800000D01*
D42*
X79796000Y-84328000D02*
X90787000Y-84328000D01*
X79756000Y-92586000D02*
X79756000Y-84288000D01*
X90787000Y-84328000D02*
X91315000Y-83800000D01*
D40*
X91315000Y-83800000D02*
X92730000Y-83800000D01*
D41*
X80515000Y-71900000D02*
X80515000Y-70100000D01*
D40*
X70612000Y-84836000D02*
X67840000Y-82064000D01*
X67840000Y-82064000D02*
X67840000Y-78505000D01*
X91315000Y-83800000D02*
X91315000Y-88000000D01*
D41*
%TO.N,Net-(J2-Pad4)*%
X105175000Y-77760000D02*
X105175000Y-84309000D01*
X85852000Y-101600000D02*
X57404000Y-101600000D01*
X92456000Y-97028000D02*
X90424000Y-97028000D01*
X105175000Y-84309000D02*
X92456000Y-97028000D01*
X90424000Y-97028000D02*
X85852000Y-101600000D01*
%TO.N,Net-(J2-Pad5)*%
X68580000Y-102616000D02*
X62206000Y-108990000D01*
X62206000Y-108990000D02*
X53800000Y-108990000D01*
X107715000Y-77760000D02*
X107715000Y-84055000D01*
X98298000Y-92710000D02*
X92964000Y-98044000D01*
X99060000Y-92710000D02*
X98298000Y-92710000D01*
X92964000Y-98044000D02*
X90932000Y-98044000D01*
X86360000Y-102616000D02*
X68580000Y-102616000D01*
X90932000Y-98044000D02*
X86360000Y-102616000D01*
X107715000Y-84055000D02*
X99060000Y-92710000D01*
%TD*%
M02*
