%TF.GenerationSoftware,KiCad,Pcbnew,(6.0.0)*%
%TF.CreationDate,2022-03-09T19:11:31+01:00*%
%TF.ProjectId,automate,6175746f-6d61-4746-952e-6b696361645f,rev?*%
%TF.SameCoordinates,Original*%
%TF.FileFunction,Soldermask,Top*%
%TF.FilePolarity,Negative*%
%FSLAX46Y46*%
G04 Gerber Fmt 4.6, Leading zero omitted, Abs format (unit mm)*
G04 Created by KiCad (PCBNEW (6.0.0)) date 2022-03-09 19:11:31*
%MOMM*%
%LPD*%
G01*
G04 APERTURE LIST*
G04 Aperture macros list*
%AMRoundRect*
0 Rectangle with rounded corners*
0 $1 Rounding radius*
0 $2 $3 $4 $5 $6 $7 $8 $9 X,Y pos of 4 corners*
0 Add a 4 corners polygon primitive as box body*
4,1,4,$2,$3,$4,$5,$6,$7,$8,$9,$2,$3,0*
0 Add four circle primitives for the rounded corners*
1,1,$1+$1,$2,$3*
1,1,$1+$1,$4,$5*
1,1,$1+$1,$6,$7*
1,1,$1+$1,$8,$9*
0 Add four rect primitives between the rounded corners*
20,1,$1+$1,$2,$3,$4,$5,0*
20,1,$1+$1,$4,$5,$6,$7,0*
20,1,$1+$1,$6,$7,$8,$9,0*
20,1,$1+$1,$8,$9,$2,$3,0*%
G04 Aperture macros list end*
%ADD10RoundRect,0.249999X0.350001X0.450001X-0.350001X0.450001X-0.350001X-0.450001X0.350001X-0.450001X0*%
%ADD11RoundRect,0.249999X-0.350001X-0.450001X0.350001X-0.450001X0.350001X0.450001X-0.350001X0.450001X0*%
%ADD12RoundRect,0.249999X0.450001X-0.350001X0.450001X0.350001X-0.450001X0.350001X-0.450001X-0.350001X0*%
%ADD13R,3.500000X2.300000*%
%ADD14R,2.500000X2.500000*%
%ADD15C,2.500000*%
%ADD16RoundRect,0.249999X-0.450001X0.350001X-0.450001X-0.350001X0.450001X-0.350001X0.450001X0.350001X0*%
%ADD17RoundRect,0.150000X-0.825000X-0.150000X0.825000X-0.150000X0.825000X0.150000X-0.825000X0.150000X0*%
%ADD18R,1.600000X2.400000*%
%ADD19O,1.600000X2.400000*%
%ADD20C,3.000000*%
%ADD21R,2.900000X5.400000*%
%ADD22R,0.800000X0.900000*%
%ADD23R,0.900000X0.800000*%
%ADD24RoundRect,0.249600X1.712900X0.550400X-1.712900X0.550400X-1.712900X-0.550400X1.712900X-0.550400X0*%
%ADD25RoundRect,0.249600X0.550400X-1.712900X0.550400X1.712900X-0.550400X1.712900X-0.550400X-1.712900X0*%
%ADD26R,2.300000X3.500000*%
%ADD27RoundRect,0.249999X0.450001X-0.325001X0.450001X0.325001X-0.450001X0.325001X-0.450001X-0.325001X0*%
%ADD28RoundRect,0.249999X0.325001X0.450001X-0.325001X0.450001X-0.325001X-0.450001X0.325001X-0.450001X0*%
%ADD29R,1.700000X1.700000*%
%ADD30O,1.700000X1.700000*%
%ADD31C,2.000000*%
%ADD32C,3.200000*%
%ADD33RoundRect,0.250000X0.400000X0.625000X-0.400000X0.625000X-0.400000X-0.625000X0.400000X-0.625000X0*%
%ADD34R,2.000000X2.000000*%
%ADD35R,2.200000X3.000000*%
%ADD36RoundRect,0.250000X-0.350000X-0.450000X0.350000X-0.450000X0.350000X0.450000X-0.350000X0.450000X0*%
G04 APERTURE END LIST*
D10*
%TO.C,C2*%
X57315000Y-69600000D03*
X55315000Y-69600000D03*
%TD*%
D11*
%TO.C,C3*%
X76315000Y-74600000D03*
X78315000Y-74600000D03*
%TD*%
D10*
%TO.C,C4*%
X67315000Y-69600000D03*
X65315000Y-69600000D03*
%TD*%
D12*
%TO.C,C6*%
X100315000Y-78600000D03*
X100315000Y-76600000D03*
%TD*%
D10*
%TO.C,C7*%
X170400000Y-82300000D03*
X168400000Y-82300000D03*
%TD*%
D11*
%TO.C,C8*%
X168000000Y-96300000D03*
X170000000Y-96300000D03*
%TD*%
D10*
%TO.C,C9*%
X220600000Y-111300000D03*
X218600000Y-111300000D03*
%TD*%
D13*
%TO.C,D14*%
X127500000Y-128100000D03*
X132900000Y-128100000D03*
%TD*%
D14*
%TO.C,J1*%
X70418400Y-43080800D03*
D15*
X65418400Y-43080800D03*
%TD*%
D14*
%TO.C,J3*%
X200200000Y-42900000D03*
D15*
X195200000Y-42900000D03*
X190200000Y-42900000D03*
X185200000Y-42900000D03*
%TD*%
D14*
%TO.C,J4*%
X177200000Y-42900000D03*
D15*
X172200000Y-42900000D03*
X167200000Y-42900000D03*
X162200000Y-42900000D03*
%TD*%
D14*
%TO.C,J5*%
X60600000Y-159700000D03*
D15*
X65600000Y-159700000D03*
X70600000Y-159700000D03*
%TD*%
D14*
%TO.C,J6*%
X82200000Y-159800000D03*
D15*
X87200000Y-159800000D03*
X92200000Y-159800000D03*
%TD*%
D14*
%TO.C,J7*%
X103200000Y-159800000D03*
D15*
X108200000Y-159800000D03*
X113200000Y-159800000D03*
%TD*%
D14*
%TO.C,J8*%
X124200000Y-159800000D03*
D15*
X129200000Y-159800000D03*
X134200000Y-159800000D03*
%TD*%
D14*
%TO.C,J9*%
X144200000Y-159800000D03*
D15*
X149200000Y-159800000D03*
X154200000Y-159800000D03*
%TD*%
D14*
%TO.C,J10*%
X166100000Y-159500000D03*
D15*
X171100000Y-159500000D03*
X176100000Y-159500000D03*
%TD*%
D14*
%TO.C,J11*%
X186100000Y-159500000D03*
D15*
X191100000Y-159500000D03*
X196100000Y-159500000D03*
%TD*%
D14*
%TO.C,J12*%
X205900000Y-159400000D03*
D15*
X210900000Y-159400000D03*
X215900000Y-159400000D03*
%TD*%
D14*
%TO.C,J13*%
X235300000Y-154400000D03*
D15*
X235300000Y-149400000D03*
%TD*%
D14*
%TO.C,J14*%
X235300000Y-141400000D03*
D15*
X235300000Y-136400000D03*
%TD*%
D14*
%TO.C,J15*%
X235300000Y-128400000D03*
D15*
X235300000Y-123400000D03*
%TD*%
D14*
%TO.C,J16*%
X235300000Y-115400000D03*
D15*
X235300000Y-110400000D03*
%TD*%
D14*
%TO.C,J17*%
X235300000Y-102400000D03*
D15*
X235300000Y-97400000D03*
%TD*%
D14*
%TO.C,J18*%
X235300000Y-89400000D03*
D15*
X235300000Y-84400000D03*
%TD*%
D14*
%TO.C,J19*%
X235300000Y-76400000D03*
D15*
X235300000Y-71400000D03*
%TD*%
D14*
%TO.C,J20*%
X235300000Y-63400000D03*
D15*
X235300000Y-58400000D03*
%TD*%
D14*
%TO.C,J21*%
X111190000Y-42950000D03*
D15*
X106190000Y-42950000D03*
%TD*%
D14*
%TO.C,J22*%
X125190000Y-42950000D03*
D15*
X120190000Y-42950000D03*
%TD*%
D14*
%TO.C,J23*%
X138690000Y-42950000D03*
D15*
X133690000Y-42950000D03*
%TD*%
D14*
%TO.C,J24*%
X153690000Y-42950000D03*
D15*
X148690000Y-42950000D03*
%TD*%
D14*
%TO.C,J25*%
X97418400Y-43080800D03*
D15*
X92418400Y-43080800D03*
X87418400Y-43080800D03*
X82418400Y-43080800D03*
X77418400Y-43080800D03*
%TD*%
D11*
%TO.C,R1*%
X58540001Y-74600000D03*
X60540001Y-74600000D03*
%TD*%
D10*
%TO.C,R2*%
X54815000Y-74600000D03*
X52815000Y-74600000D03*
%TD*%
D12*
%TO.C,R3*%
X77315000Y-81600000D03*
X77315000Y-79600000D03*
%TD*%
%TO.C,R4*%
X82315000Y-79600000D03*
X82315000Y-77600000D03*
%TD*%
D16*
%TO.C,R5*%
X86315000Y-70600000D03*
X86315000Y-72600000D03*
%TD*%
%TO.C,R6*%
X162000000Y-88300000D03*
X162000000Y-90300000D03*
%TD*%
D11*
%TO.C,R7*%
X57600000Y-127700000D03*
X59600000Y-127700000D03*
%TD*%
%TO.C,R9*%
X72850000Y-108300000D03*
X74850000Y-108300000D03*
%TD*%
%TO.C,R10*%
X78200000Y-127800000D03*
X80200000Y-127800000D03*
%TD*%
%TO.C,R11*%
X97800000Y-100000000D03*
X99800000Y-100000000D03*
%TD*%
%TO.C,R12*%
X95800000Y-104500000D03*
X97800000Y-104500000D03*
%TD*%
%TO.C,R13*%
X100200000Y-127800000D03*
X102200000Y-127800000D03*
%TD*%
%TO.C,R14*%
X105000000Y-104500000D03*
X107000000Y-104500000D03*
%TD*%
%TO.C,R15*%
X103000000Y-109000000D03*
X105000000Y-109000000D03*
%TD*%
D16*
%TO.C,R16*%
X122200000Y-126800000D03*
X122200000Y-128800000D03*
%TD*%
D11*
%TO.C,R17*%
X117900000Y-103275000D03*
X119900000Y-103275000D03*
%TD*%
%TO.C,R18*%
X115900000Y-107275000D03*
X117900000Y-107275000D03*
%TD*%
D16*
%TO.C,R19*%
X140208000Y-127524000D03*
X140208000Y-129524000D03*
%TD*%
D11*
%TO.C,R20*%
X128400000Y-103800000D03*
X130400000Y-103800000D03*
%TD*%
%TO.C,R21*%
X126400000Y-109300000D03*
X128400000Y-109300000D03*
%TD*%
D16*
%TO.C,R22*%
X163576000Y-127000000D03*
X163576000Y-129000000D03*
%TD*%
D10*
%TO.C,R23*%
X140800000Y-104500000D03*
X138800000Y-104500000D03*
%TD*%
D11*
%TO.C,R24*%
X139000000Y-108200000D03*
X141000000Y-108200000D03*
%TD*%
D16*
%TO.C,R25*%
X181356000Y-126508000D03*
X181356000Y-128508000D03*
%TD*%
D10*
%TO.C,R26*%
X151400000Y-104400000D03*
X149400000Y-104400000D03*
%TD*%
D11*
%TO.C,R27*%
X149700000Y-108250000D03*
X151700000Y-108250000D03*
%TD*%
D10*
%TO.C,R28*%
X201400000Y-127000000D03*
X199400000Y-127000000D03*
%TD*%
D11*
%TO.C,R29*%
X162000000Y-99000000D03*
X164000000Y-99000000D03*
%TD*%
%TO.C,R30*%
X160500000Y-103000000D03*
X162500000Y-103000000D03*
%TD*%
%TO.C,R31*%
X218800000Y-115400000D03*
X220800000Y-115400000D03*
%TD*%
D16*
%TO.C,R32*%
X205700000Y-115300000D03*
X205700000Y-117300000D03*
%TD*%
D10*
%TO.C,R34*%
X200500000Y-109250000D03*
X198500000Y-109250000D03*
%TD*%
D16*
%TO.C,R35*%
X213500000Y-95200000D03*
X213500000Y-97200000D03*
%TD*%
D11*
%TO.C,R36*%
X218400000Y-120800000D03*
X220400000Y-120800000D03*
%TD*%
D10*
%TO.C,R37*%
X211800000Y-115800000D03*
X209800000Y-115800000D03*
%TD*%
D11*
%TO.C,R40*%
X199700000Y-116200000D03*
X201700000Y-116200000D03*
%TD*%
D16*
%TO.C,R45*%
X213100000Y-85500000D03*
X213100000Y-87500000D03*
%TD*%
D12*
%TO.C,R59*%
X120600000Y-73400000D03*
X120600000Y-71400000D03*
%TD*%
D16*
%TO.C,R68*%
X76900000Y-56950000D03*
X76900000Y-58950000D03*
%TD*%
D11*
%TO.C,R70*%
X129600000Y-99000000D03*
X131600000Y-99000000D03*
%TD*%
D17*
%TO.C,U1*%
X67840000Y-74695000D03*
X67840000Y-75965000D03*
X67840000Y-77235000D03*
X67840000Y-78505000D03*
X72790000Y-78505000D03*
X72790000Y-77235000D03*
X72790000Y-75965000D03*
X72790000Y-74695000D03*
%TD*%
D18*
%TO.C,U2*%
X105175000Y-93000000D03*
D19*
X107715000Y-93000000D03*
X110255000Y-93000000D03*
X112795000Y-93000000D03*
X115335000Y-93000000D03*
X117875000Y-93000000D03*
X120415000Y-93000000D03*
X122955000Y-93000000D03*
X125495000Y-93000000D03*
X128035000Y-93000000D03*
X130575000Y-93000000D03*
X133115000Y-93000000D03*
X135655000Y-93000000D03*
X138195000Y-93000000D03*
X140735000Y-93000000D03*
X143275000Y-93000000D03*
X145815000Y-93000000D03*
X148355000Y-93000000D03*
X150895000Y-93000000D03*
X153435000Y-93000000D03*
X153435000Y-77760000D03*
X150895000Y-77760000D03*
X148355000Y-77760000D03*
X145815000Y-77760000D03*
X143275000Y-77760000D03*
X140735000Y-77760000D03*
X138195000Y-77760000D03*
X135655000Y-77760000D03*
X133115000Y-77760000D03*
X130575000Y-77760000D03*
X128035000Y-77760000D03*
X125495000Y-77760000D03*
X122955000Y-77760000D03*
X120415000Y-77760000D03*
X117875000Y-77760000D03*
X115335000Y-77760000D03*
X112795000Y-77760000D03*
X110255000Y-77760000D03*
X107715000Y-77760000D03*
X105175000Y-77760000D03*
%TD*%
D20*
%TO.C,K1*%
X65600000Y-133800000D03*
X71600000Y-148000000D03*
X59600000Y-148000000D03*
X71600000Y-135800000D03*
X59600000Y-135800000D03*
%TD*%
%TO.C,K2*%
X86200000Y-133800000D03*
X92200000Y-148000000D03*
X80200000Y-148000000D03*
X92200000Y-135800000D03*
X80200000Y-135800000D03*
%TD*%
%TO.C,K3*%
X108200000Y-133800000D03*
X114200000Y-148000000D03*
X102200000Y-148000000D03*
X114200000Y-135800000D03*
X102200000Y-135800000D03*
%TD*%
%TO.C,K4*%
X128200000Y-133800000D03*
X134200000Y-148000000D03*
X122200000Y-148000000D03*
X134200000Y-135800000D03*
X122200000Y-135800000D03*
%TD*%
%TO.C,K5*%
X149200000Y-133800000D03*
X155200000Y-148000000D03*
X143200000Y-148000000D03*
X155200000Y-135800000D03*
X143200000Y-135800000D03*
%TD*%
%TO.C,K6*%
X171100000Y-133500000D03*
X177100000Y-147700000D03*
X165100000Y-147700000D03*
X177100000Y-135500000D03*
X165100000Y-135500000D03*
%TD*%
%TO.C,K7*%
X191100000Y-133500000D03*
X197100000Y-147700000D03*
X185100000Y-147700000D03*
X197100000Y-135500000D03*
X185100000Y-135500000D03*
%TD*%
%TO.C,K8*%
X210900000Y-133400000D03*
X216900000Y-147600000D03*
X204900000Y-147600000D03*
X216900000Y-135400000D03*
X204900000Y-135400000D03*
%TD*%
D21*
%TO.C,L1*%
X70234000Y-92964000D03*
X80134000Y-92964000D03*
%TD*%
D22*
%TO.C,Q1*%
X72950000Y-111400000D03*
X74850000Y-111400000D03*
X73900000Y-113400000D03*
%TD*%
%TO.C,Q2*%
X95750000Y-108800000D03*
X97650000Y-108800000D03*
X96700000Y-110800000D03*
%TD*%
%TO.C,Q3*%
X103050000Y-112500000D03*
X104950000Y-112500000D03*
X104000000Y-114500000D03*
%TD*%
%TO.C,Q4*%
X115950000Y-111275000D03*
X117850000Y-111275000D03*
X116900000Y-113275000D03*
%TD*%
%TO.C,Q5*%
X126450000Y-112300000D03*
X128350000Y-112300000D03*
X127400000Y-114300000D03*
%TD*%
%TO.C,Q6*%
X139050000Y-111700000D03*
X140950000Y-111700000D03*
X140000000Y-113700000D03*
%TD*%
%TO.C,Q7*%
X149750000Y-111750000D03*
X151650000Y-111750000D03*
X150700000Y-113750000D03*
%TD*%
%TO.C,Q8*%
X160550000Y-106200000D03*
X162450000Y-106200000D03*
X161500000Y-108200000D03*
%TD*%
D23*
%TO.C,Q12*%
X81300000Y-58900000D03*
X81300000Y-57000000D03*
X83300000Y-57950000D03*
%TD*%
D24*
%TO.C,C1*%
X59515000Y-62100000D03*
X53115000Y-62100000D03*
%TD*%
D25*
%TO.C,C5*%
X91315000Y-83800000D03*
X91315000Y-77400000D03*
%TD*%
D13*
%TO.C,D3*%
X53115000Y-82600000D03*
X58515000Y-82600000D03*
%TD*%
%TO.C,D4*%
X79215000Y-68100000D03*
X73815000Y-68100000D03*
%TD*%
%TO.C,D7*%
X63900000Y-128700000D03*
X69300000Y-128700000D03*
%TD*%
%TO.C,D9*%
X84200000Y-127800000D03*
X89600000Y-127800000D03*
%TD*%
%TO.C,D11*%
X106500000Y-127800000D03*
X111900000Y-127800000D03*
%TD*%
%TO.C,D16*%
X147400000Y-127200000D03*
X152800000Y-127200000D03*
%TD*%
%TO.C,D18*%
X169000000Y-127500000D03*
X174400000Y-127500000D03*
%TD*%
%TO.C,D20*%
X187400000Y-127500000D03*
X192800000Y-127500000D03*
%TD*%
%TO.C,D22*%
X208600000Y-127100000D03*
X214000000Y-127100000D03*
%TD*%
D26*
%TO.C,D27*%
X223800000Y-134700000D03*
X223800000Y-140100000D03*
%TD*%
D27*
%TO.C,D5*%
X86315000Y-65625000D03*
X86315000Y-63575000D03*
%TD*%
%TO.C,D6*%
X59100000Y-122850000D03*
X59100000Y-120800000D03*
%TD*%
%TO.C,D8*%
X78200000Y-123725000D03*
X78200000Y-121675000D03*
%TD*%
%TO.C,D10*%
X100600000Y-123325000D03*
X100600000Y-121275000D03*
%TD*%
%TO.C,D12*%
X121000000Y-123225000D03*
X121000000Y-121175000D03*
%TD*%
%TO.C,D15*%
X141300000Y-123425000D03*
X141300000Y-121375000D03*
%TD*%
%TO.C,D17*%
X165200000Y-123325000D03*
X165200000Y-121275000D03*
%TD*%
%TO.C,D19*%
X184000000Y-122425000D03*
X184000000Y-120375000D03*
%TD*%
%TO.C,D21*%
X204300000Y-122825000D03*
X204300000Y-120775000D03*
%TD*%
D16*
%TO.C,C17*%
X194079000Y-107986400D03*
X194079000Y-109986400D03*
%TD*%
D12*
%TO.C,C18*%
X180997800Y-94769000D03*
X180997800Y-92769000D03*
%TD*%
D16*
%TO.C,C19*%
X195591200Y-82124100D03*
X195591200Y-84124100D03*
%TD*%
%TO.C,C20*%
X174500000Y-114500000D03*
X174500000Y-116500000D03*
%TD*%
D28*
%TO.C,D43*%
X111973300Y-58969200D03*
X109923300Y-58969200D03*
%TD*%
D26*
%TO.C,D44*%
X212100000Y-71600000D03*
X212100000Y-66200000D03*
%TD*%
%TO.C,D45*%
X206100000Y-71700000D03*
X206100000Y-66300000D03*
%TD*%
%TO.C,D46*%
X209900000Y-53500000D03*
X209900000Y-58900000D03*
%TD*%
%TO.C,D47*%
X203000000Y-53500000D03*
X203000000Y-58900000D03*
%TD*%
%TO.C,D48*%
X195700000Y-58800000D03*
X195700000Y-53400000D03*
%TD*%
%TO.C,D49*%
X217100000Y-53300000D03*
X217100000Y-58700000D03*
%TD*%
%TO.C,D50*%
X224100000Y-53600000D03*
X224100000Y-59000000D03*
%TD*%
%TO.C,D51*%
X218400000Y-71300000D03*
X218400000Y-65900000D03*
%TD*%
%TO.C,D52*%
X224700000Y-71200000D03*
X224700000Y-65800000D03*
%TD*%
D14*
%TO.C,J26*%
X229770000Y-42650000D03*
D15*
X224770000Y-42650000D03*
X219770000Y-42650000D03*
X214770000Y-42650000D03*
X209770000Y-42650000D03*
%TD*%
D29*
%TO.C,JP1*%
X118825000Y-60200000D03*
D30*
X121365000Y-60200000D03*
%TD*%
D29*
%TO.C,JP2*%
X186000000Y-109500000D03*
D30*
X183460000Y-109500000D03*
X180920000Y-109500000D03*
%TD*%
D29*
%TO.C,JP3*%
X186040000Y-80055000D03*
D30*
X183500000Y-80055000D03*
X180960000Y-80055000D03*
%TD*%
D29*
%TO.C,JP4*%
X185975000Y-103000000D03*
D30*
X183435000Y-103000000D03*
X180895000Y-103000000D03*
%TD*%
D29*
%TO.C,JP5*%
X186040000Y-72555000D03*
D30*
X183500000Y-72555000D03*
X180960000Y-72555000D03*
%TD*%
D22*
%TO.C,Q13*%
X111450000Y-64600000D03*
X109550000Y-64600000D03*
X110500000Y-62600000D03*
%TD*%
D23*
%TO.C,Q14*%
X194900000Y-70250000D03*
X194900000Y-72150000D03*
X192900000Y-71200000D03*
%TD*%
%TO.C,Q15*%
X194600000Y-64150000D03*
X194600000Y-66050000D03*
X192600000Y-65100000D03*
%TD*%
%TO.C,Q16*%
X203900000Y-84350000D03*
X203900000Y-82450000D03*
X205900000Y-83400000D03*
%TD*%
%TO.C,Q17*%
X167360700Y-73708200D03*
X167360700Y-71808200D03*
X169360700Y-72758200D03*
%TD*%
D11*
%TO.C,R71*%
X104579900Y-58969200D03*
X106579900Y-58969200D03*
%TD*%
%TO.C,R72*%
X109744000Y-69596000D03*
X111744000Y-69596000D03*
%TD*%
D16*
%TO.C,R73*%
X123385300Y-65386000D03*
X123385300Y-67386000D03*
%TD*%
%TO.C,R74*%
X114847300Y-66063600D03*
X114847300Y-68063600D03*
%TD*%
D11*
%TO.C,R75*%
X191647200Y-103703200D03*
X193647200Y-103703200D03*
%TD*%
%TO.C,R76*%
X180912200Y-88055000D03*
X182912200Y-88055000D03*
%TD*%
%TO.C,R77*%
X197000000Y-103500000D03*
X199000000Y-103500000D03*
%TD*%
D16*
%TO.C,R78*%
X176629000Y-92769000D03*
X176629000Y-94769000D03*
%TD*%
D11*
%TO.C,R79*%
X197200000Y-98900000D03*
X199200000Y-98900000D03*
%TD*%
%TO.C,R80*%
X186458800Y-95115200D03*
X188458800Y-95115200D03*
%TD*%
D16*
%TO.C,R85*%
X201300000Y-82600000D03*
X201300000Y-84600000D03*
%TD*%
%TO.C,R87*%
X162874300Y-71926600D03*
X162874300Y-73926600D03*
%TD*%
D10*
%TO.C,R88*%
X158286300Y-71869200D03*
X156286300Y-71869200D03*
%TD*%
D11*
%TO.C,R91*%
X178815000Y-115095800D03*
X180815000Y-115095800D03*
%TD*%
%TO.C,R92*%
X193422800Y-77561500D03*
X195422800Y-77561500D03*
%TD*%
D12*
%TO.C,R93*%
X168546800Y-114740200D03*
X168546800Y-112740200D03*
%TD*%
D16*
%TO.C,R94*%
X173400000Y-102900000D03*
X173400000Y-104900000D03*
%TD*%
D31*
%TO.C,SW1*%
X171500000Y-90300000D03*
X166500000Y-90300000D03*
%TD*%
D32*
%TO.C,REF\u002A\u002A*%
X53900000Y-39200000D03*
%TD*%
%TO.C,REF\u002A\u002A*%
X53848000Y-165100000D03*
%TD*%
%TO.C,REF\u002A\u002A*%
X241600000Y-165700000D03*
%TD*%
%TO.C,REF\u002A\u002A*%
X241100000Y-40200000D03*
%TD*%
%TO.C,REF\u002A\u002A*%
X67951600Y-63569200D03*
%TD*%
%TO.C,REF\u002A\u002A*%
X67951600Y-118569200D03*
%TD*%
%TO.C,REF\u002A\u002A*%
X159951600Y-63569200D03*
%TD*%
%TO.C,REF\u002A\u002A*%
X159951600Y-118569200D03*
%TD*%
D33*
%TO.C,R95*%
X93515000Y-88900000D03*
X90415000Y-88900000D03*
%TD*%
D14*
%TO.C,J27*%
X57204000Y-91948000D03*
D15*
X57204000Y-96948000D03*
%TD*%
D10*
%TO.C,R86*%
X187200000Y-67700000D03*
X185200000Y-67700000D03*
%TD*%
D34*
%TO.C,BZ2*%
X138700000Y-59400000D03*
D31*
X132200000Y-59400000D03*
%TD*%
D35*
%TO.C,BZ1*%
X142500000Y-66250000D03*
X128200000Y-66250000D03*
%TD*%
D29*
%TO.C,J2*%
X53800000Y-119150000D03*
D30*
X53800000Y-116610000D03*
X53800000Y-114070000D03*
X53800000Y-111530000D03*
X53800000Y-108990000D03*
X53800000Y-106450000D03*
%TD*%
D36*
%TO.C,R8*%
X79800000Y-111300000D03*
X81800000Y-111300000D03*
%TD*%
M02*
