%TF.GenerationSoftware,KiCad,Pcbnew,(6.0.0)*%
%TF.CreationDate,2022-03-03T21:09:28+01:00*%
%TF.ProjectId,automate,6175746f-6d61-4746-952e-6b696361645f,rev?*%
%TF.SameCoordinates,Original*%
%TF.FileFunction,Legend,Bot*%
%TF.FilePolarity,Positive*%
%FSLAX46Y46*%
G04 Gerber Fmt 4.6, Leading zero omitted, Abs format (unit mm)*
G04 Created by KiCad (PCBNEW (6.0.0)) date 2022-03-03 21:09:28*
%MOMM*%
%LPD*%
G01*
G04 APERTURE LIST*
%ADD10C,0.150000*%
%ADD11C,0.120000*%
G04 APERTURE END LIST*
D10*
%TO.C,C10*%
X208557142Y-116157142D02*
X208604761Y-116109523D01*
X208652380Y-115966666D01*
X208652380Y-115871428D01*
X208604761Y-115728571D01*
X208509523Y-115633333D01*
X208414285Y-115585714D01*
X208223809Y-115538095D01*
X208080952Y-115538095D01*
X207890476Y-115585714D01*
X207795238Y-115633333D01*
X207700000Y-115728571D01*
X207652380Y-115871428D01*
X207652380Y-115966666D01*
X207700000Y-116109523D01*
X207747619Y-116157142D01*
X208652380Y-117109523D02*
X208652380Y-116538095D01*
X208652380Y-116823809D02*
X207652380Y-116823809D01*
X207795238Y-116728571D01*
X207890476Y-116633333D01*
X207938095Y-116538095D01*
X207652380Y-117728571D02*
X207652380Y-117823809D01*
X207700000Y-117919047D01*
X207747619Y-117966666D01*
X207842857Y-118014285D01*
X208033333Y-118061904D01*
X208271428Y-118061904D01*
X208461904Y-118014285D01*
X208557142Y-117966666D01*
X208604761Y-117919047D01*
X208652380Y-117823809D01*
X208652380Y-117728571D01*
X208604761Y-117633333D01*
X208557142Y-117585714D01*
X208461904Y-117538095D01*
X208271428Y-117490476D01*
X208033333Y-117490476D01*
X207842857Y-117538095D01*
X207747619Y-117585714D01*
X207700000Y-117633333D01*
X207652380Y-117728571D01*
%TO.C,C11*%
X212829542Y-105527942D02*
X212877161Y-105480323D01*
X212924780Y-105337466D01*
X212924780Y-105242228D01*
X212877161Y-105099371D01*
X212781923Y-105004133D01*
X212686685Y-104956514D01*
X212496209Y-104908895D01*
X212353352Y-104908895D01*
X212162876Y-104956514D01*
X212067638Y-105004133D01*
X211972400Y-105099371D01*
X211924780Y-105242228D01*
X211924780Y-105337466D01*
X211972400Y-105480323D01*
X212020019Y-105527942D01*
X212924780Y-106480323D02*
X212924780Y-105908895D01*
X212924780Y-106194609D02*
X211924780Y-106194609D01*
X212067638Y-106099371D01*
X212162876Y-106004133D01*
X212210495Y-105908895D01*
X212924780Y-107432704D02*
X212924780Y-106861276D01*
X212924780Y-107146990D02*
X211924780Y-107146990D01*
X212067638Y-107051752D01*
X212162876Y-106956514D01*
X212210495Y-106861276D01*
%TO.C,C12*%
X213364742Y-93790742D02*
X213412361Y-93743123D01*
X213459980Y-93600266D01*
X213459980Y-93505028D01*
X213412361Y-93362171D01*
X213317123Y-93266933D01*
X213221885Y-93219314D01*
X213031409Y-93171695D01*
X212888552Y-93171695D01*
X212698076Y-93219314D01*
X212602838Y-93266933D01*
X212507600Y-93362171D01*
X212459980Y-93505028D01*
X212459980Y-93600266D01*
X212507600Y-93743123D01*
X212555219Y-93790742D01*
X213459980Y-94743123D02*
X213459980Y-94171695D01*
X213459980Y-94457409D02*
X212459980Y-94457409D01*
X212602838Y-94362171D01*
X212698076Y-94266933D01*
X212745695Y-94171695D01*
X212555219Y-95124076D02*
X212507600Y-95171695D01*
X212459980Y-95266933D01*
X212459980Y-95505028D01*
X212507600Y-95600266D01*
X212555219Y-95647885D01*
X212650457Y-95695504D01*
X212745695Y-95695504D01*
X212888552Y-95647885D01*
X213459980Y-95076457D01*
X213459980Y-95695504D01*
%TO.C,C13*%
X213218562Y-80897742D02*
X213266181Y-80850123D01*
X213313800Y-80707266D01*
X213313800Y-80612028D01*
X213266181Y-80469171D01*
X213170943Y-80373933D01*
X213075705Y-80326314D01*
X212885229Y-80278695D01*
X212742372Y-80278695D01*
X212551896Y-80326314D01*
X212456658Y-80373933D01*
X212361420Y-80469171D01*
X212313800Y-80612028D01*
X212313800Y-80707266D01*
X212361420Y-80850123D01*
X212409039Y-80897742D01*
X213313800Y-81850123D02*
X213313800Y-81278695D01*
X213313800Y-81564409D02*
X212313800Y-81564409D01*
X212456658Y-81469171D01*
X212551896Y-81373933D01*
X212599515Y-81278695D01*
X212313800Y-82183457D02*
X212313800Y-82802504D01*
X212694753Y-82469171D01*
X212694753Y-82612028D01*
X212742372Y-82707266D01*
X212789991Y-82754885D01*
X212885229Y-82802504D01*
X213123324Y-82802504D01*
X213218562Y-82754885D01*
X213266181Y-82707266D01*
X213313800Y-82612028D01*
X213313800Y-82326314D01*
X213266181Y-82231076D01*
X213218562Y-82183457D01*
%TO.C,C14*%
X213864742Y-67527942D02*
X213912361Y-67480323D01*
X213959980Y-67337466D01*
X213959980Y-67242228D01*
X213912361Y-67099371D01*
X213817123Y-67004133D01*
X213721885Y-66956514D01*
X213531409Y-66908895D01*
X213388552Y-66908895D01*
X213198076Y-66956514D01*
X213102838Y-67004133D01*
X213007600Y-67099371D01*
X212959980Y-67242228D01*
X212959980Y-67337466D01*
X213007600Y-67480323D01*
X213055219Y-67527942D01*
X213959980Y-68480323D02*
X213959980Y-67908895D01*
X213959980Y-68194609D02*
X212959980Y-68194609D01*
X213102838Y-68099371D01*
X213198076Y-68004133D01*
X213245695Y-67908895D01*
X213293314Y-69337466D02*
X213959980Y-69337466D01*
X212912361Y-69099371D02*
X213626647Y-68861276D01*
X213626647Y-69480323D01*
%TO.C,C15*%
X196953142Y-63873142D02*
X197000761Y-63825523D01*
X197048380Y-63682666D01*
X197048380Y-63587428D01*
X197000761Y-63444571D01*
X196905523Y-63349333D01*
X196810285Y-63301714D01*
X196619809Y-63254095D01*
X196476952Y-63254095D01*
X196286476Y-63301714D01*
X196191238Y-63349333D01*
X196096000Y-63444571D01*
X196048380Y-63587428D01*
X196048380Y-63682666D01*
X196096000Y-63825523D01*
X196143619Y-63873142D01*
X197048380Y-64825523D02*
X197048380Y-64254095D01*
X197048380Y-64539809D02*
X196048380Y-64539809D01*
X196191238Y-64444571D01*
X196286476Y-64349333D01*
X196334095Y-64254095D01*
X196048380Y-65730285D02*
X196048380Y-65254095D01*
X196524571Y-65206476D01*
X196476952Y-65254095D01*
X196429333Y-65349333D01*
X196429333Y-65587428D01*
X196476952Y-65682666D01*
X196524571Y-65730285D01*
X196619809Y-65777904D01*
X196857904Y-65777904D01*
X196953142Y-65730285D01*
X197000761Y-65682666D01*
X197048380Y-65587428D01*
X197048380Y-65349333D01*
X197000761Y-65254095D01*
X196953142Y-65206476D01*
%TO.C,C16*%
X196764742Y-50827942D02*
X196812361Y-50780323D01*
X196859980Y-50637466D01*
X196859980Y-50542228D01*
X196812361Y-50399371D01*
X196717123Y-50304133D01*
X196621885Y-50256514D01*
X196431409Y-50208895D01*
X196288552Y-50208895D01*
X196098076Y-50256514D01*
X196002838Y-50304133D01*
X195907600Y-50399371D01*
X195859980Y-50542228D01*
X195859980Y-50637466D01*
X195907600Y-50780323D01*
X195955219Y-50827942D01*
X196859980Y-51780323D02*
X196859980Y-51208895D01*
X196859980Y-51494609D02*
X195859980Y-51494609D01*
X196002838Y-51399371D01*
X196098076Y-51304133D01*
X196145695Y-51208895D01*
X195859980Y-52637466D02*
X195859980Y-52446990D01*
X195907600Y-52351752D01*
X195955219Y-52304133D01*
X196098076Y-52208895D01*
X196288552Y-52161276D01*
X196669504Y-52161276D01*
X196764742Y-52208895D01*
X196812361Y-52256514D01*
X196859980Y-52351752D01*
X196859980Y-52542228D01*
X196812361Y-52637466D01*
X196764742Y-52685085D01*
X196669504Y-52732704D01*
X196431409Y-52732704D01*
X196336171Y-52685085D01*
X196288552Y-52637466D01*
X196240933Y-52542228D01*
X196240933Y-52351752D01*
X196288552Y-52256514D01*
X196336171Y-52208895D01*
X196431409Y-52161276D01*
%TO.C,D2*%
X55138095Y-63652380D02*
X55138095Y-62652380D01*
X54900000Y-62652380D01*
X54757142Y-62700000D01*
X54661904Y-62795238D01*
X54614285Y-62890476D01*
X54566666Y-63080952D01*
X54566666Y-63223809D01*
X54614285Y-63414285D01*
X54661904Y-63509523D01*
X54757142Y-63604761D01*
X54900000Y-63652380D01*
X55138095Y-63652380D01*
X54185714Y-62747619D02*
X54138095Y-62700000D01*
X54042857Y-62652380D01*
X53804761Y-62652380D01*
X53709523Y-62700000D01*
X53661904Y-62747619D01*
X53614285Y-62842857D01*
X53614285Y-62938095D01*
X53661904Y-63080952D01*
X54233333Y-63652380D01*
X53614285Y-63652380D01*
%TO.C,D23*%
X223464380Y-150169714D02*
X222464380Y-150169714D01*
X222464380Y-150407809D01*
X222512000Y-150550666D01*
X222607238Y-150645904D01*
X222702476Y-150693523D01*
X222892952Y-150741142D01*
X223035809Y-150741142D01*
X223226285Y-150693523D01*
X223321523Y-150645904D01*
X223416761Y-150550666D01*
X223464380Y-150407809D01*
X223464380Y-150169714D01*
X222559619Y-151122095D02*
X222512000Y-151169714D01*
X222464380Y-151264952D01*
X222464380Y-151503047D01*
X222512000Y-151598285D01*
X222559619Y-151645904D01*
X222654857Y-151693523D01*
X222750095Y-151693523D01*
X222892952Y-151645904D01*
X223464380Y-151074476D01*
X223464380Y-151693523D01*
X222464380Y-152026857D02*
X222464380Y-152645904D01*
X222845333Y-152312571D01*
X222845333Y-152455428D01*
X222892952Y-152550666D01*
X222940571Y-152598285D01*
X223035809Y-152645904D01*
X223273904Y-152645904D01*
X223369142Y-152598285D01*
X223416761Y-152550666D01*
X223464380Y-152455428D01*
X223464380Y-152169714D01*
X223416761Y-152074476D01*
X223369142Y-152026857D01*
%TO.C,D24*%
X229739180Y-137316514D02*
X228739180Y-137316514D01*
X228739180Y-137554609D01*
X228786800Y-137697466D01*
X228882038Y-137792704D01*
X228977276Y-137840323D01*
X229167752Y-137887942D01*
X229310609Y-137887942D01*
X229501085Y-137840323D01*
X229596323Y-137792704D01*
X229691561Y-137697466D01*
X229739180Y-137554609D01*
X229739180Y-137316514D01*
X228834419Y-138268895D02*
X228786800Y-138316514D01*
X228739180Y-138411752D01*
X228739180Y-138649847D01*
X228786800Y-138745085D01*
X228834419Y-138792704D01*
X228929657Y-138840323D01*
X229024895Y-138840323D01*
X229167752Y-138792704D01*
X229739180Y-138221276D01*
X229739180Y-138840323D01*
X229072514Y-139697466D02*
X229739180Y-139697466D01*
X228691561Y-139459371D02*
X229405847Y-139221276D01*
X229405847Y-139840323D01*
%TO.C,D25*%
X229739180Y-124453714D02*
X228739180Y-124453714D01*
X228739180Y-124691809D01*
X228786800Y-124834666D01*
X228882038Y-124929904D01*
X228977276Y-124977523D01*
X229167752Y-125025142D01*
X229310609Y-125025142D01*
X229501085Y-124977523D01*
X229596323Y-124929904D01*
X229691561Y-124834666D01*
X229739180Y-124691809D01*
X229739180Y-124453714D01*
X228834419Y-125406095D02*
X228786800Y-125453714D01*
X228739180Y-125548952D01*
X228739180Y-125787047D01*
X228786800Y-125882285D01*
X228834419Y-125929904D01*
X228929657Y-125977523D01*
X229024895Y-125977523D01*
X229167752Y-125929904D01*
X229739180Y-125358476D01*
X229739180Y-125977523D01*
X228739180Y-126882285D02*
X228739180Y-126406095D01*
X229215371Y-126358476D01*
X229167752Y-126406095D01*
X229120133Y-126501333D01*
X229120133Y-126739428D01*
X229167752Y-126834666D01*
X229215371Y-126882285D01*
X229310609Y-126929904D01*
X229548704Y-126929904D01*
X229643942Y-126882285D01*
X229691561Y-126834666D01*
X229739180Y-126739428D01*
X229739180Y-126501333D01*
X229691561Y-126406095D01*
X229643942Y-126358476D01*
%TO.C,D26*%
X230239180Y-111853714D02*
X229239180Y-111853714D01*
X229239180Y-112091809D01*
X229286800Y-112234666D01*
X229382038Y-112329904D01*
X229477276Y-112377523D01*
X229667752Y-112425142D01*
X229810609Y-112425142D01*
X230001085Y-112377523D01*
X230096323Y-112329904D01*
X230191561Y-112234666D01*
X230239180Y-112091809D01*
X230239180Y-111853714D01*
X229334419Y-112806095D02*
X229286800Y-112853714D01*
X229239180Y-112948952D01*
X229239180Y-113187047D01*
X229286800Y-113282285D01*
X229334419Y-113329904D01*
X229429657Y-113377523D01*
X229524895Y-113377523D01*
X229667752Y-113329904D01*
X230239180Y-112758476D01*
X230239180Y-113377523D01*
X229239180Y-114234666D02*
X229239180Y-114044190D01*
X229286800Y-113948952D01*
X229334419Y-113901333D01*
X229477276Y-113806095D01*
X229667752Y-113758476D01*
X230048704Y-113758476D01*
X230143942Y-113806095D01*
X230191561Y-113853714D01*
X230239180Y-113948952D01*
X230239180Y-114139428D01*
X230191561Y-114234666D01*
X230143942Y-114282285D01*
X230048704Y-114329904D01*
X229810609Y-114329904D01*
X229715371Y-114282285D01*
X229667752Y-114234666D01*
X229620133Y-114139428D01*
X229620133Y-113948952D01*
X229667752Y-113853714D01*
X229715371Y-113806095D01*
X229810609Y-113758476D01*
%TO.C,D31*%
X230093000Y-98823514D02*
X229093000Y-98823514D01*
X229093000Y-99061609D01*
X229140620Y-99204466D01*
X229235858Y-99299704D01*
X229331096Y-99347323D01*
X229521572Y-99394942D01*
X229664429Y-99394942D01*
X229854905Y-99347323D01*
X229950143Y-99299704D01*
X230045381Y-99204466D01*
X230093000Y-99061609D01*
X230093000Y-98823514D01*
X229093000Y-99728276D02*
X229093000Y-100347323D01*
X229473953Y-100013990D01*
X229473953Y-100156847D01*
X229521572Y-100252085D01*
X229569191Y-100299704D01*
X229664429Y-100347323D01*
X229902524Y-100347323D01*
X229997762Y-100299704D01*
X230045381Y-100252085D01*
X230093000Y-100156847D01*
X230093000Y-99871133D01*
X230045381Y-99775895D01*
X229997762Y-99728276D01*
X230093000Y-101299704D02*
X230093000Y-100728276D01*
X230093000Y-101013990D02*
X229093000Y-101013990D01*
X229235858Y-100918752D01*
X229331096Y-100823514D01*
X229378715Y-100728276D01*
%TO.C,D32*%
X230791980Y-85622914D02*
X229791980Y-85622914D01*
X229791980Y-85861009D01*
X229839600Y-86003866D01*
X229934838Y-86099104D01*
X230030076Y-86146723D01*
X230220552Y-86194342D01*
X230363409Y-86194342D01*
X230553885Y-86146723D01*
X230649123Y-86099104D01*
X230744361Y-86003866D01*
X230791980Y-85861009D01*
X230791980Y-85622914D01*
X229791980Y-86527676D02*
X229791980Y-87146723D01*
X230172933Y-86813390D01*
X230172933Y-86956247D01*
X230220552Y-87051485D01*
X230268171Y-87099104D01*
X230363409Y-87146723D01*
X230601504Y-87146723D01*
X230696742Y-87099104D01*
X230744361Y-87051485D01*
X230791980Y-86956247D01*
X230791980Y-86670533D01*
X230744361Y-86575295D01*
X230696742Y-86527676D01*
X229887219Y-87527676D02*
X229839600Y-87575295D01*
X229791980Y-87670533D01*
X229791980Y-87908628D01*
X229839600Y-88003866D01*
X229887219Y-88051485D01*
X229982457Y-88099104D01*
X230077695Y-88099104D01*
X230220552Y-88051485D01*
X230791980Y-87480057D01*
X230791980Y-88099104D01*
%TO.C,D33*%
X230739180Y-72653714D02*
X229739180Y-72653714D01*
X229739180Y-72891809D01*
X229786800Y-73034666D01*
X229882038Y-73129904D01*
X229977276Y-73177523D01*
X230167752Y-73225142D01*
X230310609Y-73225142D01*
X230501085Y-73177523D01*
X230596323Y-73129904D01*
X230691561Y-73034666D01*
X230739180Y-72891809D01*
X230739180Y-72653714D01*
X229739180Y-73558476D02*
X229739180Y-74177523D01*
X230120133Y-73844190D01*
X230120133Y-73987047D01*
X230167752Y-74082285D01*
X230215371Y-74129904D01*
X230310609Y-74177523D01*
X230548704Y-74177523D01*
X230643942Y-74129904D01*
X230691561Y-74082285D01*
X230739180Y-73987047D01*
X230739180Y-73701333D01*
X230691561Y-73606095D01*
X230643942Y-73558476D01*
X229739180Y-74510857D02*
X229739180Y-75129904D01*
X230120133Y-74796571D01*
X230120133Y-74939428D01*
X230167752Y-75034666D01*
X230215371Y-75082285D01*
X230310609Y-75129904D01*
X230548704Y-75129904D01*
X230643942Y-75082285D01*
X230691561Y-75034666D01*
X230739180Y-74939428D01*
X230739180Y-74653714D01*
X230691561Y-74558476D01*
X230643942Y-74510857D01*
%TO.C,D34*%
X230591980Y-59822914D02*
X229591980Y-59822914D01*
X229591980Y-60061009D01*
X229639600Y-60203866D01*
X229734838Y-60299104D01*
X229830076Y-60346723D01*
X230020552Y-60394342D01*
X230163409Y-60394342D01*
X230353885Y-60346723D01*
X230449123Y-60299104D01*
X230544361Y-60203866D01*
X230591980Y-60061009D01*
X230591980Y-59822914D01*
X229591980Y-60727676D02*
X229591980Y-61346723D01*
X229972933Y-61013390D01*
X229972933Y-61156247D01*
X230020552Y-61251485D01*
X230068171Y-61299104D01*
X230163409Y-61346723D01*
X230401504Y-61346723D01*
X230496742Y-61299104D01*
X230544361Y-61251485D01*
X230591980Y-61156247D01*
X230591980Y-60870533D01*
X230544361Y-60775295D01*
X230496742Y-60727676D01*
X229925314Y-62203866D02*
X230591980Y-62203866D01*
X229544361Y-61965771D02*
X230258647Y-61727676D01*
X230258647Y-62346723D01*
%TO.C,D39*%
X153714285Y-99552380D02*
X153714285Y-98552380D01*
X153476190Y-98552380D01*
X153333333Y-98600000D01*
X153238095Y-98695238D01*
X153190476Y-98790476D01*
X153142857Y-98980952D01*
X153142857Y-99123809D01*
X153190476Y-99314285D01*
X153238095Y-99409523D01*
X153333333Y-99504761D01*
X153476190Y-99552380D01*
X153714285Y-99552380D01*
X152809523Y-98552380D02*
X152190476Y-98552380D01*
X152523809Y-98933333D01*
X152380952Y-98933333D01*
X152285714Y-98980952D01*
X152238095Y-99028571D01*
X152190476Y-99123809D01*
X152190476Y-99361904D01*
X152238095Y-99457142D01*
X152285714Y-99504761D01*
X152380952Y-99552380D01*
X152666666Y-99552380D01*
X152761904Y-99504761D01*
X152809523Y-99457142D01*
X151714285Y-99552380D02*
X151523809Y-99552380D01*
X151428571Y-99504761D01*
X151380952Y-99457142D01*
X151285714Y-99314285D01*
X151238095Y-99123809D01*
X151238095Y-98742857D01*
X151285714Y-98647619D01*
X151333333Y-98600000D01*
X151428571Y-98552380D01*
X151619047Y-98552380D01*
X151714285Y-98600000D01*
X151761904Y-98647619D01*
X151809523Y-98742857D01*
X151809523Y-98980952D01*
X151761904Y-99076190D01*
X151714285Y-99123809D01*
X151619047Y-99171428D01*
X151428571Y-99171428D01*
X151333333Y-99123809D01*
X151285714Y-99076190D01*
X151238095Y-98980952D01*
%TO.C,D40*%
X114714285Y-57152380D02*
X114714285Y-56152380D01*
X114476190Y-56152380D01*
X114333333Y-56200000D01*
X114238095Y-56295238D01*
X114190476Y-56390476D01*
X114142857Y-56580952D01*
X114142857Y-56723809D01*
X114190476Y-56914285D01*
X114238095Y-57009523D01*
X114333333Y-57104761D01*
X114476190Y-57152380D01*
X114714285Y-57152380D01*
X113285714Y-56485714D02*
X113285714Y-57152380D01*
X113523809Y-56104761D02*
X113761904Y-56819047D01*
X113142857Y-56819047D01*
X112571428Y-56152380D02*
X112476190Y-56152380D01*
X112380952Y-56200000D01*
X112333333Y-56247619D01*
X112285714Y-56342857D01*
X112238095Y-56533333D01*
X112238095Y-56771428D01*
X112285714Y-56961904D01*
X112333333Y-57057142D01*
X112380952Y-57104761D01*
X112476190Y-57152380D01*
X112571428Y-57152380D01*
X112666666Y-57104761D01*
X112714285Y-57057142D01*
X112761904Y-56961904D01*
X112809523Y-56771428D01*
X112809523Y-56533333D01*
X112761904Y-56342857D01*
X112714285Y-56247619D01*
X112666666Y-56200000D01*
X112571428Y-56152380D01*
%TO.C,D41*%
X127514285Y-57452380D02*
X127514285Y-56452380D01*
X127276190Y-56452380D01*
X127133333Y-56500000D01*
X127038095Y-56595238D01*
X126990476Y-56690476D01*
X126942857Y-56880952D01*
X126942857Y-57023809D01*
X126990476Y-57214285D01*
X127038095Y-57309523D01*
X127133333Y-57404761D01*
X127276190Y-57452380D01*
X127514285Y-57452380D01*
X126085714Y-56785714D02*
X126085714Y-57452380D01*
X126323809Y-56404761D02*
X126561904Y-57119047D01*
X125942857Y-57119047D01*
X125038095Y-57452380D02*
X125609523Y-57452380D01*
X125323809Y-57452380D02*
X125323809Y-56452380D01*
X125419047Y-56595238D01*
X125514285Y-56690476D01*
X125609523Y-56738095D01*
%TO.C,D42*%
X143614285Y-57152380D02*
X143614285Y-56152380D01*
X143376190Y-56152380D01*
X143233333Y-56200000D01*
X143138095Y-56295238D01*
X143090476Y-56390476D01*
X143042857Y-56580952D01*
X143042857Y-56723809D01*
X143090476Y-56914285D01*
X143138095Y-57009523D01*
X143233333Y-57104761D01*
X143376190Y-57152380D01*
X143614285Y-57152380D01*
X142185714Y-56485714D02*
X142185714Y-57152380D01*
X142423809Y-56104761D02*
X142661904Y-56819047D01*
X142042857Y-56819047D01*
X141709523Y-56247619D02*
X141661904Y-56200000D01*
X141566666Y-56152380D01*
X141328571Y-56152380D01*
X141233333Y-56200000D01*
X141185714Y-56247619D01*
X141138095Y-56342857D01*
X141138095Y-56438095D01*
X141185714Y-56580952D01*
X141757142Y-57152380D01*
X141138095Y-57152380D01*
%TO.C,R33*%
X208617180Y-110957142D02*
X208140990Y-110623809D01*
X208617180Y-110385714D02*
X207617180Y-110385714D01*
X207617180Y-110766666D01*
X207664800Y-110861904D01*
X207712419Y-110909523D01*
X207807657Y-110957142D01*
X207950514Y-110957142D01*
X208045752Y-110909523D01*
X208093371Y-110861904D01*
X208140990Y-110766666D01*
X208140990Y-110385714D01*
X207617180Y-111290476D02*
X207617180Y-111909523D01*
X207998133Y-111576190D01*
X207998133Y-111719047D01*
X208045752Y-111814285D01*
X208093371Y-111861904D01*
X208188609Y-111909523D01*
X208426704Y-111909523D01*
X208521942Y-111861904D01*
X208569561Y-111814285D01*
X208617180Y-111719047D01*
X208617180Y-111433333D01*
X208569561Y-111338095D01*
X208521942Y-111290476D01*
X207617180Y-112242857D02*
X207617180Y-112861904D01*
X207998133Y-112528571D01*
X207998133Y-112671428D01*
X208045752Y-112766666D01*
X208093371Y-112814285D01*
X208188609Y-112861904D01*
X208426704Y-112861904D01*
X208521942Y-112814285D01*
X208569561Y-112766666D01*
X208617180Y-112671428D01*
X208617180Y-112385714D01*
X208569561Y-112290476D01*
X208521942Y-112242857D01*
%TO.C,R38*%
X205003257Y-100615180D02*
X205336590Y-100138990D01*
X205574685Y-100615180D02*
X205574685Y-99615180D01*
X205193733Y-99615180D01*
X205098495Y-99662800D01*
X205050876Y-99710419D01*
X205003257Y-99805657D01*
X205003257Y-99948514D01*
X205050876Y-100043752D01*
X205098495Y-100091371D01*
X205193733Y-100138990D01*
X205574685Y-100138990D01*
X204669923Y-99615180D02*
X204050876Y-99615180D01*
X204384209Y-99996133D01*
X204241352Y-99996133D01*
X204146114Y-100043752D01*
X204098495Y-100091371D01*
X204050876Y-100186609D01*
X204050876Y-100424704D01*
X204098495Y-100519942D01*
X204146114Y-100567561D01*
X204241352Y-100615180D01*
X204527066Y-100615180D01*
X204622304Y-100567561D01*
X204669923Y-100519942D01*
X203479447Y-100043752D02*
X203574685Y-99996133D01*
X203622304Y-99948514D01*
X203669923Y-99853276D01*
X203669923Y-99805657D01*
X203622304Y-99710419D01*
X203574685Y-99662800D01*
X203479447Y-99615180D01*
X203288971Y-99615180D01*
X203193733Y-99662800D01*
X203146114Y-99710419D01*
X203098495Y-99805657D01*
X203098495Y-99853276D01*
X203146114Y-99948514D01*
X203193733Y-99996133D01*
X203288971Y-100043752D01*
X203479447Y-100043752D01*
X203574685Y-100091371D01*
X203622304Y-100138990D01*
X203669923Y-100234228D01*
X203669923Y-100424704D01*
X203622304Y-100519942D01*
X203574685Y-100567561D01*
X203479447Y-100615180D01*
X203288971Y-100615180D01*
X203193733Y-100567561D01*
X203146114Y-100519942D01*
X203098495Y-100424704D01*
X203098495Y-100234228D01*
X203146114Y-100138990D01*
X203193733Y-100091371D01*
X203288971Y-100043752D01*
%TO.C,R39*%
X204342857Y-115052380D02*
X204676190Y-114576190D01*
X204914285Y-115052380D02*
X204914285Y-114052380D01*
X204533333Y-114052380D01*
X204438095Y-114100000D01*
X204390476Y-114147619D01*
X204342857Y-114242857D01*
X204342857Y-114385714D01*
X204390476Y-114480952D01*
X204438095Y-114528571D01*
X204533333Y-114576190D01*
X204914285Y-114576190D01*
X204009523Y-114052380D02*
X203390476Y-114052380D01*
X203723809Y-114433333D01*
X203580952Y-114433333D01*
X203485714Y-114480952D01*
X203438095Y-114528571D01*
X203390476Y-114623809D01*
X203390476Y-114861904D01*
X203438095Y-114957142D01*
X203485714Y-115004761D01*
X203580952Y-115052380D01*
X203866666Y-115052380D01*
X203961904Y-115004761D01*
X204009523Y-114957142D01*
X202914285Y-115052380D02*
X202723809Y-115052380D01*
X202628571Y-115004761D01*
X202580952Y-114957142D01*
X202485714Y-114814285D01*
X202438095Y-114623809D01*
X202438095Y-114242857D01*
X202485714Y-114147619D01*
X202533333Y-114100000D01*
X202628571Y-114052380D01*
X202819047Y-114052380D01*
X202914285Y-114100000D01*
X202961904Y-114147619D01*
X203009523Y-114242857D01*
X203009523Y-114480952D01*
X202961904Y-114576190D01*
X202914285Y-114623809D01*
X202819047Y-114671428D01*
X202628571Y-114671428D01*
X202533333Y-114623809D01*
X202485714Y-114576190D01*
X202438095Y-114480952D01*
%TO.C,R41*%
X205066857Y-108380380D02*
X205400190Y-107904190D01*
X205638285Y-108380380D02*
X205638285Y-107380380D01*
X205257333Y-107380380D01*
X205162095Y-107428000D01*
X205114476Y-107475619D01*
X205066857Y-107570857D01*
X205066857Y-107713714D01*
X205114476Y-107808952D01*
X205162095Y-107856571D01*
X205257333Y-107904190D01*
X205638285Y-107904190D01*
X204209714Y-107713714D02*
X204209714Y-108380380D01*
X204447809Y-107332761D02*
X204685904Y-108047047D01*
X204066857Y-108047047D01*
X203162095Y-108380380D02*
X203733523Y-108380380D01*
X203447809Y-108380380D02*
X203447809Y-107380380D01*
X203543047Y-107523238D01*
X203638285Y-107618476D01*
X203733523Y-107666095D01*
%TO.C,R42*%
X205990057Y-92385980D02*
X206323390Y-91909790D01*
X206561485Y-92385980D02*
X206561485Y-91385980D01*
X206180533Y-91385980D01*
X206085295Y-91433600D01*
X206037676Y-91481219D01*
X205990057Y-91576457D01*
X205990057Y-91719314D01*
X206037676Y-91814552D01*
X206085295Y-91862171D01*
X206180533Y-91909790D01*
X206561485Y-91909790D01*
X205132914Y-91719314D02*
X205132914Y-92385980D01*
X205371009Y-91338361D02*
X205609104Y-92052647D01*
X204990057Y-92052647D01*
X204656723Y-91481219D02*
X204609104Y-91433600D01*
X204513866Y-91385980D01*
X204275771Y-91385980D01*
X204180533Y-91433600D01*
X204132914Y-91481219D01*
X204085295Y-91576457D01*
X204085295Y-91671695D01*
X204132914Y-91814552D01*
X204704342Y-92385980D01*
X204085295Y-92385980D01*
%TO.C,R43*%
X209313800Y-87260542D02*
X208837610Y-86927209D01*
X209313800Y-86689114D02*
X208313800Y-86689114D01*
X208313800Y-87070066D01*
X208361420Y-87165304D01*
X208409039Y-87212923D01*
X208504277Y-87260542D01*
X208647134Y-87260542D01*
X208742372Y-87212923D01*
X208789991Y-87165304D01*
X208837610Y-87070066D01*
X208837610Y-86689114D01*
X208647134Y-88117685D02*
X209313800Y-88117685D01*
X208266181Y-87879590D02*
X208980467Y-87641495D01*
X208980467Y-88260542D01*
X208313800Y-88546257D02*
X208313800Y-89165304D01*
X208694753Y-88831971D01*
X208694753Y-88974828D01*
X208742372Y-89070066D01*
X208789991Y-89117685D01*
X208885229Y-89165304D01*
X209123324Y-89165304D01*
X209218562Y-89117685D01*
X209266181Y-89070066D01*
X209313800Y-88974828D01*
X209313800Y-88689114D01*
X209266181Y-88593876D01*
X209218562Y-88546257D01*
%TO.C,R44*%
X209712780Y-100219942D02*
X209236590Y-99886609D01*
X209712780Y-99648514D02*
X208712780Y-99648514D01*
X208712780Y-100029466D01*
X208760400Y-100124704D01*
X208808019Y-100172323D01*
X208903257Y-100219942D01*
X209046114Y-100219942D01*
X209141352Y-100172323D01*
X209188971Y-100124704D01*
X209236590Y-100029466D01*
X209236590Y-99648514D01*
X209046114Y-101077085D02*
X209712780Y-101077085D01*
X208665161Y-100838990D02*
X209379447Y-100600895D01*
X209379447Y-101219942D01*
X209046114Y-102029466D02*
X209712780Y-102029466D01*
X208665161Y-101791371D02*
X209379447Y-101553276D01*
X209379447Y-102172323D01*
%TO.C,R46*%
X192859980Y-57690742D02*
X192383790Y-57357409D01*
X192859980Y-57119314D02*
X191859980Y-57119314D01*
X191859980Y-57500266D01*
X191907600Y-57595504D01*
X191955219Y-57643123D01*
X192050457Y-57690742D01*
X192193314Y-57690742D01*
X192288552Y-57643123D01*
X192336171Y-57595504D01*
X192383790Y-57500266D01*
X192383790Y-57119314D01*
X192193314Y-58547885D02*
X192859980Y-58547885D01*
X191812361Y-58309790D02*
X192526647Y-58071695D01*
X192526647Y-58690742D01*
X191859980Y-59500266D02*
X191859980Y-59309790D01*
X191907600Y-59214552D01*
X191955219Y-59166933D01*
X192098076Y-59071695D01*
X192288552Y-59024076D01*
X192669504Y-59024076D01*
X192764742Y-59071695D01*
X192812361Y-59119314D01*
X192859980Y-59214552D01*
X192859980Y-59405028D01*
X192812361Y-59500266D01*
X192764742Y-59547885D01*
X192669504Y-59595504D01*
X192431409Y-59595504D01*
X192336171Y-59547885D01*
X192288552Y-59500266D01*
X192240933Y-59405028D01*
X192240933Y-59214552D01*
X192288552Y-59119314D01*
X192336171Y-59071695D01*
X192431409Y-59024076D01*
%TO.C,R47*%
X202203257Y-91215180D02*
X202536590Y-90738990D01*
X202774685Y-91215180D02*
X202774685Y-90215180D01*
X202393733Y-90215180D01*
X202298495Y-90262800D01*
X202250876Y-90310419D01*
X202203257Y-90405657D01*
X202203257Y-90548514D01*
X202250876Y-90643752D01*
X202298495Y-90691371D01*
X202393733Y-90738990D01*
X202774685Y-90738990D01*
X201346114Y-90548514D02*
X201346114Y-91215180D01*
X201584209Y-90167561D02*
X201822304Y-90881847D01*
X201203257Y-90881847D01*
X200917542Y-90215180D02*
X200250876Y-90215180D01*
X200679447Y-91215180D01*
%TO.C,R48*%
X157956257Y-68648180D02*
X158289590Y-68171990D01*
X158527685Y-68648180D02*
X158527685Y-67648180D01*
X158146733Y-67648180D01*
X158051495Y-67695800D01*
X158003876Y-67743419D01*
X157956257Y-67838657D01*
X157956257Y-67981514D01*
X158003876Y-68076752D01*
X158051495Y-68124371D01*
X158146733Y-68171990D01*
X158527685Y-68171990D01*
X157099114Y-67981514D02*
X157099114Y-68648180D01*
X157337209Y-67600561D02*
X157575304Y-68314847D01*
X156956257Y-68314847D01*
X156432447Y-68076752D02*
X156527685Y-68029133D01*
X156575304Y-67981514D01*
X156622923Y-67886276D01*
X156622923Y-67838657D01*
X156575304Y-67743419D01*
X156527685Y-67695800D01*
X156432447Y-67648180D01*
X156241971Y-67648180D01*
X156146733Y-67695800D01*
X156099114Y-67743419D01*
X156051495Y-67838657D01*
X156051495Y-67886276D01*
X156099114Y-67981514D01*
X156146733Y-68029133D01*
X156241971Y-68076752D01*
X156432447Y-68076752D01*
X156527685Y-68124371D01*
X156575304Y-68171990D01*
X156622923Y-68267228D01*
X156622923Y-68457704D01*
X156575304Y-68552942D01*
X156527685Y-68600561D01*
X156432447Y-68648180D01*
X156241971Y-68648180D01*
X156146733Y-68600561D01*
X156099114Y-68552942D01*
X156051495Y-68457704D01*
X156051495Y-68267228D01*
X156099114Y-68171990D01*
X156146733Y-68124371D01*
X156241971Y-68076752D01*
%TO.C,R49*%
X206403257Y-83115180D02*
X206736590Y-82638990D01*
X206974685Y-83115180D02*
X206974685Y-82115180D01*
X206593733Y-82115180D01*
X206498495Y-82162800D01*
X206450876Y-82210419D01*
X206403257Y-82305657D01*
X206403257Y-82448514D01*
X206450876Y-82543752D01*
X206498495Y-82591371D01*
X206593733Y-82638990D01*
X206974685Y-82638990D01*
X205546114Y-82448514D02*
X205546114Y-83115180D01*
X205784209Y-82067561D02*
X206022304Y-82781847D01*
X205403257Y-82781847D01*
X204974685Y-83115180D02*
X204784209Y-83115180D01*
X204688971Y-83067561D01*
X204641352Y-83019942D01*
X204546114Y-82877085D01*
X204498495Y-82686609D01*
X204498495Y-82305657D01*
X204546114Y-82210419D01*
X204593733Y-82162800D01*
X204688971Y-82115180D01*
X204879447Y-82115180D01*
X204974685Y-82162800D01*
X205022304Y-82210419D01*
X205069923Y-82305657D01*
X205069923Y-82543752D01*
X205022304Y-82638990D01*
X204974685Y-82686609D01*
X204879447Y-82734228D01*
X204688971Y-82734228D01*
X204593733Y-82686609D01*
X204546114Y-82638990D01*
X204498495Y-82543752D01*
%TO.C,R50*%
X188002380Y-55257142D02*
X187526190Y-54923809D01*
X188002380Y-54685714D02*
X187002380Y-54685714D01*
X187002380Y-55066666D01*
X187050000Y-55161904D01*
X187097619Y-55209523D01*
X187192857Y-55257142D01*
X187335714Y-55257142D01*
X187430952Y-55209523D01*
X187478571Y-55161904D01*
X187526190Y-55066666D01*
X187526190Y-54685714D01*
X187002380Y-56161904D02*
X187002380Y-55685714D01*
X187478571Y-55638095D01*
X187430952Y-55685714D01*
X187383333Y-55780952D01*
X187383333Y-56019047D01*
X187430952Y-56114285D01*
X187478571Y-56161904D01*
X187573809Y-56209523D01*
X187811904Y-56209523D01*
X187907142Y-56161904D01*
X187954761Y-56114285D01*
X188002380Y-56019047D01*
X188002380Y-55780952D01*
X187954761Y-55685714D01*
X187907142Y-55638095D01*
X187002380Y-56828571D02*
X187002380Y-56923809D01*
X187050000Y-57019047D01*
X187097619Y-57066666D01*
X187192857Y-57114285D01*
X187383333Y-57161904D01*
X187621428Y-57161904D01*
X187811904Y-57114285D01*
X187907142Y-57066666D01*
X187954761Y-57019047D01*
X188002380Y-56923809D01*
X188002380Y-56828571D01*
X187954761Y-56733333D01*
X187907142Y-56685714D01*
X187811904Y-56638095D01*
X187621428Y-56590476D01*
X187383333Y-56590476D01*
X187192857Y-56638095D01*
X187097619Y-56685714D01*
X187050000Y-56733333D01*
X187002380Y-56828571D01*
%TO.C,R51*%
X205642857Y-78415180D02*
X205976190Y-77938990D01*
X206214285Y-78415180D02*
X206214285Y-77415180D01*
X205833333Y-77415180D01*
X205738095Y-77462800D01*
X205690476Y-77510419D01*
X205642857Y-77605657D01*
X205642857Y-77748514D01*
X205690476Y-77843752D01*
X205738095Y-77891371D01*
X205833333Y-77938990D01*
X206214285Y-77938990D01*
X204738095Y-77415180D02*
X205214285Y-77415180D01*
X205261904Y-77891371D01*
X205214285Y-77843752D01*
X205119047Y-77796133D01*
X204880952Y-77796133D01*
X204785714Y-77843752D01*
X204738095Y-77891371D01*
X204690476Y-77986609D01*
X204690476Y-78224704D01*
X204738095Y-78319942D01*
X204785714Y-78367561D01*
X204880952Y-78415180D01*
X205119047Y-78415180D01*
X205214285Y-78367561D01*
X205261904Y-78319942D01*
X203738095Y-78415180D02*
X204309523Y-78415180D01*
X204023809Y-78415180D02*
X204023809Y-77415180D01*
X204119047Y-77558038D01*
X204214285Y-77653276D01*
X204309523Y-77700895D01*
%TO.C,R52*%
X205842857Y-96815180D02*
X206176190Y-96338990D01*
X206414285Y-96815180D02*
X206414285Y-95815180D01*
X206033333Y-95815180D01*
X205938095Y-95862800D01*
X205890476Y-95910419D01*
X205842857Y-96005657D01*
X205842857Y-96148514D01*
X205890476Y-96243752D01*
X205938095Y-96291371D01*
X206033333Y-96338990D01*
X206414285Y-96338990D01*
X204938095Y-95815180D02*
X205414285Y-95815180D01*
X205461904Y-96291371D01*
X205414285Y-96243752D01*
X205319047Y-96196133D01*
X205080952Y-96196133D01*
X204985714Y-96243752D01*
X204938095Y-96291371D01*
X204890476Y-96386609D01*
X204890476Y-96624704D01*
X204938095Y-96719942D01*
X204985714Y-96767561D01*
X205080952Y-96815180D01*
X205319047Y-96815180D01*
X205414285Y-96767561D01*
X205461904Y-96719942D01*
X204509523Y-95910419D02*
X204461904Y-95862800D01*
X204366666Y-95815180D01*
X204128571Y-95815180D01*
X204033333Y-95862800D01*
X203985714Y-95910419D01*
X203938095Y-96005657D01*
X203938095Y-96100895D01*
X203985714Y-96243752D01*
X204557142Y-96815180D01*
X203938095Y-96815180D01*
%TO.C,R53*%
X186503257Y-64815180D02*
X186836590Y-64338990D01*
X187074685Y-64815180D02*
X187074685Y-63815180D01*
X186693733Y-63815180D01*
X186598495Y-63862800D01*
X186550876Y-63910419D01*
X186503257Y-64005657D01*
X186503257Y-64148514D01*
X186550876Y-64243752D01*
X186598495Y-64291371D01*
X186693733Y-64338990D01*
X187074685Y-64338990D01*
X185598495Y-63815180D02*
X186074685Y-63815180D01*
X186122304Y-64291371D01*
X186074685Y-64243752D01*
X185979447Y-64196133D01*
X185741352Y-64196133D01*
X185646114Y-64243752D01*
X185598495Y-64291371D01*
X185550876Y-64386609D01*
X185550876Y-64624704D01*
X185598495Y-64719942D01*
X185646114Y-64767561D01*
X185741352Y-64815180D01*
X185979447Y-64815180D01*
X186074685Y-64767561D01*
X186122304Y-64719942D01*
X185217542Y-63815180D02*
X184598495Y-63815180D01*
X184931828Y-64196133D01*
X184788971Y-64196133D01*
X184693733Y-64243752D01*
X184646114Y-64291371D01*
X184598495Y-64386609D01*
X184598495Y-64624704D01*
X184646114Y-64719942D01*
X184693733Y-64767561D01*
X184788971Y-64815180D01*
X185074685Y-64815180D01*
X185169923Y-64767561D01*
X185217542Y-64719942D01*
%TO.C,R54*%
X182542857Y-54715180D02*
X182876190Y-54238990D01*
X183114285Y-54715180D02*
X183114285Y-53715180D01*
X182733333Y-53715180D01*
X182638095Y-53762800D01*
X182590476Y-53810419D01*
X182542857Y-53905657D01*
X182542857Y-54048514D01*
X182590476Y-54143752D01*
X182638095Y-54191371D01*
X182733333Y-54238990D01*
X183114285Y-54238990D01*
X181638095Y-53715180D02*
X182114285Y-53715180D01*
X182161904Y-54191371D01*
X182114285Y-54143752D01*
X182019047Y-54096133D01*
X181780952Y-54096133D01*
X181685714Y-54143752D01*
X181638095Y-54191371D01*
X181590476Y-54286609D01*
X181590476Y-54524704D01*
X181638095Y-54619942D01*
X181685714Y-54667561D01*
X181780952Y-54715180D01*
X182019047Y-54715180D01*
X182114285Y-54667561D01*
X182161904Y-54619942D01*
X180733333Y-54048514D02*
X180733333Y-54715180D01*
X180971428Y-53667561D02*
X181209523Y-54381847D01*
X180590476Y-54381847D01*
%TO.C,R55*%
X98557857Y-57752380D02*
X98891190Y-57276190D01*
X99129285Y-57752380D02*
X99129285Y-56752380D01*
X98748333Y-56752380D01*
X98653095Y-56800000D01*
X98605476Y-56847619D01*
X98557857Y-56942857D01*
X98557857Y-57085714D01*
X98605476Y-57180952D01*
X98653095Y-57228571D01*
X98748333Y-57276190D01*
X99129285Y-57276190D01*
X97653095Y-56752380D02*
X98129285Y-56752380D01*
X98176904Y-57228571D01*
X98129285Y-57180952D01*
X98034047Y-57133333D01*
X97795952Y-57133333D01*
X97700714Y-57180952D01*
X97653095Y-57228571D01*
X97605476Y-57323809D01*
X97605476Y-57561904D01*
X97653095Y-57657142D01*
X97700714Y-57704761D01*
X97795952Y-57752380D01*
X98034047Y-57752380D01*
X98129285Y-57704761D01*
X98176904Y-57657142D01*
X96700714Y-56752380D02*
X97176904Y-56752380D01*
X97224523Y-57228571D01*
X97176904Y-57180952D01*
X97081666Y-57133333D01*
X96843571Y-57133333D01*
X96748333Y-57180952D01*
X96700714Y-57228571D01*
X96653095Y-57323809D01*
X96653095Y-57561904D01*
X96700714Y-57657142D01*
X96748333Y-57704761D01*
X96843571Y-57752380D01*
X97081666Y-57752380D01*
X97176904Y-57704761D01*
X97224523Y-57657142D01*
%TO.C,R56*%
X113452380Y-62657142D02*
X112976190Y-62323809D01*
X113452380Y-62085714D02*
X112452380Y-62085714D01*
X112452380Y-62466666D01*
X112500000Y-62561904D01*
X112547619Y-62609523D01*
X112642857Y-62657142D01*
X112785714Y-62657142D01*
X112880952Y-62609523D01*
X112928571Y-62561904D01*
X112976190Y-62466666D01*
X112976190Y-62085714D01*
X112452380Y-63561904D02*
X112452380Y-63085714D01*
X112928571Y-63038095D01*
X112880952Y-63085714D01*
X112833333Y-63180952D01*
X112833333Y-63419047D01*
X112880952Y-63514285D01*
X112928571Y-63561904D01*
X113023809Y-63609523D01*
X113261904Y-63609523D01*
X113357142Y-63561904D01*
X113404761Y-63514285D01*
X113452380Y-63419047D01*
X113452380Y-63180952D01*
X113404761Y-63085714D01*
X113357142Y-63038095D01*
X112452380Y-64466666D02*
X112452380Y-64276190D01*
X112500000Y-64180952D01*
X112547619Y-64133333D01*
X112690476Y-64038095D01*
X112880952Y-63990476D01*
X113261904Y-63990476D01*
X113357142Y-64038095D01*
X113404761Y-64085714D01*
X113452380Y-64180952D01*
X113452380Y-64371428D01*
X113404761Y-64466666D01*
X113357142Y-64514285D01*
X113261904Y-64561904D01*
X113023809Y-64561904D01*
X112928571Y-64514285D01*
X112880952Y-64466666D01*
X112833333Y-64371428D01*
X112833333Y-64180952D01*
X112880952Y-64085714D01*
X112928571Y-64038095D01*
X113023809Y-63990476D01*
%TO.C,R57*%
X102257857Y-65452380D02*
X102591190Y-64976190D01*
X102829285Y-65452380D02*
X102829285Y-64452380D01*
X102448333Y-64452380D01*
X102353095Y-64500000D01*
X102305476Y-64547619D01*
X102257857Y-64642857D01*
X102257857Y-64785714D01*
X102305476Y-64880952D01*
X102353095Y-64928571D01*
X102448333Y-64976190D01*
X102829285Y-64976190D01*
X101353095Y-64452380D02*
X101829285Y-64452380D01*
X101876904Y-64928571D01*
X101829285Y-64880952D01*
X101734047Y-64833333D01*
X101495952Y-64833333D01*
X101400714Y-64880952D01*
X101353095Y-64928571D01*
X101305476Y-65023809D01*
X101305476Y-65261904D01*
X101353095Y-65357142D01*
X101400714Y-65404761D01*
X101495952Y-65452380D01*
X101734047Y-65452380D01*
X101829285Y-65404761D01*
X101876904Y-65357142D01*
X100972142Y-64452380D02*
X100305476Y-64452380D01*
X100734047Y-65452380D01*
%TO.C,R58*%
X149552380Y-64457142D02*
X149076190Y-64123809D01*
X149552380Y-63885714D02*
X148552380Y-63885714D01*
X148552380Y-64266666D01*
X148600000Y-64361904D01*
X148647619Y-64409523D01*
X148742857Y-64457142D01*
X148885714Y-64457142D01*
X148980952Y-64409523D01*
X149028571Y-64361904D01*
X149076190Y-64266666D01*
X149076190Y-63885714D01*
X148552380Y-65361904D02*
X148552380Y-64885714D01*
X149028571Y-64838095D01*
X148980952Y-64885714D01*
X148933333Y-64980952D01*
X148933333Y-65219047D01*
X148980952Y-65314285D01*
X149028571Y-65361904D01*
X149123809Y-65409523D01*
X149361904Y-65409523D01*
X149457142Y-65361904D01*
X149504761Y-65314285D01*
X149552380Y-65219047D01*
X149552380Y-64980952D01*
X149504761Y-64885714D01*
X149457142Y-64838095D01*
X148980952Y-65980952D02*
X148933333Y-65885714D01*
X148885714Y-65838095D01*
X148790476Y-65790476D01*
X148742857Y-65790476D01*
X148647619Y-65838095D01*
X148600000Y-65885714D01*
X148552380Y-65980952D01*
X148552380Y-66171428D01*
X148600000Y-66266666D01*
X148647619Y-66314285D01*
X148742857Y-66361904D01*
X148790476Y-66361904D01*
X148885714Y-66314285D01*
X148933333Y-66266666D01*
X148980952Y-66171428D01*
X148980952Y-65980952D01*
X149028571Y-65885714D01*
X149076190Y-65838095D01*
X149171428Y-65790476D01*
X149361904Y-65790476D01*
X149457142Y-65838095D01*
X149504761Y-65885714D01*
X149552380Y-65980952D01*
X149552380Y-66171428D01*
X149504761Y-66266666D01*
X149457142Y-66314285D01*
X149361904Y-66361904D01*
X149171428Y-66361904D01*
X149076190Y-66314285D01*
X149028571Y-66266666D01*
X148980952Y-66171428D01*
%TO.C,R60*%
X145952380Y-58957142D02*
X145476190Y-58623809D01*
X145952380Y-58385714D02*
X144952380Y-58385714D01*
X144952380Y-58766666D01*
X145000000Y-58861904D01*
X145047619Y-58909523D01*
X145142857Y-58957142D01*
X145285714Y-58957142D01*
X145380952Y-58909523D01*
X145428571Y-58861904D01*
X145476190Y-58766666D01*
X145476190Y-58385714D01*
X144952380Y-59814285D02*
X144952380Y-59623809D01*
X145000000Y-59528571D01*
X145047619Y-59480952D01*
X145190476Y-59385714D01*
X145380952Y-59338095D01*
X145761904Y-59338095D01*
X145857142Y-59385714D01*
X145904761Y-59433333D01*
X145952380Y-59528571D01*
X145952380Y-59719047D01*
X145904761Y-59814285D01*
X145857142Y-59861904D01*
X145761904Y-59909523D01*
X145523809Y-59909523D01*
X145428571Y-59861904D01*
X145380952Y-59814285D01*
X145333333Y-59719047D01*
X145333333Y-59528571D01*
X145380952Y-59433333D01*
X145428571Y-59385714D01*
X145523809Y-59338095D01*
X144952380Y-60528571D02*
X144952380Y-60623809D01*
X145000000Y-60719047D01*
X145047619Y-60766666D01*
X145142857Y-60814285D01*
X145333333Y-60861904D01*
X145571428Y-60861904D01*
X145761904Y-60814285D01*
X145857142Y-60766666D01*
X145904761Y-60719047D01*
X145952380Y-60623809D01*
X145952380Y-60528571D01*
X145904761Y-60433333D01*
X145857142Y-60385714D01*
X145761904Y-60338095D01*
X145571428Y-60290476D01*
X145333333Y-60290476D01*
X145142857Y-60338095D01*
X145047619Y-60385714D01*
X145000000Y-60433333D01*
X144952380Y-60528571D01*
%TO.C,R61*%
X144752380Y-64457142D02*
X144276190Y-64123809D01*
X144752380Y-63885714D02*
X143752380Y-63885714D01*
X143752380Y-64266666D01*
X143800000Y-64361904D01*
X143847619Y-64409523D01*
X143942857Y-64457142D01*
X144085714Y-64457142D01*
X144180952Y-64409523D01*
X144228571Y-64361904D01*
X144276190Y-64266666D01*
X144276190Y-63885714D01*
X143752380Y-65314285D02*
X143752380Y-65123809D01*
X143800000Y-65028571D01*
X143847619Y-64980952D01*
X143990476Y-64885714D01*
X144180952Y-64838095D01*
X144561904Y-64838095D01*
X144657142Y-64885714D01*
X144704761Y-64933333D01*
X144752380Y-65028571D01*
X144752380Y-65219047D01*
X144704761Y-65314285D01*
X144657142Y-65361904D01*
X144561904Y-65409523D01*
X144323809Y-65409523D01*
X144228571Y-65361904D01*
X144180952Y-65314285D01*
X144133333Y-65219047D01*
X144133333Y-65028571D01*
X144180952Y-64933333D01*
X144228571Y-64885714D01*
X144323809Y-64838095D01*
X144752380Y-66361904D02*
X144752380Y-65790476D01*
X144752380Y-66076190D02*
X143752380Y-66076190D01*
X143895238Y-65980952D01*
X143990476Y-65885714D01*
X144038095Y-65790476D01*
%TO.C,R62*%
X149652380Y-58557142D02*
X149176190Y-58223809D01*
X149652380Y-57985714D02*
X148652380Y-57985714D01*
X148652380Y-58366666D01*
X148700000Y-58461904D01*
X148747619Y-58509523D01*
X148842857Y-58557142D01*
X148985714Y-58557142D01*
X149080952Y-58509523D01*
X149128571Y-58461904D01*
X149176190Y-58366666D01*
X149176190Y-57985714D01*
X148652380Y-59414285D02*
X148652380Y-59223809D01*
X148700000Y-59128571D01*
X148747619Y-59080952D01*
X148890476Y-58985714D01*
X149080952Y-58938095D01*
X149461904Y-58938095D01*
X149557142Y-58985714D01*
X149604761Y-59033333D01*
X149652380Y-59128571D01*
X149652380Y-59319047D01*
X149604761Y-59414285D01*
X149557142Y-59461904D01*
X149461904Y-59509523D01*
X149223809Y-59509523D01*
X149128571Y-59461904D01*
X149080952Y-59414285D01*
X149033333Y-59319047D01*
X149033333Y-59128571D01*
X149080952Y-59033333D01*
X149128571Y-58985714D01*
X149223809Y-58938095D01*
X148747619Y-59890476D02*
X148700000Y-59938095D01*
X148652380Y-60033333D01*
X148652380Y-60271428D01*
X148700000Y-60366666D01*
X148747619Y-60414285D01*
X148842857Y-60461904D01*
X148938095Y-60461904D01*
X149080952Y-60414285D01*
X149652380Y-59842857D01*
X149652380Y-60461904D01*
%TO.C,R63*%
X91066857Y-52776380D02*
X91400190Y-52300190D01*
X91638285Y-52776380D02*
X91638285Y-51776380D01*
X91257333Y-51776380D01*
X91162095Y-51824000D01*
X91114476Y-51871619D01*
X91066857Y-51966857D01*
X91066857Y-52109714D01*
X91114476Y-52204952D01*
X91162095Y-52252571D01*
X91257333Y-52300190D01*
X91638285Y-52300190D01*
X90209714Y-51776380D02*
X90400190Y-51776380D01*
X90495428Y-51824000D01*
X90543047Y-51871619D01*
X90638285Y-52014476D01*
X90685904Y-52204952D01*
X90685904Y-52585904D01*
X90638285Y-52681142D01*
X90590666Y-52728761D01*
X90495428Y-52776380D01*
X90304952Y-52776380D01*
X90209714Y-52728761D01*
X90162095Y-52681142D01*
X90114476Y-52585904D01*
X90114476Y-52347809D01*
X90162095Y-52252571D01*
X90209714Y-52204952D01*
X90304952Y-52157333D01*
X90495428Y-52157333D01*
X90590666Y-52204952D01*
X90638285Y-52252571D01*
X90685904Y-52347809D01*
X89781142Y-51776380D02*
X89162095Y-51776380D01*
X89495428Y-52157333D01*
X89352571Y-52157333D01*
X89257333Y-52204952D01*
X89209714Y-52252571D01*
X89162095Y-52347809D01*
X89162095Y-52585904D01*
X89209714Y-52681142D01*
X89257333Y-52728761D01*
X89352571Y-52776380D01*
X89638285Y-52776380D01*
X89733523Y-52728761D01*
X89781142Y-52681142D01*
%TO.C,R64*%
X82052380Y-57269142D02*
X81576190Y-56935809D01*
X82052380Y-56697714D02*
X81052380Y-56697714D01*
X81052380Y-57078666D01*
X81100000Y-57173904D01*
X81147619Y-57221523D01*
X81242857Y-57269142D01*
X81385714Y-57269142D01*
X81480952Y-57221523D01*
X81528571Y-57173904D01*
X81576190Y-57078666D01*
X81576190Y-56697714D01*
X81052380Y-58126285D02*
X81052380Y-57935809D01*
X81100000Y-57840571D01*
X81147619Y-57792952D01*
X81290476Y-57697714D01*
X81480952Y-57650095D01*
X81861904Y-57650095D01*
X81957142Y-57697714D01*
X82004761Y-57745333D01*
X82052380Y-57840571D01*
X82052380Y-58031047D01*
X82004761Y-58126285D01*
X81957142Y-58173904D01*
X81861904Y-58221523D01*
X81623809Y-58221523D01*
X81528571Y-58173904D01*
X81480952Y-58126285D01*
X81433333Y-58031047D01*
X81433333Y-57840571D01*
X81480952Y-57745333D01*
X81528571Y-57697714D01*
X81623809Y-57650095D01*
X81385714Y-59078666D02*
X82052380Y-59078666D01*
X81004761Y-58840571D02*
X81719047Y-58602476D01*
X81719047Y-59221523D01*
%TO.C,R65*%
X95448380Y-57777142D02*
X94972190Y-57443809D01*
X95448380Y-57205714D02*
X94448380Y-57205714D01*
X94448380Y-57586666D01*
X94496000Y-57681904D01*
X94543619Y-57729523D01*
X94638857Y-57777142D01*
X94781714Y-57777142D01*
X94876952Y-57729523D01*
X94924571Y-57681904D01*
X94972190Y-57586666D01*
X94972190Y-57205714D01*
X94448380Y-58634285D02*
X94448380Y-58443809D01*
X94496000Y-58348571D01*
X94543619Y-58300952D01*
X94686476Y-58205714D01*
X94876952Y-58158095D01*
X95257904Y-58158095D01*
X95353142Y-58205714D01*
X95400761Y-58253333D01*
X95448380Y-58348571D01*
X95448380Y-58539047D01*
X95400761Y-58634285D01*
X95353142Y-58681904D01*
X95257904Y-58729523D01*
X95019809Y-58729523D01*
X94924571Y-58681904D01*
X94876952Y-58634285D01*
X94829333Y-58539047D01*
X94829333Y-58348571D01*
X94876952Y-58253333D01*
X94924571Y-58205714D01*
X95019809Y-58158095D01*
X94448380Y-59634285D02*
X94448380Y-59158095D01*
X94924571Y-59110476D01*
X94876952Y-59158095D01*
X94829333Y-59253333D01*
X94829333Y-59491428D01*
X94876952Y-59586666D01*
X94924571Y-59634285D01*
X95019809Y-59681904D01*
X95257904Y-59681904D01*
X95353142Y-59634285D01*
X95400761Y-59586666D01*
X95448380Y-59491428D01*
X95448380Y-59253333D01*
X95400761Y-59158095D01*
X95353142Y-59110476D01*
%TO.C,R66*%
X75128380Y-52434206D02*
X74652190Y-52100873D01*
X75128380Y-51862778D02*
X74128380Y-51862778D01*
X74128380Y-52243730D01*
X74176000Y-52338968D01*
X74223619Y-52386587D01*
X74318857Y-52434206D01*
X74461714Y-52434206D01*
X74556952Y-52386587D01*
X74604571Y-52338968D01*
X74652190Y-52243730D01*
X74652190Y-51862778D01*
X74128380Y-53291349D02*
X74128380Y-53100873D01*
X74176000Y-53005635D01*
X74223619Y-52958016D01*
X74366476Y-52862778D01*
X74556952Y-52815159D01*
X74937904Y-52815159D01*
X75033142Y-52862778D01*
X75080761Y-52910397D01*
X75128380Y-53005635D01*
X75128380Y-53196111D01*
X75080761Y-53291349D01*
X75033142Y-53338968D01*
X74937904Y-53386587D01*
X74699809Y-53386587D01*
X74604571Y-53338968D01*
X74556952Y-53291349D01*
X74509333Y-53196111D01*
X74509333Y-53005635D01*
X74556952Y-52910397D01*
X74604571Y-52862778D01*
X74699809Y-52815159D01*
X74128380Y-54243730D02*
X74128380Y-54053254D01*
X74176000Y-53958016D01*
X74223619Y-53910397D01*
X74366476Y-53815159D01*
X74556952Y-53767540D01*
X74937904Y-53767540D01*
X75033142Y-53815159D01*
X75080761Y-53862778D01*
X75128380Y-53958016D01*
X75128380Y-54148492D01*
X75080761Y-54243730D01*
X75033142Y-54291349D01*
X74937904Y-54338968D01*
X74699809Y-54338968D01*
X74604571Y-54291349D01*
X74556952Y-54243730D01*
X74509333Y-54148492D01*
X74509333Y-53958016D01*
X74556952Y-53862778D01*
X74604571Y-53815159D01*
X74699809Y-53767540D01*
%TO.C,R67*%
X123896380Y-102481142D02*
X123420190Y-102147809D01*
X123896380Y-101909714D02*
X122896380Y-101909714D01*
X122896380Y-102290666D01*
X122944000Y-102385904D01*
X122991619Y-102433523D01*
X123086857Y-102481142D01*
X123229714Y-102481142D01*
X123324952Y-102433523D01*
X123372571Y-102385904D01*
X123420190Y-102290666D01*
X123420190Y-101909714D01*
X122896380Y-103338285D02*
X122896380Y-103147809D01*
X122944000Y-103052571D01*
X122991619Y-103004952D01*
X123134476Y-102909714D01*
X123324952Y-102862095D01*
X123705904Y-102862095D01*
X123801142Y-102909714D01*
X123848761Y-102957333D01*
X123896380Y-103052571D01*
X123896380Y-103243047D01*
X123848761Y-103338285D01*
X123801142Y-103385904D01*
X123705904Y-103433523D01*
X123467809Y-103433523D01*
X123372571Y-103385904D01*
X123324952Y-103338285D01*
X123277333Y-103243047D01*
X123277333Y-103052571D01*
X123324952Y-102957333D01*
X123372571Y-102909714D01*
X123467809Y-102862095D01*
X122896380Y-103766857D02*
X122896380Y-104433523D01*
X123896380Y-104004952D01*
%TO.C,R69*%
X130690857Y-97988380D02*
X131024190Y-97512190D01*
X131262285Y-97988380D02*
X131262285Y-96988380D01*
X130881333Y-96988380D01*
X130786095Y-97036000D01*
X130738476Y-97083619D01*
X130690857Y-97178857D01*
X130690857Y-97321714D01*
X130738476Y-97416952D01*
X130786095Y-97464571D01*
X130881333Y-97512190D01*
X131262285Y-97512190D01*
X129833714Y-96988380D02*
X130024190Y-96988380D01*
X130119428Y-97036000D01*
X130167047Y-97083619D01*
X130262285Y-97226476D01*
X130309904Y-97416952D01*
X130309904Y-97797904D01*
X130262285Y-97893142D01*
X130214666Y-97940761D01*
X130119428Y-97988380D01*
X129928952Y-97988380D01*
X129833714Y-97940761D01*
X129786095Y-97893142D01*
X129738476Y-97797904D01*
X129738476Y-97559809D01*
X129786095Y-97464571D01*
X129833714Y-97416952D01*
X129928952Y-97369333D01*
X130119428Y-97369333D01*
X130214666Y-97416952D01*
X130262285Y-97464571D01*
X130309904Y-97559809D01*
X129262285Y-97988380D02*
X129071809Y-97988380D01*
X128976571Y-97940761D01*
X128928952Y-97893142D01*
X128833714Y-97750285D01*
X128786095Y-97559809D01*
X128786095Y-97178857D01*
X128833714Y-97083619D01*
X128881333Y-97036000D01*
X128976571Y-96988380D01*
X129167047Y-96988380D01*
X129262285Y-97036000D01*
X129309904Y-97083619D01*
X129357523Y-97178857D01*
X129357523Y-97416952D01*
X129309904Y-97512190D01*
X129262285Y-97559809D01*
X129167047Y-97607428D01*
X128976571Y-97607428D01*
X128881333Y-97559809D01*
X128833714Y-97512190D01*
X128786095Y-97416952D01*
%TO.C,Q9*%
X87471238Y-56427619D02*
X87566476Y-56380000D01*
X87661714Y-56284761D01*
X87804571Y-56141904D01*
X87899809Y-56094285D01*
X87995047Y-56094285D01*
X87947428Y-56332380D02*
X88042666Y-56284761D01*
X88137904Y-56189523D01*
X88185523Y-55999047D01*
X88185523Y-55665714D01*
X88137904Y-55475238D01*
X88042666Y-55380000D01*
X87947428Y-55332380D01*
X87756952Y-55332380D01*
X87661714Y-55380000D01*
X87566476Y-55475238D01*
X87518857Y-55665714D01*
X87518857Y-55999047D01*
X87566476Y-56189523D01*
X87661714Y-56284761D01*
X87756952Y-56332380D01*
X87947428Y-56332380D01*
X87042666Y-56332380D02*
X86852190Y-56332380D01*
X86756952Y-56284761D01*
X86709333Y-56237142D01*
X86614095Y-56094285D01*
X86566476Y-55903809D01*
X86566476Y-55522857D01*
X86614095Y-55427619D01*
X86661714Y-55380000D01*
X86756952Y-55332380D01*
X86947428Y-55332380D01*
X87042666Y-55380000D01*
X87090285Y-55427619D01*
X87137904Y-55522857D01*
X87137904Y-55760952D01*
X87090285Y-55856190D01*
X87042666Y-55903809D01*
X86947428Y-55951428D01*
X86756952Y-55951428D01*
X86661714Y-55903809D01*
X86614095Y-55856190D01*
X86566476Y-55760952D01*
%TO.C,Q10*%
X83447619Y-52178571D02*
X83400000Y-52083333D01*
X83304761Y-51988095D01*
X83161904Y-51845238D01*
X83114285Y-51750000D01*
X83114285Y-51654761D01*
X83352380Y-51702380D02*
X83304761Y-51607142D01*
X83209523Y-51511904D01*
X83019047Y-51464285D01*
X82685714Y-51464285D01*
X82495238Y-51511904D01*
X82400000Y-51607142D01*
X82352380Y-51702380D01*
X82352380Y-51892857D01*
X82400000Y-51988095D01*
X82495238Y-52083333D01*
X82685714Y-52130952D01*
X83019047Y-52130952D01*
X83209523Y-52083333D01*
X83304761Y-51988095D01*
X83352380Y-51892857D01*
X83352380Y-51702380D01*
X83352380Y-53083333D02*
X83352380Y-52511904D01*
X83352380Y-52797619D02*
X82352380Y-52797619D01*
X82495238Y-52702380D01*
X82590476Y-52607142D01*
X82638095Y-52511904D01*
X82352380Y-53702380D02*
X82352380Y-53797619D01*
X82400000Y-53892857D01*
X82447619Y-53940476D01*
X82542857Y-53988095D01*
X82733333Y-54035714D01*
X82971428Y-54035714D01*
X83161904Y-53988095D01*
X83257142Y-53940476D01*
X83304761Y-53892857D01*
X83352380Y-53797619D01*
X83352380Y-53702380D01*
X83304761Y-53607142D01*
X83257142Y-53559523D01*
X83161904Y-53511904D01*
X82971428Y-53464285D01*
X82733333Y-53464285D01*
X82542857Y-53511904D01*
X82447619Y-53559523D01*
X82400000Y-53607142D01*
X82352380Y-53702380D01*
%TO.C,Q11*%
X127697619Y-102552571D02*
X127650000Y-102457333D01*
X127554761Y-102362095D01*
X127411904Y-102219238D01*
X127364285Y-102124000D01*
X127364285Y-102028761D01*
X127602380Y-102076380D02*
X127554761Y-101981142D01*
X127459523Y-101885904D01*
X127269047Y-101838285D01*
X126935714Y-101838285D01*
X126745238Y-101885904D01*
X126650000Y-101981142D01*
X126602380Y-102076380D01*
X126602380Y-102266857D01*
X126650000Y-102362095D01*
X126745238Y-102457333D01*
X126935714Y-102504952D01*
X127269047Y-102504952D01*
X127459523Y-102457333D01*
X127554761Y-102362095D01*
X127602380Y-102266857D01*
X127602380Y-102076380D01*
X127602380Y-103457333D02*
X127602380Y-102885904D01*
X127602380Y-103171619D02*
X126602380Y-103171619D01*
X126745238Y-103076380D01*
X126840476Y-102981142D01*
X126888095Y-102885904D01*
X127602380Y-104409714D02*
X127602380Y-103838285D01*
X127602380Y-104124000D02*
X126602380Y-104124000D01*
X126745238Y-104028761D01*
X126840476Y-103933523D01*
X126888095Y-103838285D01*
%TO.C,D1*%
X60904380Y-53109904D02*
X59904380Y-53109904D01*
X59904380Y-53348000D01*
X59952000Y-53490857D01*
X60047238Y-53586095D01*
X60142476Y-53633714D01*
X60332952Y-53681333D01*
X60475809Y-53681333D01*
X60666285Y-53633714D01*
X60761523Y-53586095D01*
X60856761Y-53490857D01*
X60904380Y-53348000D01*
X60904380Y-53109904D01*
X60904380Y-54633714D02*
X60904380Y-54062285D01*
X60904380Y-54348000D02*
X59904380Y-54348000D01*
X60047238Y-54252761D01*
X60142476Y-54157523D01*
X60190095Y-54062285D01*
%TO.C,D13*%
X68524380Y-53141714D02*
X67524380Y-53141714D01*
X67524380Y-53379809D01*
X67572000Y-53522666D01*
X67667238Y-53617904D01*
X67762476Y-53665523D01*
X67952952Y-53713142D01*
X68095809Y-53713142D01*
X68286285Y-53665523D01*
X68381523Y-53617904D01*
X68476761Y-53522666D01*
X68524380Y-53379809D01*
X68524380Y-53141714D01*
X68524380Y-54665523D02*
X68524380Y-54094095D01*
X68524380Y-54379809D02*
X67524380Y-54379809D01*
X67667238Y-54284571D01*
X67762476Y-54189333D01*
X67810095Y-54094095D01*
X67524380Y-54998857D02*
X67524380Y-55617904D01*
X67905333Y-55284571D01*
X67905333Y-55427428D01*
X67952952Y-55522666D01*
X68000571Y-55570285D01*
X68095809Y-55617904D01*
X68333904Y-55617904D01*
X68429142Y-55570285D01*
X68476761Y-55522666D01*
X68524380Y-55427428D01*
X68524380Y-55141714D01*
X68476761Y-55046476D01*
X68429142Y-54998857D01*
%TO.C,D28*%
X221852380Y-124185714D02*
X220852380Y-124185714D01*
X220852380Y-124423809D01*
X220900000Y-124566666D01*
X220995238Y-124661904D01*
X221090476Y-124709523D01*
X221280952Y-124757142D01*
X221423809Y-124757142D01*
X221614285Y-124709523D01*
X221709523Y-124661904D01*
X221804761Y-124566666D01*
X221852380Y-124423809D01*
X221852380Y-124185714D01*
X220947619Y-125138095D02*
X220900000Y-125185714D01*
X220852380Y-125280952D01*
X220852380Y-125519047D01*
X220900000Y-125614285D01*
X220947619Y-125661904D01*
X221042857Y-125709523D01*
X221138095Y-125709523D01*
X221280952Y-125661904D01*
X221852380Y-125090476D01*
X221852380Y-125709523D01*
X221280952Y-126280952D02*
X221233333Y-126185714D01*
X221185714Y-126138095D01*
X221090476Y-126090476D01*
X221042857Y-126090476D01*
X220947619Y-126138095D01*
X220900000Y-126185714D01*
X220852380Y-126280952D01*
X220852380Y-126471428D01*
X220900000Y-126566666D01*
X220947619Y-126614285D01*
X221042857Y-126661904D01*
X221090476Y-126661904D01*
X221185714Y-126614285D01*
X221233333Y-126566666D01*
X221280952Y-126471428D01*
X221280952Y-126280952D01*
X221328571Y-126185714D01*
X221376190Y-126138095D01*
X221471428Y-126090476D01*
X221661904Y-126090476D01*
X221757142Y-126138095D01*
X221804761Y-126185714D01*
X221852380Y-126280952D01*
X221852380Y-126471428D01*
X221804761Y-126566666D01*
X221757142Y-126614285D01*
X221661904Y-126661904D01*
X221471428Y-126661904D01*
X221376190Y-126614285D01*
X221328571Y-126566666D01*
X221280952Y-126471428D01*
%TO.C,D29*%
X221652380Y-111385714D02*
X220652380Y-111385714D01*
X220652380Y-111623809D01*
X220700000Y-111766666D01*
X220795238Y-111861904D01*
X220890476Y-111909523D01*
X221080952Y-111957142D01*
X221223809Y-111957142D01*
X221414285Y-111909523D01*
X221509523Y-111861904D01*
X221604761Y-111766666D01*
X221652380Y-111623809D01*
X221652380Y-111385714D01*
X220747619Y-112338095D02*
X220700000Y-112385714D01*
X220652380Y-112480952D01*
X220652380Y-112719047D01*
X220700000Y-112814285D01*
X220747619Y-112861904D01*
X220842857Y-112909523D01*
X220938095Y-112909523D01*
X221080952Y-112861904D01*
X221652380Y-112290476D01*
X221652380Y-112909523D01*
X221652380Y-113385714D02*
X221652380Y-113576190D01*
X221604761Y-113671428D01*
X221557142Y-113719047D01*
X221414285Y-113814285D01*
X221223809Y-113861904D01*
X220842857Y-113861904D01*
X220747619Y-113814285D01*
X220700000Y-113766666D01*
X220652380Y-113671428D01*
X220652380Y-113480952D01*
X220700000Y-113385714D01*
X220747619Y-113338095D01*
X220842857Y-113290476D01*
X221080952Y-113290476D01*
X221176190Y-113338095D01*
X221223809Y-113385714D01*
X221271428Y-113480952D01*
X221271428Y-113671428D01*
X221223809Y-113766666D01*
X221176190Y-113814285D01*
X221080952Y-113861904D01*
%TO.C,D30*%
X221352380Y-98685714D02*
X220352380Y-98685714D01*
X220352380Y-98923809D01*
X220400000Y-99066666D01*
X220495238Y-99161904D01*
X220590476Y-99209523D01*
X220780952Y-99257142D01*
X220923809Y-99257142D01*
X221114285Y-99209523D01*
X221209523Y-99161904D01*
X221304761Y-99066666D01*
X221352380Y-98923809D01*
X221352380Y-98685714D01*
X220352380Y-99590476D02*
X220352380Y-100209523D01*
X220733333Y-99876190D01*
X220733333Y-100019047D01*
X220780952Y-100114285D01*
X220828571Y-100161904D01*
X220923809Y-100209523D01*
X221161904Y-100209523D01*
X221257142Y-100161904D01*
X221304761Y-100114285D01*
X221352380Y-100019047D01*
X221352380Y-99733333D01*
X221304761Y-99638095D01*
X221257142Y-99590476D01*
X220352380Y-100828571D02*
X220352380Y-100923809D01*
X220400000Y-101019047D01*
X220447619Y-101066666D01*
X220542857Y-101114285D01*
X220733333Y-101161904D01*
X220971428Y-101161904D01*
X221161904Y-101114285D01*
X221257142Y-101066666D01*
X221304761Y-101019047D01*
X221352380Y-100923809D01*
X221352380Y-100828571D01*
X221304761Y-100733333D01*
X221257142Y-100685714D01*
X221161904Y-100638095D01*
X220971428Y-100590476D01*
X220733333Y-100590476D01*
X220542857Y-100638095D01*
X220447619Y-100685714D01*
X220400000Y-100733333D01*
X220352380Y-100828571D01*
%TO.C,D35*%
X221352380Y-85285714D02*
X220352380Y-85285714D01*
X220352380Y-85523809D01*
X220400000Y-85666666D01*
X220495238Y-85761904D01*
X220590476Y-85809523D01*
X220780952Y-85857142D01*
X220923809Y-85857142D01*
X221114285Y-85809523D01*
X221209523Y-85761904D01*
X221304761Y-85666666D01*
X221352380Y-85523809D01*
X221352380Y-85285714D01*
X220352380Y-86190476D02*
X220352380Y-86809523D01*
X220733333Y-86476190D01*
X220733333Y-86619047D01*
X220780952Y-86714285D01*
X220828571Y-86761904D01*
X220923809Y-86809523D01*
X221161904Y-86809523D01*
X221257142Y-86761904D01*
X221304761Y-86714285D01*
X221352380Y-86619047D01*
X221352380Y-86333333D01*
X221304761Y-86238095D01*
X221257142Y-86190476D01*
X220352380Y-87714285D02*
X220352380Y-87238095D01*
X220828571Y-87190476D01*
X220780952Y-87238095D01*
X220733333Y-87333333D01*
X220733333Y-87571428D01*
X220780952Y-87666666D01*
X220828571Y-87714285D01*
X220923809Y-87761904D01*
X221161904Y-87761904D01*
X221257142Y-87714285D01*
X221304761Y-87666666D01*
X221352380Y-87571428D01*
X221352380Y-87333333D01*
X221304761Y-87238095D01*
X221257142Y-87190476D01*
%TO.C,D37*%
X214952380Y-59285714D02*
X213952380Y-59285714D01*
X213952380Y-59523809D01*
X214000000Y-59666666D01*
X214095238Y-59761904D01*
X214190476Y-59809523D01*
X214380952Y-59857142D01*
X214523809Y-59857142D01*
X214714285Y-59809523D01*
X214809523Y-59761904D01*
X214904761Y-59666666D01*
X214952380Y-59523809D01*
X214952380Y-59285714D01*
X213952380Y-60190476D02*
X213952380Y-60809523D01*
X214333333Y-60476190D01*
X214333333Y-60619047D01*
X214380952Y-60714285D01*
X214428571Y-60761904D01*
X214523809Y-60809523D01*
X214761904Y-60809523D01*
X214857142Y-60761904D01*
X214904761Y-60714285D01*
X214952380Y-60619047D01*
X214952380Y-60333333D01*
X214904761Y-60238095D01*
X214857142Y-60190476D01*
X213952380Y-61142857D02*
X213952380Y-61809523D01*
X214952380Y-61380952D01*
%TO.C,D38*%
X202252380Y-60085714D02*
X201252380Y-60085714D01*
X201252380Y-60323809D01*
X201300000Y-60466666D01*
X201395238Y-60561904D01*
X201490476Y-60609523D01*
X201680952Y-60657142D01*
X201823809Y-60657142D01*
X202014285Y-60609523D01*
X202109523Y-60561904D01*
X202204761Y-60466666D01*
X202252380Y-60323809D01*
X202252380Y-60085714D01*
X201252380Y-60990476D02*
X201252380Y-61609523D01*
X201633333Y-61276190D01*
X201633333Y-61419047D01*
X201680952Y-61514285D01*
X201728571Y-61561904D01*
X201823809Y-61609523D01*
X202061904Y-61609523D01*
X202157142Y-61561904D01*
X202204761Y-61514285D01*
X202252380Y-61419047D01*
X202252380Y-61133333D01*
X202204761Y-61038095D01*
X202157142Y-60990476D01*
X201680952Y-62180952D02*
X201633333Y-62085714D01*
X201585714Y-62038095D01*
X201490476Y-61990476D01*
X201442857Y-61990476D01*
X201347619Y-62038095D01*
X201300000Y-62085714D01*
X201252380Y-62180952D01*
X201252380Y-62371428D01*
X201300000Y-62466666D01*
X201347619Y-62514285D01*
X201442857Y-62561904D01*
X201490476Y-62561904D01*
X201585714Y-62514285D01*
X201633333Y-62466666D01*
X201680952Y-62371428D01*
X201680952Y-62180952D01*
X201728571Y-62085714D01*
X201776190Y-62038095D01*
X201871428Y-61990476D01*
X202061904Y-61990476D01*
X202157142Y-62038095D01*
X202204761Y-62085714D01*
X202252380Y-62180952D01*
X202252380Y-62371428D01*
X202204761Y-62466666D01*
X202157142Y-62514285D01*
X202061904Y-62561904D01*
X201871428Y-62561904D01*
X201776190Y-62514285D01*
X201728571Y-62466666D01*
X201680952Y-62371428D01*
%TO.C,R81*%
X190842857Y-78202380D02*
X191176190Y-77726190D01*
X191414285Y-78202380D02*
X191414285Y-77202380D01*
X191033333Y-77202380D01*
X190938095Y-77250000D01*
X190890476Y-77297619D01*
X190842857Y-77392857D01*
X190842857Y-77535714D01*
X190890476Y-77630952D01*
X190938095Y-77678571D01*
X191033333Y-77726190D01*
X191414285Y-77726190D01*
X190271428Y-77630952D02*
X190366666Y-77583333D01*
X190414285Y-77535714D01*
X190461904Y-77440476D01*
X190461904Y-77392857D01*
X190414285Y-77297619D01*
X190366666Y-77250000D01*
X190271428Y-77202380D01*
X190080952Y-77202380D01*
X189985714Y-77250000D01*
X189938095Y-77297619D01*
X189890476Y-77392857D01*
X189890476Y-77440476D01*
X189938095Y-77535714D01*
X189985714Y-77583333D01*
X190080952Y-77630952D01*
X190271428Y-77630952D01*
X190366666Y-77678571D01*
X190414285Y-77726190D01*
X190461904Y-77821428D01*
X190461904Y-78011904D01*
X190414285Y-78107142D01*
X190366666Y-78154761D01*
X190271428Y-78202380D01*
X190080952Y-78202380D01*
X189985714Y-78154761D01*
X189938095Y-78107142D01*
X189890476Y-78011904D01*
X189890476Y-77821428D01*
X189938095Y-77726190D01*
X189985714Y-77678571D01*
X190080952Y-77630952D01*
X188938095Y-78202380D02*
X189509523Y-78202380D01*
X189223809Y-78202380D02*
X189223809Y-77202380D01*
X189319047Y-77345238D01*
X189414285Y-77440476D01*
X189509523Y-77488095D01*
%TO.C,R82*%
X164536380Y-74734742D02*
X164060190Y-74401409D01*
X164536380Y-74163314D02*
X163536380Y-74163314D01*
X163536380Y-74544266D01*
X163584000Y-74639504D01*
X163631619Y-74687123D01*
X163726857Y-74734742D01*
X163869714Y-74734742D01*
X163964952Y-74687123D01*
X164012571Y-74639504D01*
X164060190Y-74544266D01*
X164060190Y-74163314D01*
X163964952Y-75306171D02*
X163917333Y-75210933D01*
X163869714Y-75163314D01*
X163774476Y-75115695D01*
X163726857Y-75115695D01*
X163631619Y-75163314D01*
X163584000Y-75210933D01*
X163536380Y-75306171D01*
X163536380Y-75496647D01*
X163584000Y-75591885D01*
X163631619Y-75639504D01*
X163726857Y-75687123D01*
X163774476Y-75687123D01*
X163869714Y-75639504D01*
X163917333Y-75591885D01*
X163964952Y-75496647D01*
X163964952Y-75306171D01*
X164012571Y-75210933D01*
X164060190Y-75163314D01*
X164155428Y-75115695D01*
X164345904Y-75115695D01*
X164441142Y-75163314D01*
X164488761Y-75210933D01*
X164536380Y-75306171D01*
X164536380Y-75496647D01*
X164488761Y-75591885D01*
X164441142Y-75639504D01*
X164345904Y-75687123D01*
X164155428Y-75687123D01*
X164060190Y-75639504D01*
X164012571Y-75591885D01*
X163964952Y-75496647D01*
X163631619Y-76068076D02*
X163584000Y-76115695D01*
X163536380Y-76210933D01*
X163536380Y-76449028D01*
X163584000Y-76544266D01*
X163631619Y-76591885D01*
X163726857Y-76639504D01*
X163822095Y-76639504D01*
X163964952Y-76591885D01*
X164536380Y-76020457D01*
X164536380Y-76639504D01*
%TO.C,R83*%
X161678857Y-80373180D02*
X162012190Y-79896990D01*
X162250285Y-80373180D02*
X162250285Y-79373180D01*
X161869333Y-79373180D01*
X161774095Y-79420800D01*
X161726476Y-79468419D01*
X161678857Y-79563657D01*
X161678857Y-79706514D01*
X161726476Y-79801752D01*
X161774095Y-79849371D01*
X161869333Y-79896990D01*
X162250285Y-79896990D01*
X161107428Y-79801752D02*
X161202666Y-79754133D01*
X161250285Y-79706514D01*
X161297904Y-79611276D01*
X161297904Y-79563657D01*
X161250285Y-79468419D01*
X161202666Y-79420800D01*
X161107428Y-79373180D01*
X160916952Y-79373180D01*
X160821714Y-79420800D01*
X160774095Y-79468419D01*
X160726476Y-79563657D01*
X160726476Y-79611276D01*
X160774095Y-79706514D01*
X160821714Y-79754133D01*
X160916952Y-79801752D01*
X161107428Y-79801752D01*
X161202666Y-79849371D01*
X161250285Y-79896990D01*
X161297904Y-79992228D01*
X161297904Y-80182704D01*
X161250285Y-80277942D01*
X161202666Y-80325561D01*
X161107428Y-80373180D01*
X160916952Y-80373180D01*
X160821714Y-80325561D01*
X160774095Y-80277942D01*
X160726476Y-80182704D01*
X160726476Y-79992228D01*
X160774095Y-79896990D01*
X160821714Y-79849371D01*
X160916952Y-79801752D01*
X160393142Y-79373180D02*
X159774095Y-79373180D01*
X160107428Y-79754133D01*
X159964571Y-79754133D01*
X159869333Y-79801752D01*
X159821714Y-79849371D01*
X159774095Y-79944609D01*
X159774095Y-80182704D01*
X159821714Y-80277942D01*
X159869333Y-80325561D01*
X159964571Y-80373180D01*
X160250285Y-80373180D01*
X160345523Y-80325561D01*
X160393142Y-80277942D01*
%TO.C,R84*%
X197556380Y-67429142D02*
X197080190Y-67095809D01*
X197556380Y-66857714D02*
X196556380Y-66857714D01*
X196556380Y-67238666D01*
X196604000Y-67333904D01*
X196651619Y-67381523D01*
X196746857Y-67429142D01*
X196889714Y-67429142D01*
X196984952Y-67381523D01*
X197032571Y-67333904D01*
X197080190Y-67238666D01*
X197080190Y-66857714D01*
X196984952Y-68000571D02*
X196937333Y-67905333D01*
X196889714Y-67857714D01*
X196794476Y-67810095D01*
X196746857Y-67810095D01*
X196651619Y-67857714D01*
X196604000Y-67905333D01*
X196556380Y-68000571D01*
X196556380Y-68191047D01*
X196604000Y-68286285D01*
X196651619Y-68333904D01*
X196746857Y-68381523D01*
X196794476Y-68381523D01*
X196889714Y-68333904D01*
X196937333Y-68286285D01*
X196984952Y-68191047D01*
X196984952Y-68000571D01*
X197032571Y-67905333D01*
X197080190Y-67857714D01*
X197175428Y-67810095D01*
X197365904Y-67810095D01*
X197461142Y-67857714D01*
X197508761Y-67905333D01*
X197556380Y-68000571D01*
X197556380Y-68191047D01*
X197508761Y-68286285D01*
X197461142Y-68333904D01*
X197365904Y-68381523D01*
X197175428Y-68381523D01*
X197080190Y-68333904D01*
X197032571Y-68286285D01*
X196984952Y-68191047D01*
X196889714Y-69238666D02*
X197556380Y-69238666D01*
X196508761Y-69000571D02*
X197223047Y-68762476D01*
X197223047Y-69381523D01*
%TO.C,R89*%
X199392380Y-71747142D02*
X198916190Y-71413809D01*
X199392380Y-71175714D02*
X198392380Y-71175714D01*
X198392380Y-71556666D01*
X198440000Y-71651904D01*
X198487619Y-71699523D01*
X198582857Y-71747142D01*
X198725714Y-71747142D01*
X198820952Y-71699523D01*
X198868571Y-71651904D01*
X198916190Y-71556666D01*
X198916190Y-71175714D01*
X198820952Y-72318571D02*
X198773333Y-72223333D01*
X198725714Y-72175714D01*
X198630476Y-72128095D01*
X198582857Y-72128095D01*
X198487619Y-72175714D01*
X198440000Y-72223333D01*
X198392380Y-72318571D01*
X198392380Y-72509047D01*
X198440000Y-72604285D01*
X198487619Y-72651904D01*
X198582857Y-72699523D01*
X198630476Y-72699523D01*
X198725714Y-72651904D01*
X198773333Y-72604285D01*
X198820952Y-72509047D01*
X198820952Y-72318571D01*
X198868571Y-72223333D01*
X198916190Y-72175714D01*
X199011428Y-72128095D01*
X199201904Y-72128095D01*
X199297142Y-72175714D01*
X199344761Y-72223333D01*
X199392380Y-72318571D01*
X199392380Y-72509047D01*
X199344761Y-72604285D01*
X199297142Y-72651904D01*
X199201904Y-72699523D01*
X199011428Y-72699523D01*
X198916190Y-72651904D01*
X198868571Y-72604285D01*
X198820952Y-72509047D01*
X199392380Y-73175714D02*
X199392380Y-73366190D01*
X199344761Y-73461428D01*
X199297142Y-73509047D01*
X199154285Y-73604285D01*
X198963809Y-73651904D01*
X198582857Y-73651904D01*
X198487619Y-73604285D01*
X198440000Y-73556666D01*
X198392380Y-73461428D01*
X198392380Y-73270952D01*
X198440000Y-73175714D01*
X198487619Y-73128095D01*
X198582857Y-73080476D01*
X198820952Y-73080476D01*
X198916190Y-73128095D01*
X198963809Y-73175714D01*
X199011428Y-73270952D01*
X199011428Y-73461428D01*
X198963809Y-73556666D01*
X198916190Y-73604285D01*
X198820952Y-73651904D01*
%TO.C,R90*%
X205800980Y-73155942D02*
X205324790Y-72822609D01*
X205800980Y-72584514D02*
X204800980Y-72584514D01*
X204800980Y-72965466D01*
X204848600Y-73060704D01*
X204896219Y-73108323D01*
X204991457Y-73155942D01*
X205134314Y-73155942D01*
X205229552Y-73108323D01*
X205277171Y-73060704D01*
X205324790Y-72965466D01*
X205324790Y-72584514D01*
X205800980Y-73632133D02*
X205800980Y-73822609D01*
X205753361Y-73917847D01*
X205705742Y-73965466D01*
X205562885Y-74060704D01*
X205372409Y-74108323D01*
X204991457Y-74108323D01*
X204896219Y-74060704D01*
X204848600Y-74013085D01*
X204800980Y-73917847D01*
X204800980Y-73727371D01*
X204848600Y-73632133D01*
X204896219Y-73584514D01*
X204991457Y-73536895D01*
X205229552Y-73536895D01*
X205324790Y-73584514D01*
X205372409Y-73632133D01*
X205420028Y-73727371D01*
X205420028Y-73917847D01*
X205372409Y-74013085D01*
X205324790Y-74060704D01*
X205229552Y-74108323D01*
X204800980Y-74727371D02*
X204800980Y-74822609D01*
X204848600Y-74917847D01*
X204896219Y-74965466D01*
X204991457Y-75013085D01*
X205181933Y-75060704D01*
X205420028Y-75060704D01*
X205610504Y-75013085D01*
X205705742Y-74965466D01*
X205753361Y-74917847D01*
X205800980Y-74822609D01*
X205800980Y-74727371D01*
X205753361Y-74632133D01*
X205705742Y-74584514D01*
X205610504Y-74536895D01*
X205420028Y-74489276D01*
X205181933Y-74489276D01*
X204991457Y-74536895D01*
X204896219Y-74584514D01*
X204848600Y-74632133D01*
X204800980Y-74727371D01*
%TO.C,R96*%
X153142857Y-72352380D02*
X153476190Y-71876190D01*
X153714285Y-72352380D02*
X153714285Y-71352380D01*
X153333333Y-71352380D01*
X153238095Y-71400000D01*
X153190476Y-71447619D01*
X153142857Y-71542857D01*
X153142857Y-71685714D01*
X153190476Y-71780952D01*
X153238095Y-71828571D01*
X153333333Y-71876190D01*
X153714285Y-71876190D01*
X152666666Y-72352380D02*
X152476190Y-72352380D01*
X152380952Y-72304761D01*
X152333333Y-72257142D01*
X152238095Y-72114285D01*
X152190476Y-71923809D01*
X152190476Y-71542857D01*
X152238095Y-71447619D01*
X152285714Y-71400000D01*
X152380952Y-71352380D01*
X152571428Y-71352380D01*
X152666666Y-71400000D01*
X152714285Y-71447619D01*
X152761904Y-71542857D01*
X152761904Y-71780952D01*
X152714285Y-71876190D01*
X152666666Y-71923809D01*
X152571428Y-71971428D01*
X152380952Y-71971428D01*
X152285714Y-71923809D01*
X152238095Y-71876190D01*
X152190476Y-71780952D01*
X151333333Y-71352380D02*
X151523809Y-71352380D01*
X151619047Y-71400000D01*
X151666666Y-71447619D01*
X151761904Y-71590476D01*
X151809523Y-71780952D01*
X151809523Y-72161904D01*
X151761904Y-72257142D01*
X151714285Y-72304761D01*
X151619047Y-72352380D01*
X151428571Y-72352380D01*
X151333333Y-72304761D01*
X151285714Y-72257142D01*
X151238095Y-72161904D01*
X151238095Y-71923809D01*
X151285714Y-71828571D01*
X151333333Y-71780952D01*
X151428571Y-71733333D01*
X151619047Y-71733333D01*
X151714285Y-71780952D01*
X151761904Y-71828571D01*
X151809523Y-71923809D01*
%TO.C,R97*%
X165503657Y-68750780D02*
X165836990Y-68274590D01*
X166075085Y-68750780D02*
X166075085Y-67750780D01*
X165694133Y-67750780D01*
X165598895Y-67798400D01*
X165551276Y-67846019D01*
X165503657Y-67941257D01*
X165503657Y-68084114D01*
X165551276Y-68179352D01*
X165598895Y-68226971D01*
X165694133Y-68274590D01*
X166075085Y-68274590D01*
X165027466Y-68750780D02*
X164836990Y-68750780D01*
X164741752Y-68703161D01*
X164694133Y-68655542D01*
X164598895Y-68512685D01*
X164551276Y-68322209D01*
X164551276Y-67941257D01*
X164598895Y-67846019D01*
X164646514Y-67798400D01*
X164741752Y-67750780D01*
X164932228Y-67750780D01*
X165027466Y-67798400D01*
X165075085Y-67846019D01*
X165122704Y-67941257D01*
X165122704Y-68179352D01*
X165075085Y-68274590D01*
X165027466Y-68322209D01*
X164932228Y-68369828D01*
X164741752Y-68369828D01*
X164646514Y-68322209D01*
X164598895Y-68274590D01*
X164551276Y-68179352D01*
X164217942Y-67750780D02*
X163551276Y-67750780D01*
X163979847Y-68750780D01*
D11*
%TO.C,C10*%
X205565000Y-116827064D02*
X205565000Y-116372936D01*
X207035000Y-116827064D02*
X207035000Y-116372936D01*
%TO.C,C11*%
X209577000Y-106397864D02*
X209577000Y-105943736D01*
X211047000Y-106397864D02*
X211047000Y-105943736D01*
%TO.C,C12*%
X210112200Y-94297864D02*
X210112200Y-93843736D01*
X211582200Y-94297864D02*
X211582200Y-93843736D01*
%TO.C,C13*%
X211436020Y-81767664D02*
X211436020Y-81313536D01*
X209966020Y-81767664D02*
X209966020Y-81313536D01*
%TO.C,C14*%
X210612200Y-68397864D02*
X210612200Y-67943736D01*
X212082200Y-68397864D02*
X212082200Y-67943736D01*
%TO.C,C15*%
X195335000Y-65727064D02*
X195335000Y-65272936D01*
X193865000Y-65727064D02*
X193865000Y-65272936D01*
%TO.C,C16*%
X194982200Y-51697864D02*
X194982200Y-51243736D01*
X193512200Y-51697864D02*
X193512200Y-51243736D01*
%TO.C,D2*%
X61500000Y-64050000D02*
X54200000Y-64050000D01*
X61500000Y-68350000D02*
X54200000Y-68350000D01*
X61500000Y-64050000D02*
X61500000Y-68350000D01*
%TO.C,D23*%
X224050000Y-146860000D02*
X228350000Y-146860000D01*
X228350000Y-146860000D02*
X228350000Y-154160000D01*
X224050000Y-146860000D02*
X224050000Y-154160000D01*
%TO.C,D24*%
X228097200Y-133930800D02*
X228097200Y-141230800D01*
X223797200Y-133930800D02*
X228097200Y-133930800D01*
X223797200Y-133930800D02*
X223797200Y-141230800D01*
%TO.C,D25*%
X223797200Y-120930800D02*
X223797200Y-128230800D01*
X223797200Y-120930800D02*
X228097200Y-120930800D01*
X228097200Y-120930800D02*
X228097200Y-128230800D01*
%TO.C,D26*%
X224297200Y-108330800D02*
X224297200Y-115630800D01*
X224297200Y-108330800D02*
X228597200Y-108330800D01*
X228597200Y-108330800D02*
X228597200Y-115630800D01*
%TO.C,D31*%
X228451020Y-95300600D02*
X228451020Y-102600600D01*
X224151020Y-95300600D02*
X228451020Y-95300600D01*
X224151020Y-95300600D02*
X224151020Y-102600600D01*
%TO.C,D32*%
X224850000Y-82100000D02*
X224850000Y-89400000D01*
X224850000Y-82100000D02*
X229150000Y-82100000D01*
X229150000Y-82100000D02*
X229150000Y-89400000D01*
%TO.C,D33*%
X224797200Y-69130800D02*
X224797200Y-76430800D01*
X224797200Y-69130800D02*
X229097200Y-69130800D01*
X229097200Y-69130800D02*
X229097200Y-76430800D01*
%TO.C,D34*%
X228950000Y-56300000D02*
X228950000Y-63600000D01*
X224650000Y-56300000D02*
X228950000Y-56300000D01*
X224650000Y-56300000D02*
X224650000Y-63600000D01*
%TO.C,D39*%
X96600000Y-55650000D02*
X103900000Y-55650000D01*
X96600000Y-55650000D02*
X96600000Y-51350000D01*
X96600000Y-51350000D02*
X103900000Y-51350000D01*
%TO.C,D40*%
X108900000Y-55850000D02*
X108900000Y-51550000D01*
X108900000Y-51550000D02*
X116200000Y-51550000D01*
X108900000Y-55850000D02*
X116200000Y-55850000D01*
%TO.C,D41*%
X121700000Y-56150000D02*
X129000000Y-56150000D01*
X121700000Y-51850000D02*
X129000000Y-51850000D01*
X121700000Y-56150000D02*
X121700000Y-51850000D01*
%TO.C,D42*%
X137800000Y-55850000D02*
X137800000Y-51550000D01*
X137800000Y-55850000D02*
X145100000Y-55850000D01*
X137800000Y-51550000D02*
X145100000Y-51550000D01*
%TO.C,R33*%
X209577000Y-111443736D02*
X209577000Y-111897864D01*
X211047000Y-111443736D02*
X211047000Y-111897864D01*
%TO.C,R38*%
X205427064Y-102065000D02*
X204972936Y-102065000D01*
X205427064Y-103535000D02*
X204972936Y-103535000D01*
%TO.C,R39*%
X203627064Y-115665000D02*
X203172936Y-115665000D01*
X203627064Y-117135000D02*
X203172936Y-117135000D01*
%TO.C,R41*%
X204496936Y-108993000D02*
X204951064Y-108993000D01*
X204496936Y-110463000D02*
X204951064Y-110463000D01*
%TO.C,R42*%
X205120136Y-94805800D02*
X205574264Y-94805800D01*
X205120136Y-93335800D02*
X205574264Y-93335800D01*
%TO.C,R43*%
X211436020Y-86813536D02*
X211436020Y-87267664D01*
X209966020Y-86813536D02*
X209966020Y-87267664D01*
%TO.C,R44*%
X211835000Y-99772936D02*
X211835000Y-100227064D01*
X210365000Y-99772936D02*
X210365000Y-100227064D01*
%TO.C,R46*%
X193512200Y-56743736D02*
X193512200Y-57197864D01*
X194982200Y-56743736D02*
X194982200Y-57197864D01*
%TO.C,R47*%
X205127064Y-88165000D02*
X204672936Y-88165000D01*
X205127064Y-89635000D02*
X204672936Y-89635000D01*
%TO.C,R48*%
X187027064Y-62035000D02*
X186572936Y-62035000D01*
X187027064Y-60565000D02*
X186572936Y-60565000D01*
%TO.C,R49*%
X205427064Y-85535000D02*
X204972936Y-85535000D01*
X205427064Y-84065000D02*
X204972936Y-84065000D01*
%TO.C,R50*%
X185165000Y-56127064D02*
X185165000Y-55672936D01*
X186635000Y-56127064D02*
X186635000Y-55672936D01*
%TO.C,R51*%
X204772936Y-79365000D02*
X205227064Y-79365000D01*
X204772936Y-80835000D02*
X205227064Y-80835000D01*
%TO.C,R52*%
X204972936Y-99235000D02*
X205427064Y-99235000D01*
X204972936Y-97765000D02*
X205427064Y-97765000D01*
%TO.C,R53*%
X185972936Y-65765000D02*
X186427064Y-65765000D01*
X185972936Y-67235000D02*
X186427064Y-67235000D01*
%TO.C,R54*%
X181672936Y-55665000D02*
X182127064Y-55665000D01*
X181672936Y-57135000D02*
X182127064Y-57135000D01*
%TO.C,R55*%
X98142064Y-58565000D02*
X97687936Y-58565000D01*
X98142064Y-60035000D02*
X97687936Y-60035000D01*
%TO.C,R56*%
X109765000Y-63527064D02*
X109765000Y-63072936D01*
X111235000Y-63527064D02*
X111235000Y-63072936D01*
%TO.C,R57*%
X99887936Y-62265000D02*
X100342064Y-62265000D01*
X99887936Y-63735000D02*
X100342064Y-63735000D01*
%TO.C,R58*%
X147835000Y-66327064D02*
X147835000Y-65872936D01*
X146365000Y-66327064D02*
X146365000Y-65872936D01*
%TO.C,R60*%
X144235000Y-60327064D02*
X144235000Y-59872936D01*
X142765000Y-60327064D02*
X142765000Y-59872936D01*
%TO.C,R61*%
X143035000Y-66327064D02*
X143035000Y-65872936D01*
X141565000Y-66327064D02*
X141565000Y-65872936D01*
%TO.C,R62*%
X147935000Y-60427064D02*
X147935000Y-59972936D01*
X146465000Y-60427064D02*
X146465000Y-59972936D01*
%TO.C,R63*%
X89972936Y-53065000D02*
X90427064Y-53065000D01*
X89972936Y-54535000D02*
X90427064Y-54535000D01*
%TO.C,R64*%
X80335000Y-57672936D02*
X80335000Y-58127064D01*
X78865000Y-57672936D02*
X78865000Y-58127064D01*
%TO.C,R65*%
X93835000Y-58472936D02*
X93835000Y-58927064D01*
X92365000Y-58472936D02*
X92365000Y-58927064D01*
%TO.C,R66*%
X77435000Y-53077064D02*
X77435000Y-52622936D01*
X75965000Y-53077064D02*
X75965000Y-52622936D01*
%TO.C,R67*%
X124465000Y-102872936D02*
X124465000Y-103327064D01*
X125935000Y-102872936D02*
X125935000Y-103327064D01*
%TO.C,R69*%
X130427064Y-98265000D02*
X129972936Y-98265000D01*
X130427064Y-99735000D02*
X129972936Y-99735000D01*
%TO.C,Q9*%
X87540000Y-60280000D02*
X87540000Y-59350000D01*
X87540000Y-57120000D02*
X89700000Y-57120000D01*
X87540000Y-60280000D02*
X89000000Y-60280000D01*
X87540000Y-57120000D02*
X87540000Y-58050000D01*
%TO.C,Q10*%
X81160000Y-51170000D02*
X81160000Y-52100000D01*
X81160000Y-51170000D02*
X79700000Y-51170000D01*
X81160000Y-54330000D02*
X79000000Y-54330000D01*
X81160000Y-54330000D02*
X81160000Y-53400000D01*
%TO.C,Q11*%
X131780000Y-102440000D02*
X131780000Y-104600000D01*
X131780000Y-102440000D02*
X130850000Y-102440000D01*
X128620000Y-102440000D02*
X128620000Y-103900000D01*
X128620000Y-102440000D02*
X129550000Y-102440000D01*
%TO.C,D1*%
X65950000Y-59000000D02*
X65950000Y-51700000D01*
X61650000Y-59000000D02*
X61650000Y-51700000D01*
X65950000Y-59000000D02*
X61650000Y-59000000D01*
%TO.C,D13*%
X69250000Y-50000000D02*
X73550000Y-50000000D01*
X69250000Y-50000000D02*
X69250000Y-57300000D01*
X73550000Y-50000000D02*
X73550000Y-57300000D01*
%TO.C,D28*%
X220250000Y-130500000D02*
X215950000Y-130500000D01*
X220250000Y-130500000D02*
X220250000Y-123200000D01*
X215950000Y-130500000D02*
X215950000Y-123200000D01*
%TO.C,D29*%
X220350000Y-117200000D02*
X220350000Y-109900000D01*
X220350000Y-117200000D02*
X216050000Y-117200000D01*
X216050000Y-117200000D02*
X216050000Y-109900000D01*
%TO.C,D30*%
X220050000Y-104500000D02*
X220050000Y-97200000D01*
X220050000Y-104500000D02*
X215750000Y-104500000D01*
X215750000Y-104500000D02*
X215750000Y-97200000D01*
%TO.C,D35*%
X215750000Y-91100000D02*
X215750000Y-83800000D01*
X220050000Y-91100000D02*
X215750000Y-91100000D01*
X220050000Y-91100000D02*
X220050000Y-83800000D01*
%TO.C,D36*%
X219850000Y-78000000D02*
X219850000Y-70700000D01*
X215550000Y-78000000D02*
X215550000Y-70700000D01*
X219850000Y-78000000D02*
X215550000Y-78000000D01*
%TO.C,D37*%
X215750000Y-65200000D02*
X215750000Y-57900000D01*
X220050000Y-65200000D02*
X215750000Y-65200000D01*
X220050000Y-65200000D02*
X220050000Y-57900000D01*
%TO.C,D38*%
X206950000Y-56700000D02*
X206950000Y-64000000D01*
X202650000Y-56700000D02*
X206950000Y-56700000D01*
X202650000Y-56700000D02*
X202650000Y-64000000D01*
%TO.C,R81*%
X189972936Y-76835000D02*
X190427064Y-76835000D01*
X189972936Y-75365000D02*
X190427064Y-75365000D01*
%TO.C,R82*%
X166851000Y-75372936D02*
X166851000Y-75827064D01*
X165381000Y-75372936D02*
X165381000Y-75827064D01*
%TO.C,R83*%
X160808936Y-79005800D02*
X161263064Y-79005800D01*
X160808936Y-77535800D02*
X161263064Y-77535800D01*
%TO.C,R84*%
X199335000Y-67772936D02*
X199335000Y-68227064D01*
X197865000Y-67772936D02*
X197865000Y-68227064D01*
%TO.C,R89*%
X201395000Y-72162936D02*
X201395000Y-72617064D01*
X199925000Y-72162936D02*
X199925000Y-72617064D01*
%TO.C,R90*%
X206765000Y-72772936D02*
X206765000Y-73227064D01*
X208235000Y-72772936D02*
X208235000Y-73227064D01*
%TO.C,R96*%
X152172936Y-70635000D02*
X152627064Y-70635000D01*
X152172936Y-69165000D02*
X152627064Y-69165000D01*
%TO.C,R97*%
X165087864Y-70683400D02*
X164633736Y-70683400D01*
X165087864Y-69213400D02*
X164633736Y-69213400D01*
%TD*%
M02*
